<?xml version="1.0" standalone="no"?>
<!DOCTYPE svg PUBLIC "-//W3C//DTD SVG 20010904//EN"
 "http://www.w3.org/TR/2001/REC-SVG-20010904/DTD/svg10.dtd">
<svg version="1.0" xmlns="http://www.w3.org/2000/svg"
 width="700.000000pt" height="700.000000pt" viewBox="0 0 700.000000 700.000000"
 preserveAspectRatio="xMidYMid meet">
<metadata>
Created by potrace 1.11, written by Peter Selinger 2001-2013
</metadata>
<g transform="translate(0.000000,700.000000) scale(0.100000,-0.100000)"
fill="#000000" stroke="none">
<path d="M3408 6794 c-400 -387 -1115 -531 -2048 -413 -85 10 -170 22 -187 25
l-33 6 0 -2145 0 -2146 107 37 108 37 3 1984 2 1984 63 -7 c335 -35 800 -33
1042 3 270 41 499 108 690 202 94 45 239 136 310 193 l30 24 80 -60 c351 -263
828 -391 1455 -391 217 1 326 6 558 29 l62 7 0 -1974 0 -1975 98 -32 c54 -18
101 -32 105 -32 4 0 7 959 7 2131 l0 2131 -27 -6 c-63 -13 -349 -46 -493 -57
-222 -17 -616 -7 -792 20 -423 65 -724 197 -962 422 l-92 87 -86 -84z"/>
<path d="M2176 5741 c-23 -35 -30 -73 -61 -293 -54 -389 -61 -428 -84 -450
-21 -18 -21 -18 -41 0 -20 18 -21 32 -23 346 l-2 327 23 18 c16 12 23 25 20
42 -3 22 -8 24 -68 27 l-66 3 -11 -91 c-14 -105 -65 -381 -70 -376 -8 8 -73
369 -73 404 0 57 -9 63 -76 60 -53 -3 -59 -5 -62 -26 -2 -12 6 -34 18 -50 22
-27 22 -28 16 -337 -7 -288 -9 -312 -27 -338 -11 -15 -19 -38 -17 -50 3 -20
10 -22 71 -25 l67 -3 0 33 c0 22 -7 37 -20 46 -19 11 -20 23 -20 184 0 94 2
169 5 166 4 -3 22 -99 41 -213 19 -115 37 -212 40 -217 7 -11 31 -10 38 1 3 5
20 96 37 203 17 106 35 197 40 202 5 6 9 -53 9 -146 0 -142 -2 -158 -21 -182
-11 -14 -19 -36 -17 -48 3 -21 9 -23 81 -26 56 -2 77 1 77 10 0 9 3 9 12 0 7
-7 39 -12 75 -12 63 0 63 0 63 29 0 16 -7 35 -16 42 -16 13 -16 24 2 157 6 38
9 42 34 42 32 0 36 -8 46 -122 5 -53 3 -78 -4 -78 -14 0 -24 -33 -16 -54 5
-13 21 -16 85 -16 68 0 79 2 79 18 1 16 1 16 11 0 8 -15 24 -18 89 -18 80 0
80 0 80 27 0 14 -7 35 -17 45 -13 14 -17 44 -20 145 -4 148 3 143 42 -27 36
-161 69 -208 135 -190 33 8 38 45 11 74 -14 14 -31 69 -55 170 l-34 148 25 54
c20 44 25 70 25 142 0 106 -14 163 -52 205 -28 32 -30 32 -120 32 -70 0 -93
-3 -100 -15 -15 -23 -12 -39 10 -57 19 -17 20 -30 20 -338 0 -312 -1 -321 -21
-347 l-22 -27 -22 27 c-23 29 -25 39 -94 555 -15 114 -32 212 -38 218 -8 8
-18 0 -37 -30z m363 -108 c6 -21 13 -61 17 -89 12 -93 -34 -233 -50 -153 -8
40 -8 227 0 257 9 33 22 27 33 -15z m-356 -280 c5 -47 4 -53 -13 -53 -12 0
-17 6 -15 18 2 9 7 34 10 56 8 48 11 44 18 -21z"/>
<path d="M4474 5770 c-11 -4 -33 -23 -49 -41 -69 -82 -100 -233 -92 -439 11
-249 70 -375 178 -375 69 0 128 79 154 204 58 272 3 591 -112 646 -35 17 -48
18 -79 5z m61 -110 c31 -61 47 -171 48 -330 0 -200 -27 -330 -68 -330 -81 0
-115 489 -45 648 22 49 43 54 65 12z"/>
<path d="M5271 5763 c-124 -62 -184 -375 -125 -643 21 -96 63 -163 118 -190
53 -25 91 -21 148 15 l36 24 -5 118 c-5 102 -3 120 11 132 9 7 16 27 16 43 l0
29 -82 -3 c-78 -3 -83 -4 -86 -26 -2 -15 6 -32 22 -47 24 -22 26 -31 26 -107
0 -93 -8 -113 -38 -104 -28 9 -59 77 -71 156 -14 83 -14 286 -1 370 13 77 48
154 73 158 37 7 58 -29 82 -140 4 -19 12 -28 25 -28 19 0 20 7 20 110 l0 109
-29 15 c-48 25 -102 29 -140 9z"/>
<path d="M2720 5734 c0 -14 9 -37 20 -51 19 -24 20 -41 20 -343 0 -307 -1
-317 -20 -335 -13 -12 -20 -29 -18 -44 3 -25 5 -26 86 -29 73 -2 82 -1 83 15
2 32 -3 47 -19 59 -15 11 -17 46 -17 336 0 321 0 323 23 354 39 51 24 64 -74
64 -84 0 -84 0 -84 -26z"/>
<path d="M2959 5753 c-31 -8 -30 -83 1 -83 6 0 10 -122 10 -323 0 -314 -1
-324 -20 -342 -13 -12 -20 -29 -18 -44 3 -25 5 -26 93 -29 111 -4 145 10 176
75 43 89 35 292 -15 350 l-22 25 24 47 c21 41 23 56 20 136 -5 102 -29 163
-73 183 -24 11 -141 15 -176 5z m151 -152 c13 -71 -5 -191 -30 -191 -13 0 -21
100 -14 187 6 70 9 82 20 71 8 -7 18 -37 24 -67z m0 -309 c37 -82 10 -336 -30
-272 -10 16 -24 286 -16 299 10 16 32 3 46 -27z"/>
<path d="M3247 5754 c-13 -14 -7 -48 13 -69 30 -32 90 -353 97 -521 5 -123 4
-133 -15 -152 -25 -25 -34 -53 -23 -70 5 -9 31 -12 92 -10 76 3 84 5 87 24 2
11 -8 32 -23 48 -24 26 -25 32 -25 145 0 100 6 145 40 302 41 186 56 239 70
239 11 0 20 39 13 56 -4 10 -23 14 -63 14 -50 0 -60 -3 -65 -20 -4 -13 0 -31
10 -46 15 -23 15 -32 0 -107 -8 -45 -19 -95 -24 -112 -8 -29 -9 -27 -19 28
-35 174 -35 167 -17 187 9 10 15 29 13 42 -3 21 -8 23 -78 26 -42 1 -79 0 -83
-4z"/>
<path d="M3613 5750 c-29 -12 -30 -42 -3 -78 20 -27 21 -39 18 -339 -3 -280
-5 -313 -20 -330 -10 -11 -18 -32 -18 -47 l0 -27 83 3 c80 3 82 4 85 29 2 15
-5 32 -18 44 -18 16 -20 30 -20 143 0 69 2 123 4 121 3 -3 15 -52 27 -109 31
-154 54 -209 92 -225 18 -7 36 -11 41 -8 5 4 51 5 103 4 l93 -2 0 29 c0 20 -8
35 -22 44 -23 15 -23 20 -26 239 -1 124 2 217 6 209 5 -8 44 -131 87 -272 64
-211 82 -258 96 -258 10 0 23 9 29 19 6 13 10 149 10 374 0 341 1 355 20 372
11 10 20 31 20 47 l0 29 -72 -3 c-69 -3 -73 -4 -76 -27 -3 -17 4 -30 20 -42
22 -17 23 -23 26 -191 2 -159 1 -170 -13 -140 -16 37 -99 296 -115 360 l-11
43 -62 -3 c-58 -3 -62 -5 -65 -29 -2 -15 5 -32 18 -44 19 -17 20 -28 20 -334
0 -270 -2 -320 -16 -339 -17 -25 -36 -28 -53 -8 -6 7 -28 82 -47 167 l-36 153
24 50 c20 42 23 65 23 160 0 96 -3 117 -23 153 -12 24 -35 49 -52 58 -32 17
-141 20 -177 5z m144 -121 c27 -78 6 -285 -27 -264 -16 10 -13 308 3 303 6 -3
17 -20 24 -39z"/>
<path d="M4727 5753 c-14 -13 -6 -43 16 -63 22 -21 22 -22 22 -346 0 -299 -1
-327 -17 -338 -11 -8 -18 -26 -18 -45 l0 -31 70 0 70 0 0 33 c0 21 -7 36 -20
45 -19 12 -20 23 -19 230 l1 217 22 -70 c13 -38 49 -155 81 -260 32 -104 62
-194 67 -200 5 -6 15 -6 26 1 15 10 17 45 22 377 5 329 7 367 23 384 9 11 17
32 17 46 0 27 -1 27 -70 27 l-70 0 0 -31 c0 -18 8 -38 19 -47 17 -15 20 -37
25 -191 3 -99 1 -170 -3 -165 -12 12 -117 339 -126 392 l-7 42 -62 0 c-35 0
-66 -3 -69 -7z"/>
<path d="M2786 4712 c-73 -25 -109 -75 -113 -155 -7 -116 57 -182 177 -182 83
0 126 24 158 85 52 104 14 211 -90 255 -47 19 -70 18 -132 -3z m103 -38 c71
-50 66 -233 -9 -264 -62 -26 -120 45 -120 146 0 106 63 164 129 118z"/>
<path d="M3100 4717 c0 -7 5 -18 11 -24 9 -9 8 -214 -2 -283 l-4 -25 99 -3
c111 -3 146 10 146 53 0 33 -14 38 -35 15 -13 -14 -31 -20 -62 -20 l-44 0 3
133 c2 72 5 139 8 147 4 12 -7 16 -57 18 -48 2 -63 0 -63 -11z"/>
<path d="M3416 4708 c8 -23 11 -250 3 -298 l-4 -25 99 -3 c111 -3 146 10 146
53 0 33 -14 38 -35 15 -13 -14 -31 -20 -62 -20 l-44 0 3 133 c2 72 5 139 8
147 4 12 -7 16 -59 18 -63 3 -63 3 -55 -20z"/>
<path d="M4155 4719 c-98 -37 -143 -155 -95 -249 37 -72 112 -99 217 -80 l62
12 -6 46 c-5 37 -3 47 12 59 31 22 4 34 -70 31 -71 -3 -91 -16 -53 -33 18 -8
23 -18 23 -45 0 -32 -3 -35 -29 -35 -35 0 -63 34 -77 93 -25 114 71 228 129
153 32 -42 43 -51 52 -46 14 8 13 82 -1 91 -20 12 -133 14 -164 3z"/>
<path d="M3705 4711 c-3 -6 4 -15 15 -21 18 -10 20 -20 20 -139 0 -127 0 -128
-26 -139 -49 -23 -14 -32 121 -32 l133 0 12 36 c9 27 9 39 0 47 -9 9 -16 5
-32 -15 -17 -24 -27 -28 -69 -28 l-49 0 0 60 c0 60 0 60 29 60 21 0 32 -6 36
-21 4 -11 12 -18 18 -16 13 4 22 80 12 106 -6 14 -9 13 -25 -6 -10 -13 -29
-23 -43 -23 -26 0 -35 25 -29 83 3 24 8 27 38 27 33 0 74 -28 74 -50 0 -5 5
-10 10 -10 6 0 10 20 10 45 l0 45 -124 0 c-69 0 -127 -4 -131 -9z"/>
<path d="M4410 4712 c0 -4 9 -15 20 -25 19 -16 20 -27 18 -140 -3 -116 -4
-123 -25 -132 -13 -5 -23 -15 -23 -22 0 -10 33 -13 135 -13 123 0 135 2 145
19 11 22 13 64 4 74 -3 3 -18 -8 -31 -24 -23 -27 -31 -30 -72 -27 l-46 3 -3
58 -3 57 30 0 c20 0 34 -7 41 -20 19 -36 30 -21 30 40 0 61 -11 76 -30 40 -7
-13 -21 -20 -41 -20 -30 0 -30 0 -27 53 3 51 4 52 36 55 26 3 39 -3 61 -27 33
-35 41 -32 41 21 l0 38 -130 0 c-71 0 -130 -3 -130 -8z"/>
<path d="M2425 4695 c-50 -18 -91 -62 -105 -115 -33 -122 72 -223 215 -205 64
8 71 12 83 57 14 51 -4 55 -44 9 -91 -104 -221 41 -157 176 31 67 114 78 155
22 30 -40 38 -36 38 15 l0 43 -46 7 c-67 9 -94 7 -139 -9z"/>
<path d="M1440 4122 c0 -4 460 -467 1023 -1030 l1022 -1022 1023 1023 c562
562 1022 1025 1022 1030 0 4 -920 7 -2045 7 -1125 0 -2045 -3 -2045 -8z m2090
-134 c12 -32 20 -65 16 -73 -7 -20 -104 -21 -112 -2 -5 15 30 113 48 135 14
17 20 9 48 -60z m515 -131 c28 -21 9 -37 -46 -37 -27 0 -49 -3 -49 -7 0 -3 57
-162 126 -352 121 -331 125 -347 114 -384 -35 -118 -196 -190 -353 -157 -105
21 -197 108 -197 185 0 17 56 183 124 370 l124 340 -391 3 c-214 1 -392 0
-394 -2 -2 -2 53 -160 122 -351 143 -392 142 -386 74 -460 -59 -64 -125 -90
-229 -90 -93 0 -146 16 -207 62 -39 30 -73 89 -73 127 0 19 185 547 245 699 6
14 1 17 -34 17 -44 0 -67 24 -40 41 8 5 251 9 540 9 425 0 529 -3 544 -13z
m-465 -82 c22 -26 0 -35 -91 -35 -81 0 -89 2 -89 19 0 26 12 29 96 30 51 1 75
-3 84 -14z m-60 -104 c6 -13 10 -150 10 -376 0 -226 -4 -363 -10 -376 -12 -21
-40 -25 -58 -7 -17 17 -17 749 0 766 18 18 46 14 58 -7z m211 -847 c9 -11 10
-20 2 -32 -9 -15 -37 -17 -249 -17 -222 0 -239 1 -242 18 -9 47 -7 47 241 47
202 0 236 -2 248 -16z m243 -110 c19 -18 19 -20 6 -45 -10 -18 -26 -19 -488
-19 -494 0 -502 1 -502 40 0 39 8 40 496 40 416 0 474 -2 488 -16z"/>
<path d="M2960 3462 c-57 -158 -105 -293 -108 -299 -3 -10 45 -13 218 -13 207
0 222 1 215 18 -3 9 -52 141 -107 292 -55 151 -103 278 -107 282 -4 4 -53
-122 -111 -280z"/>
<path d="M3806 3454 c-59 -163 -106 -298 -103 -300 2 -2 101 -3 220 -2 l215 3
-105 290 c-58 160 -108 293 -112 298 -4 4 -56 -126 -115 -289z"/>
<path d="M4533 3018 l-1003 -1003 0 -662 0 -662 53 5 c454 35 687 93 982 242
170 86 305 178 438 297 232 208 414 459 511 705 l26 65 -2 1008 -3 1007 -1002
-1002z m885 -226 l3 -101 -33 -36 c-28 -33 -30 -38 -15 -47 27 -14 20 -45 -19
-88 -20 -22 -31 -40 -25 -40 21 0 11 -47 -15 -74 -15 -14 -32 -26 -38 -27 -6
-1 0 -4 14 -8 57 -16 19 -96 -67 -141 -43 -23 -50 -30 -38 -40 8 -7 26 -36 41
-66 33 -67 35 -151 6 -217 -24 -54 -40 -66 -158 -111 -193 -73 -242 -106 -427
-283 -160 -154 -232 -206 -331 -242 -65 -23 -86 -25 -241 -25 -163 -1 -173 0
-247 28 -84 31 -120 61 -120 101 0 42 46 79 194 156 77 40 150 86 163 101 14
16 42 84 65 156 35 111 52 146 134 277 106 170 96 163 215 131 92 -26 201 -19
235 13 33 31 33 70 2 137 -28 59 -21 74 30 74 32 0 33 1 27 35 -16 99 57 199
172 234 37 12 82 21 99 21 51 0 170 35 220 64 25 14 65 49 88 76 24 28 48 49
53 47 6 -2 11 -49 13 -105z"/>
<path d="M1700 2997 c0 -243 69 -474 191 -638 48 -66 144 -159 162 -159 16 0
217 161 217 175 0 28 -52 193 -81 254 -16 35 -46 87 -66 115 -20 28 -48 67
-61 86 l-24 35 3 -110 c4 -101 3 -110 -14 -110 -13 0 -27 21 -49 75 -28 66
-44 87 -129 170 -53 52 -106 114 -118 138 -12 23 -24 42 -26 42 -3 0 -5 -33
-5 -73z"/>
<path d="M2205 2249 c-44 -33 -89 -67 -100 -75 -18 -13 -18 -15 -3 -30 15 -16
24 -12 117 55 89 64 100 75 91 92 -6 10 -14 19 -18 19 -4 0 -43 -28 -87 -61z"/>
<path d="M2253 2166 c-101 -72 -187 -136 -193 -142 -9 -9 9 -40 76 -132 2 -4
361 252 384 274 12 12 9 21 -26 71 -22 31 -45 58 -50 59 -5 1 -91 -57 -191
-130z"/>
<path d="M5620 2019 c-56 -185 -183 -416 -322 -586 -69 -85 -257 -271 -343
-340 -166 -133 -431 -274 -650 -345 -247 -81 -542 -128 -810 -128 -720 0
-1337 261 -1752 744 -177 206 -288 397 -362 621 -22 66 -43 119 -48 119 -18
-3 -479 -157 -493 -165 -10 -6 -11 -8 -2 -9 24 0 98 -79 120 -127 12 -26 38
-93 57 -148 50 -137 142 -324 213 -431 32 -49 71 -109 85 -134 56 -97 293
-333 456 -455 140 -105 342 -220 512 -292 516 -220 1116 -289 1719 -197 310
48 557 124 819 255 384 190 687 444 882 739 172 261 221 356 279 536 18 54 39
118 47 142 15 43 66 104 111 132 21 14 9 20 -221 98 -134 45 -248 82 -253 82
-6 0 -25 -50 -44 -111z m-59 -459 c26 -15 24 -30 -5 -30 -29 0 -71 -47 -57
-64 5 -6 23 -19 40 -29 29 -17 30 -17 41 4 7 11 10 30 7 40 -7 24 0 24 43 -3
32 -21 33 -23 13 -26 -13 -2 -29 -13 -38 -24 -13 -20 -12 -23 20 -45 19 -13
40 -23 47 -23 23 0 50 57 43 90 -8 37 8 40 30 6 15 -23 13 -27 -44 -117 -34
-52 -61 -89 -62 -84 -1 6 -2 19 -3 29 -2 29 -163 129 -194 121 -21 -5 -22 -4
-11 17 31 59 92 148 101 148 5 0 18 -5 29 -10z m-4072 -73 c50 -78 55 -125 15
-156 -41 -32 -91 -24 -114 19 -9 18 -7 19 25 18 21 -1 43 6 55 17 20 18 27 59
11 69 -13 8 -189 -111 -193 -131 -2 -13 -12 -6 -36 27 -38 52 -40 62 -8 54 31
-7 196 99 196 128 0 10 2 18 4 18 2 0 22 -28 45 -63z m3952 -133 l24 -26 -32
7 c-28 6 -37 2 -63 -23 -35 -35 -38 -64 -10 -110 35 -57 110 -87 165 -66 25
10 44 62 35 96 -10 34 13 40 30 7 17 -31 4 -65 -44 -113 -54 -55 -98 -65 -160
-37 -105 46 -113 163 -19 258 19 18 37 33 42 33 4 0 18 -12 32 -26z m-3766
-120 c20 -42 19 -57 -4 -85 -13 -17 -28 -23 -54 -22 -41 1 -55 -21 -66 -102
l-6 -50 -22 23 c-27 26 -30 73 -7 127 11 27 12 41 5 48 -15 15 -74 -42 -67
-65 7 -28 -9 -21 -43 17 -38 44 -38 51 -3 58 38 9 162 123 162 150 0 18 6 15
45 -23 24 -24 51 -58 60 -76z m3568 -73 c-3 -13 18 -44 72 -105 78 -87 91
-122 43 -111 -47 10 -204 35 -223 35 -15 0 -6 -14 40 -60 40 -41 67 -60 84
-60 l24 0 -24 -26 c-13 -14 -32 -30 -42 -35 -15 -9 -17 -7 -12 13 5 19 -8 38
-66 101 -52 57 -77 77 -91 74 -26 -7 -22 5 10 36 l28 27 111 -18 112 -18 -20
27 c-32 46 -79 80 -100 74 -27 -9 -23 3 12 36 36 34 49 37 42 10z m-3437 -53
c34 -38 40 -53 19 -44 -27 10 -165 -133 -165 -171 l0 -27 -40 39 c-44 43 -49
55 -22 55 24 0 152 143 152 170 0 17 3 19 18 11 9 -5 26 -20 38 -33z m135
-117 c77 -57 104 -103 96 -163 -3 -22 -16 -51 -29 -65 -66 -71 -130 -68 -236
10 -72 53 -87 71 -53 65 13 -2 36 20 80 80 33 45 61 91 61 102 0 11 3 20 8 20
4 0 37 -22 73 -49z m3103 -139 c50 -36 103 -68 120 -71 l29 -6 -49 -33 c-41
-27 -50 -29 -53 -15 -3 16 -39 52 -52 53 -4 0 -18 -9 -32 -20 -23 -18 -25 -24
-15 -50 5 -17 16 -30 24 -30 22 0 16 -14 -16 -38 -38 -28 -43 -28 -36 6 4 16
-6 71 -24 136 -21 81 -27 114 -19 128 12 22 8 24 123 -60z m-2881 -13 c107
-55 137 -90 103 -118 -11 -9 -15 -6 -19 16 -3 17 -18 35 -35 45 l-29 17 -22
-40 c-13 -22 -21 -42 -20 -43 20 -17 47 -23 62 -15 21 12 21 9 0 -36 -18 -39
-33 -46 -33 -15 0 16 -26 40 -44 40 -3 0 -15 -18 -26 -41 -21 -40 -21 -42 -3
-61 14 -16 27 -19 60 -15 44 5 55 -7 31 -31 -20 -20 -36 -15 -132 40 -86 50
-89 53 -61 58 25 4 37 18 78 90 32 58 46 92 42 108 -7 27 -4 27 48 1z m2657
-7 c0 -4 -5 -13 -11 -19 -14 -14 85 -203 107 -203 27 0 14 -16 -31 -38 -55
-27 -58 -27 -50 -3 6 18 -47 141 -61 141 -3 0 -2 -45 1 -100 5 -67 4 -100 -3
-100 -6 0 -43 27 -82 60 -40 34 -75 59 -77 56 -8 -8 61 -131 75 -132 27 -3 26
-6 -8 -24 -47 -26 -58 -25 -53 4 3 14 -11 58 -33 110 -30 65 -45 88 -64 94
-25 9 -25 9 15 29 l40 21 74 -59 c41 -33 76 -57 79 -54 3 3 4 47 3 98 l-2 93
33 16 c38 19 48 21 48 10z m-2282 -172 c11 0 -2 -19 -16 -22 -25 -7 -95 -179
-86 -213 l6 -24 -56 22 c-56 22 -72 37 -38 37 25 0 97 178 88 215 l-6 25 52
-20 c29 -11 54 -20 56 -20z m1936 -26 c23 -22 30 -59 16 -85 -11 -20 -9 -26
28 -61 23 -21 50 -38 62 -38 30 0 24 -17 -11 -29 -37 -13 -82 4 -120 45 -29
31 -53 32 -43 2 16 -54 24 -68 39 -68 32 0 13 -19 -36 -35 -53 -18 -70 -15
-50 9 15 18 -41 182 -72 209 -24 21 -26 19 43 45 66 25 123 28 144 6z m-1851
-8 c25 -10 36 -23 45 -52 6 -22 24 -66 40 -99 l28 -60 19 67 c15 55 16 70 5
83 -19 22 -9 26 36 14 50 -14 52 -16 28 -33 -11 -8 -33 -59 -54 -122 -19 -59
-40 -109 -46 -111 -6 -2 -33 50 -60 117 -27 66 -52 120 -55 120 -4 0 -16 -35
-28 -77 -19 -71 -19 -78 -4 -95 20 -22 8 -23 -51 -7 l-39 11 26 21 c18 16 33
48 51 111 24 84 25 91 9 108 -15 17 -15 18 1 18 9 0 31 -6 49 -14z m1592 -78
c52 -41 71 -129 40 -188 -32 -61 -144 -89 -206 -53 -42 25 -73 94 -66 145 6
42 44 93 82 108 41 18 121 11 150 -12z m-1141 -23 c72 -8 106 -37 106 -88 0
-38 -21 -62 -62 -72 -40 -10 -50 2 -22 30 37 37 27 105 -16 105 -15 0 -20 -10
-25 -47 -3 -27 -10 -74 -14 -106 -6 -43 -5 -60 6 -68 34 -28 8 -32 -86 -13
-21 4 -22 6 -7 17 21 16 50 200 36 227 -14 26 -12 32 8 26 9 -2 43 -7 76 -11z
m864 -27 c4 -31 -9 -36 -28 -13 -7 8 -28 15 -46 15 -30 0 -34 -3 -34 -27 0
-71 31 -95 67 -54 23 27 33 17 33 -31 0 -40 -1 -40 -19 -24 -23 21 -76 12 -67
-11 3 -8 6 -28 6 -44 0 -21 6 -32 22 -38 30 -11 11 -19 -58 -26 -54 -6 -57 -5
-40 9 17 14 17 21 6 118 -7 63 -18 110 -27 120 -13 15 -10 17 44 23 32 3 65 8
73 10 42 9 65 0 68 -27z m-557 2 c37 0 39 -2 39 -30 0 -35 -10 -38 -35 -10
-13 14 -29 20 -49 18 -29 -3 -31 -6 -34 -45 -3 -42 -2 -43 27 -43 16 0 33 5
36 10 13 21 20 8 17 -30 -4 -41 -15 -52 -26 -25 -3 8 -17 15 -31 15 -25 0 -26
-2 -23 -52 3 -52 4 -53 37 -56 24 -3 40 3 57 19 29 27 37 22 24 -17 l-10 -29
-98 3 c-101 4 -143 14 -105 26 15 5 22 18 27 53 9 70 7 171 -4 178 -5 3 -10
11 -10 17 0 7 20 9 61 4 34 -3 79 -6 100 -6z m273 -21 c32 -25 34 -66 6 -101
l-19 -25 29 -47 c17 -26 37 -49 45 -52 27 -11 16 -24 -20 -24 -39 0 -68 23
-97 78 -9 18 -22 32 -28 32 -17 0 -12 -81 6 -95 14 -10 7 -13 -42 -18 -32 -3
-60 -4 -63 -2 -2 3 4 13 13 24 15 16 16 32 10 121 -5 74 -11 103 -21 107 -30
12 11 23 83 23 57 0 77 -4 98 -21z"/>
<path d="M1575 1235 c-38 -33 -39 -35 -23 -52 14 -13 23 -15 45 -7 35 12 54
58 32 78 -12 13 -19 10 -54 -19z"/>
<path d="M1857 893 c-31 -42 -57 -85 -57 -94 0 -21 37 -49 65 -49 38 0 86 39
107 86 17 39 18 50 7 75 -10 26 -43 59 -59 59 -3 0 -32 -35 -63 -77z"/>
<path d="M4960 809 c12 -41 13 -41 36 -24 19 14 18 15 -6 35 -34 27 -40 25
-30 -11z"/>
<path d="M4365 610 c-7 -11 12 -79 25 -93 13 -15 50 12 50 36 0 47 -55 89 -75
57z"/>
<path d="M4070 530 c-27 -27 -27 -107 -1 -159 24 -46 68 -69 101 -51 75 40 24
230 -62 230 -10 0 -27 -9 -38 -20z"/>
<path d="M3557 474 c-4 -4 -7 -29 -7 -56 0 -45 2 -48 25 -48 36 0 55 42 34 78
-15 27 -39 39 -52 26z"/>
<path d="M2362 1994 l-92 -66 20 -29 c12 -15 24 -31 29 -33 4 -3 49 24 99 60
l91 65 -22 35 c-12 18 -24 34 -27 34 -3 0 -47 -30 -98 -66z"/>
<path d="M2445 1889 c-44 -33 -81 -64 -83 -69 -2 -5 97 -140 219 -299 l223
-289 73 50 c41 29 70 56 66 62 -26 46 -407 606 -412 605 -3 0 -42 -27 -86 -60z"/>
<path d="M6195 1896 c-58 -25 -90 -76 -134 -213 -48 -148 -132 -326 -219 -463
-71 -111 -69 -113 59 -80 241 62 432 208 532 409 38 77 42 91 42 161 0 67 -4
82 -28 118 -36 55 -90 82 -164 82 -32 -1 -72 -7 -88 -14z"/>
<path d="M630 1874 c-73 -32 -130 -111 -130 -182 0 -94 67 -233 161 -337 123
-134 312 -229 533 -269 l39 -8 -18 29 c-134 201 -193 317 -273 531 -28 73 -61
150 -75 171 -47 70 -156 100 -237 65z"/>
<path d="M2911 1251 c-75 -55 -75 -55 -56 -84 l16 -25 64 44 c36 25 67 49 69
53 6 9 -21 51 -32 51 -4 0 -31 -18 -61 -39z"/>
<path d="M2968 1153 c-65 -48 -66 -49 -50 -71 l17 -22 65 46 c64 45 71 57 46
82 -10 10 -25 4 -78 -35z"/>
</g>
</svg>
