<svg xmlns="http://www.w3.org/2000/svg" viewBox="0 0 223.5 247.61"><defs><style>.cls-1,.cls-2,.cls-3,.cls-4,.cls-5{fill:#fff;stroke:#ff8f00;}.cls-1{stroke-miterlimit:10;}.cls-1,.cls-3,.cls-4{stroke-width:17.63px;}.cls-2,.cls-4{stroke-linecap:round;stroke-linejoin:round;}.cls-2{stroke-width:17.63px;}.cls-3,.cls-5{stroke-linejoin:bevel;}.cls-5{stroke-width:17.63px;}.cls-6{fill:#ff8f00;}</style></defs><title>header-artwork_libra</title><g id="Layer_2" data-name="Layer 2"><g id="libra"><line class="cls-1" x1="41.44" y1="238.79" x2="180.5" y2="238.79"/><line class="cls-1" x1="79.12" y1="221.31" x2="142.82" y2="221.31"/><line class="cls-1" x1="110.97" y1="94.9" x2="110.97" y2="201.5"/><line class="cls-1" x1="11.54" y1="64.78" x2="214.46" y2="64.78"/><line class="cls-1" x1="100.38" y1="76.81" x2="122.22" y2="76.81"/><polygon class="cls-2" points="47.66 66.88 8.82 173.53 86.5 173.53 47.66 66.88"/><path class="cls-3" d="M86.5,173.91H8.82c0,15.44,17.39,28,38.84,28S86.5,189.35,86.5,173.91Z"/><polygon class="cls-4" points="175.84 66.88 137 173.53 214.68 173.53 175.84 66.88"/><path class="cls-5" d="M214.68,173.91H137c0,15.44,17.39,28,38.84,28S214.68,189.35,214.68,173.91Z"/><polygon class="cls-6" points="91.85 48.42 111.3 0 130.75 48.42 91.85 48.42"/></g></g></svg>