<svg xmlns="http://www.w3.org/2000/svg" viewBox="0 0 220.72 250.84"><defs><style>.cls-1{fill:#fff;stroke:#1c3068;stroke-miterlimit:10;stroke-width:17.63px;}</style></defs><title>header-artwork_shoe</title><g id="Layer_2" data-name="Layer 2"><g id="libra"><path class="cls-1" d="M87.44,128.64s-9.18,15.81-17.69,28.17c-10.46,15.2-10.51,38.69-20,45.46C31.3,215.42-4.94,224.1,14.28,235.6c21.43,7.61,9.46,6.34,45.39,6.34s49.88-26.36,75-47.26,47.91-19.64,52.87-28.33,8-24.26-8.75-39.59c0,0,20.55-5.71,20.55-15.81l-12.28,1.88c0-5.95,15-9.08,15-15.65L193,95.3s13.46-5,14.94-14l-9.5-1.6s10.87-5.87,13.47-13.85v-19s-7.72,19.8-43.73,22.77C140.76,71.9,134.05,91.55,141,105.08l-11.84.2s13.73,19.28-1.16,26.56S87.44,128.64,87.44,128.64Z"/></g></g></svg>