<svg xmlns="http://www.w3.org/2000/svg" viewBox="0 0 244.92 375.66"><defs><style>.cls-1{fill:#fff;stroke:#e53935;stroke-miterlimit:10;stroke-width:17.63px;}</style></defs><title>header-artwork_torch</title><g id="Layer_2" data-name="Layer 2"><g id="libra"><polygon class="cls-1" points="232.85 344.36 206.16 363.52 68.39 184.55 106.55 155.66 232.85 344.36"/><line class="cls-1" x1="196.11" y1="350.65" x2="223.89" y2="330.69"/><line class="cls-1" x1="186.28" y1="336.04" x2="214.07" y2="316.09"/><line class="cls-1" x1="120.49" y1="248.61" x2="151.35" y2="226.45"/><rect class="cls-1" x="63.4" y="179.39" width="84.56" height="32.06" transform="matrix(0.81, -0.58, 0.58, 0.81, -94.16, 98.36)"/><path class="cls-1" d="M68.39,184.55S-1.91,144.88,10.22,28.37C20.1,45.84,25.49,58.75,37.83,67.43c14.64,10.29,20.84,23.36,25.79,39,0,0-5.94-26.81,2.73-42.52,5.46,20.26,16.08,22.08,27,46.35a166.27,166.27,0,0,1,13.19,45.36Z"/></g></g></svg>