<svg xmlns="http://www.w3.org/2000/svg" xmlns:xlink="http://www.w3.org/1999/xlink" viewBox="0 0 1920 1080"><defs><style>.cls-1,.cls-2,.cls-3{fill:none;}.cls-2,.cls-3,.cls-4,.cls-5,.cls-6,.cls-7{stroke:#000;stroke-width:12.43px;}.cls-2,.cls-3,.cls-4,.cls-6,.cls-7{stroke-linecap:round;}.cls-2,.cls-5{stroke-miterlimit:10;}.cls-3,.cls-4,.cls-6,.cls-7{stroke-linejoin:round;}.cls-4{fill:#ffc400;}.cls-5{fill:#fff;}.cls-6{fill:#d03935;}.cls-7{fill:#1c3068;}.cls-8{opacity:0.47;}.cls-9{fill:url(#New_Pattern_3);}</style><pattern id="New_Pattern_3" data-name="New Pattern 3" width="551.43" height="633.96" patternTransform="translate(-2834 47)" patternUnits="userSpaceOnUse" viewBox="0 0 551.43 633.96"><rect class="cls-1" width="551.43" height="633.96"/><line class="cls-2" x1="534.47" y1="546.27" x2="534.47" y2="639.23"/><line class="cls-2" x1="467.5" y1="521.95" x2="605.11" y2="521.95"/><line class="cls-2" x1="525.48" y1="532.28" x2="544.22" y2="532.28"/><polygon class="cls-3" points="480.16 523.75 446.84 615.24 513.48 615.24 480.16 523.75"/><path class="cls-4" d="M513.48,615.56H446.84c0,13.24,14.92,24,33.32,24S513.48,628.8,513.48,615.56Z"/><polygon class="cls-3" points="590.12 523.75 556.8 615.24 623.43 615.24 590.12 523.75"/><path class="cls-4" d="M623.43,615.56H556.8c0,13.24,14.92,24,33.32,24S623.43,628.8,623.43,615.56Z"/><path class="cls-5" d="M526.7,510.9l6.19-15.4a2.11,2.11,0,0,1,3.92,0L543,510.9a2.22,2.22,0,0,1-2.06,3H528.76A2.22,2.22,0,0,1,526.7,510.9Z"/><path class="cls-6" d="M345.73,670.68s-40.48-22.84-33.49-89.93c5.69,10.06,8.79,17.49,15.9,22.49,8.43,5.93,12,13.45,14.85,22.47,0,0-3.42-15.44,1.57-24.48,3.14,11.67,9.26,12.71,15.55,26.69A95.74,95.74,0,0,1,367.7,654Z"/><line class="cls-2" x1="-83.92" y1="521.95" x2="53.68" y2="521.95"/><polygon class="cls-3" points="38.69 523.75 5.37 615.24 72.01 615.24 38.69 523.75"/><path class="cls-4" d="M72,615.56H5.37c0,13.24,14.92,24,33.32,24S72,628.8,72,615.56Z"/><path class="cls-4" d="M121.74,664.84s-8.72,15-16.8,26.77c-9.94,14.44-10,36.76-19,43.2C68.4,747.3,34,755.55,52.23,766.48c20.36,7.23,9,6,43.12,6s47.39-25,71.28-44.91,45.52-18.66,50.24-26.91,7.64-23-8.31-37.62c0,0,19.53-5.43,19.53-15l-11.67,1.78c0-5.65,14.29-8.62,14.29-14.87L222,633.17s12.79-4.76,14.19-13.28l-9-1.52s10.33-5.58,12.8-13.16V587.15s-7.34,18.81-41.55,21.64c-26,2.15-32.42,20.82-25.83,33.68l-11.25.19s13,18.32-1.1,25.23S121.74,664.84,121.74,664.84Z"/><line class="cls-2" x1="199.12" y1="354.24" x2="318.4" y2="354.24"/><line class="cls-2" x1="231.44" y1="339.24" x2="286.08" y2="339.24"/><line class="cls-2" x1="258.76" y1="229.29" x2="258.76" y2="322.25"/><line class="cls-2" x1="191.79" y1="204.97" x2="329.4" y2="204.97"/><line class="cls-2" x1="249.76" y1="215.3" x2="268.51" y2="215.3"/><polygon class="cls-3" points="204.45 206.77 171.13 298.26 237.77 298.26 204.45 206.77"/><path class="cls-4" d="M237.77,298.58H171.13c0,13.24,14.92,24,33.32,24S237.77,311.82,237.77,298.58Z"/><polygon class="cls-3" points="314.4 206.77 281.08 298.26 347.72 298.26 314.4 206.77"/><path class="cls-4" d="M347.72,298.58H281.08c0,13.24,14.92,24,33.32,24S347.72,311.82,347.72,298.58Z"/><path class="cls-5" d="M251,193.93l6.19-15.4a2.11,2.11,0,0,1,3.92,0l6.19,15.4a2.22,2.22,0,0,1-2.06,3H253A2.22,2.22,0,0,1,251,193.93Z"/><path class="cls-4" d="M397.45,347.87s-8.72,15-16.8,26.77c-9.94,14.44-10,36.76-19,43.2-17.52,12.49-52,20.74-33.69,31.67,20.36,7.23,9,6,43.12,6s47.39-25,71.28-44.91S487.86,392,492.58,383.7s7.64-23-8.31-37.62c0,0,19.53-5.43,19.53-15l-11.67,1.78c0-5.65,14.29-8.62,14.29-14.87l-8.67-1.78s12.79-4.76,14.19-13.28l-9-1.52s10.33-5.58,12.8-13.16V270.17s-7.34,18.81-41.55,21.64c-26,2.15-32.42,20.82-25.83,33.68l-11.25.19s13,18.32-1.1,25.23S397.45,347.87,397.45,347.87Z"/><polygon class="cls-7" points="164.71 445.72 149.34 456.76 70.02 353.7 91.99 337.06 164.71 445.72"/><line class="cls-3" x1="137.9" y1="440.93" x2="153.9" y2="429.44"/><line class="cls-3" x1="95.29" y1="383.48" x2="113.06" y2="370.71"/><polygon class="cls-7" points="116.65 353.25 77.1 381.66 66.33 366.67 105.88 338.26 116.65 353.25"/><path class="cls-6" d="M70,353.7s-40.48-22.84-33.49-89.93c5.69,10.06,8.79,17.49,15.9,22.49,8.43,5.93,12,13.45,14.85,22.47,0,0-3.42-15.44,1.57-24.48C72,295.92,78.1,297,84.39,310.94A95.74,95.74,0,0,1,92,337.06Z"/><line class="cls-2" x1="474.83" y1="37.26" x2="594.11" y2="37.26"/><line class="cls-2" x1="507.15" y1="22.27" x2="561.79" y2="22.27"/><line class="cls-2" x1="534.47" y1="-87.69" x2="534.47" y2="5.27"/><path class="cls-4" d="M513.48-18.4H446.84c0,13.24,14.92,24,33.32,24S513.48-5.15,513.48-18.4Z"/><path class="cls-4" d="M623.43-18.4H556.8c0,13.24,14.92,24,33.32,24S623.43-5.15,623.43-18.4Z"/><polygon class="cls-7" points="440.43 128.74 425.06 139.78 345.73 36.72 367.7 20.08 440.43 128.74"/><line class="cls-3" x1="413.61" y1="123.95" x2="429.61" y2="112.46"/><line class="cls-3" x1="371" y1="66.5" x2="388.77" y2="53.73"/><polygon class="cls-7" points="392.36 36.27 352.81 64.68 342.04 49.69 381.59 21.28 392.36 36.27"/><path class="cls-6" d="M345.73,36.72s-40.48-22.84-33.49-89.93c5.69,10.06,8.79,17.49,15.9,22.49,8.43,5.93,12,13.45,14.85,22.47,0,0-3.42-15.44,1.57-24.48C347.7-21.06,353.82-20,360.11-6a95.74,95.74,0,0,1,7.59,26.12Z"/><line class="cls-2" x1="-76.59" y1="37.26" x2="42.69" y2="37.26"/><line class="cls-2" x1="-44.27" y1="22.27" x2="10.37" y2="22.27"/><path class="cls-4" d="M72-18.4H5.37c0,13.24,14.92,24,33.32,24S72-5.15,72-18.4Z"/><path class="cls-4" d="M121.74,30.89s-8.72,15-16.8,26.77c-9.94,14.44-10,36.76-19,43.2-17.52,12.49-52,20.74-33.69,31.67,20.36,7.23,9,6,43.12,6s47.39-25,71.28-44.91S212.15,75,216.87,66.72s7.64-23-8.31-37.62c0,0,19.53-5.43,19.53-15l-11.67,1.78c0-5.65,14.29-8.62,14.29-14.87L222-.79s12.79-4.76,14.19-13.28l-9-1.52s10.33-5.58,12.8-13.16V-46.81S232.66-28,198.45-25.17C172.4-23,166-4.36,172.62,8.51l-11.25.19s13,18.32-1.1,25.23S121.74,30.89,121.74,30.89Z"/></pattern></defs><title>leadership-maribyrnong-art</title><g id="Layer_8" data-name="Layer 8"><polygon class="cls-9" points="1919.5 1078.5 -354 1216 -144 -3 1919.5 5.5 1919.5 1078.5"/></g></svg>