<svg class="loader-anim" id="Layer_1" xmlns="http://www.w3.org/2000/svg" viewBox="0 0 1080 1080">
  <style>
    .st0,.st3,.st4,.st5{fill:none;stroke:#000}.st0{stroke-width:11.97;stroke-miterlimit:10}.st3,.st4,.st5{stroke-linecap:round}.st3{stroke-miterlimit:10;stroke-width:11.91}.st4,.st5{stroke-width:7.15}.st4{stroke-miterlimit:10}.st5{stroke-linejoin:round}
    
    
    svg {
  height: 80vh;
  width: auto;
}

.loader-anim path {
  stroke: #002e62 !important;
  stroke-width: 9;
  fill: none;
}

.loader-anim {
  stroke-dasharray: 1200;
  stroke-dashoffset: 2650;
  animation: draw 2s linear infinite;
      animation-timing-function: cubic-bezier(0.72, 0.68, 0.15, 0.86)
}

#banner {
  animation: banner 2s linear infinite;
      animation-timing-function: cubic-bezier(0.72, 0.68, 0.15, 0.86);
  transform-origin: center;
}


#logo-text {
  animation: banner 2s linear infinite;
      animation-timing-function: cubic-bezier(0.72, 0.68, 0.15, 0.86);
  transform-origin: center;
}

@keyframes banner {
  0% {
    stroke-dashoffset: 2650;
    transform: scale(0.5);
    opacity: 0;
  }
  
  60% {
    stroke-dashoffset: 0;
    transform: scale(1);
    opacity: 1;
  }
  
  100% {
    stroke-dashoffset: 2650;
    transform: scale(0.5);
    opacity: 0;
  }
}

@keyframes draw {
  0% {
    stroke-dashoffset: 2650;
    transform: scale(0.5);
  }
  
  60% {
    stroke-dashoffset: 0;
    transform: scale(1);
  }
  
  100% {
    stroke-dashoffset: 2650;
    transform: scale(0.5);
  }
}
  </style>
  <path class="st0" d="M538.6 984.5V770.1" id="tri-red"/>
  <path class="st0" d="M864.5 434.1v21.6L861 459 547.8 764.8l-8.2 8-8.2-8-312.3-308.2-3.3-3.2-.1-4.6-.1-3-.2-11.8h11.9l625.5.1z" id="tri-blue"/>
  <g id="banner">
    <path d="M872.6 750.9c26.5 9 52.8 17.3 79.3 26.9l-9.1 6.7a34.1 34.1 0 0 0-13.1 20.2 245.9 245.9 0 0 1-15.6 44.1 322.2 322.2 0 0 1-40.5 65.5 325.2 325.2 0 0 1-33.5 36.9 401.8 401.8 0 0 1-207 103.3c-11.5 2-23.1 3.8-34.7 5.4-5.7.8-11.5.9-17.3 1.3-9.7.7-19.3 1.8-29 1.9-5.6.1-11.3.4-16.9.4-4.8.1-9.6-.3-14.4-1l-1.8-.1h-5.2c-11.9 0-23.7-1.3-35.5-2.6a484.8 484.8 0 0 1-54.9-9.6c-26.8-6.2-53-15-78.2-26.3a390.7 390.7 0 0 1-56.3-31.1c-13.7-9.1-27-18.7-39-30-10.1-9.5-20.4-18.8-29.7-29a324.5 324.5 0 0 1-44.7-62c-8.2-14.6-15.1-30-20.5-45.9-1.6-4.6-2.9-9.2-4-13.9a43 43 0 0 0-20.8-29.1l-1.8-1.3-.4-1 78.8-26.2 4.7 16.4a259.6 259.6 0 0 0 37.6 74.6 367.7 367.7 0 0 0 41.6 47.6 293.2 293.2 0 0 0 51 39c8.3 5 16.7 10 25.4 14.3 9.8 4.9 20 9.2 30.2 13.3a296.6 296.6 0 0 0 45.9 14.1c11 2.5 22.2 4.4 33.4 6.3 11.4 2 22.9 2.6 34.4 3.6 8 .7 15.9.9 23.9.9l17.6-.2c8.7-.1 17.4-1 26.1-1.9 9.8-1 19.6-1.9 29.3-3.6 11.5-2 23-4.4 34.3-7.3a337.5 337.5 0 0 0 128.6-65.1 520.6 520.6 0 0 0 30.5-28.9 294 294 0 0 0 57.3-85 195 195 0 0 0 12.3-36.4l1.7-5.2m-7.7-15.2l-3.7 11.6-.6 1.7c-.5 1.5-1 3-1.3 4.6a181 181 0 0 1-11.5 34.2 281.8 281.8 0 0 1-54.9 81.5 498.2 498.2 0 0 1-29.7 28.2 332.2 332.2 0 0 1-157.3 69.8c-8.4 1.5-16.9 2.3-25.8 3.2l-2.6.3-1.9.2c-8 .8-15.6 1.6-23.1 1.7h-3.1l-14.3.1c-9 0-16.3-.3-22.8-.8l-7.4-.6c-9-.7-17.6-1.4-26-2.9l-1.3-.2c-10.4-1.8-21.2-3.6-31.5-5.9-15-3.3-29.7-7.9-44-13.5a362 362 0 0 1-29.3-13 352 352 0 0 1-24.4-13.7 287.4 287.4 0 0 1-69.9-59.3c-6.5-7.5-13-15.6-19.3-24.1a239.1 239.1 0 0 1-35.7-70.7l-4.7-16.4-3.4-12-11.8 3.9-53 17.6-25.8 8.6-11.8 3.9 4.5 11.6c.7 2.4 2.1 4.5 4.1 6l.1.1.1.1 3 2.1a30.7 30.7 0 0 1 15.1 21.5c1.2 5.1 2.6 10.2 4.3 15.1a289.8 289.8 0 0 0 21.3 48 340.8 340.8 0 0 0 46.3 64.3c7.8 8.5 16.3 16.4 24.4 24l5.9 5.5a303 303 0 0 0 40.5 31.3c18.4 12.3 37.8 23 58 32.1a447 447 0 0 0 80.4 27 508 508 0 0 0 56.2 9.8c11.8 1.4 24.3 2.7 36.9 2.7H519.3a98 98 0 0 0 16.2 1.1l9.8-.2 7.2-.2c7.2-.1 14.3-.7 21.1-1.3l8.5-.7 4.8-.3c4.3-.2 8.7-.5 13.2-1.1 10.3-1.4 21.5-3.2 35-5.5a429.5 429.5 0 0 0 139.1-50.9 413.4 413.4 0 0 0 74-55.5 323.4 323.4 0 0 0 34.7-38.3 332.5 332.5 0 0 0 42-68 245 245 0 0 0 16.4-46.3 22.2 22.2 0 0 1 8.7-13.4l5.2-3.8 3.9-2.9 17.8-13.2-20.9-7.5c-18.2-6.6-36.6-12.7-54.4-18.6l-25.1-8.4-11.6-4.2z"/>
    <path d="M393.5 979.4c-1.6.9-2.5 1.7-3 1.5-3-.9-4.1.9-5 3.1l-4.1 10.4-5.6 14c-1.1 2.6-1.5 5 1.1 7 .5.4.3 1.6.5 3a1223 1223 0 0 1-18.8-7.5c1.5-.8 2.3-1.8 3-1.6 2.6.5 3.8-.7 4.7-2.8 3.4-8.7 6.8-17.4 10.4-25.9 1.5-3.5-1-5-3.2-7.2.8-.5 1.3-1.2 1.7-1.1 5.9 1.8 11.6 4.2 18.3 7.1zM491.1 1013c-.7 6.2-3.4 9.3-9.7 10.7-2.6.6-5.4 1.4-8.3-1.3 6.4-3 9.4-7.6 7.6-14.3-1-4-2.2-4.8-7.7-6.1-1.9 5.6-2.1 11.5-2.8 17.3l-2.3 16.8 5.3 3.9c-3.9 2.3-7-.1-10.2-.1s-6.4-.9-9.7-1.4l.4-1.5c4.1-1 5.1-3.9 5.4-7.8.6-7 2-14 2.9-21.1.8-5.2.6-5.7-3.8-10.3 1.1-.3 2.2-.4 3.4-.5l17.7 2.4c1.5.3 2.9.8 4.2 1.5 5.4 2.3 8.1 6.8 7.6 11.8zM439.4 993.3c-.9.9-1.3 1.8-1.7 1.8-3.5 0-4.9 2-5.8 5l-8.6 28.9c-.9 2.9-.9 2.9-4.9 2.8l-15.9-38.6c-2.8 8-5.1 16.2-7 24.5-.5 1.7.3 3.5 1.9 4.2l2.8 2.3c-3.3 2.2-5.6-.4-8-.8-2.7-.5-5.4-1-8.1-2.8.6-.7 1.1-1.6 1.5-1.6 3.7.1 5.2-2.2 6.1-5.3l8-27-5-4.7c1.2-.4 2.2-1.1 2.9-.9 3.8 1 7.5 2.1 11.3 3.3 3.2 10.7 8.2 20.6 12.9 31.1a58.2 58.2 0 0 0 5.6-21.8l-4.8-3.4c1.6-.5 2.6-1.2 3.4-1 4.4 1.2 8.6 2.5 13.4 4zM528.7 1037.1c-.6 2.7-1.5 5.3-2.5 8.5l-11.2-.9c-3.9-.2-7.8 0-11.8-.4-3.5-.3-7.4.9-11.3-2.2l6.2-2.3c.4-3.2.9-6.5 1.1-9.8.5-6.5.4-13.1 1.2-19.5.5-3.9-1.8-5.6-5.3-7.7 1.5-.6 2.3-1.1 3-1.1l28.9 1.4v9.9c-1-.2-2.5-.2-2.6-.7-1.5-5.9-6.1-6.4-11-6.2l-2.9.1c-1.5 2.2-.8 4.7-1 7s0 4.5 0 7.3h7.8c2.5-.2 1.2-5.1 5.3-3.9-1.1 4.4.2 8.9-1.5 13.7-1-.7-2.2-1.1-2.2-1.6-.4-3.4-2.6-4.2-5.5-4.2h-4.1c-1.2 4.3-.7 8.6-.7 12.8 0 2.3 1.4 3.4 3.5 3.6l5.6.4c2.7.2 5.2-1.1 6.7-3.3.8-1.2 1.8-2.3 3.1-4 .6 1.3 1.4 2.3 1.2 3.1zM561.6 1024.4l3.2-2.8c4.3-3.5 3.9-9 2-12.8a10.3 10.3 0 0 0-9-5.8c-7-.3-14.1.1-21.2.4-.9 0-1.7 1-3.1 1.8 3 1.3 5.3 2.1 5.3 5.5 0 8.4.5 16.8 1 25.2.2 3.6-.6 6.2-4.4 7.3-.2 0-.3.6-.6 1.4.3.1.8.6 1.2.6l16.2-.3c.5 0 1-1.2 1.9-2.4-4.9-.3-5.5-3.1-5.5-6.6v-8.8c2.5-1.3 3.8-.1 4.9 2l5.5 9.8c1.5 2.7 4.1 4.5 7.1 5.1 3.2.7 6.7 1.6 10-.9-9.6-6.5-9.2-9.1-14.5-18.7zm-4.7-4c-2.1 3.2-5.1 3-8.7 2.3v-16.1c3.5-1 6.3-.2 8.3 2.6 1.9 2.7 2.1 8.6.4 11.2zM314.6 946.3a23 23 0 0 0-6.2-11.7c-5.8-6.2-13-10.7-20-15.3-.4-.3-1.3.1-2 .1 1.2 5.2 1.2 5.2-2.1 9.7L270.2 948c-.9 1.2-1.6 2.5-2.4 3.7l-.9-.9c-1.7.5-3.3-2.5-5.4.5l17.4 13.4a27 27 0 0 0 11.2 5c13.4 3.2 27-9.8 24.5-23.4zm-10.2 5.3c-3.1 6-7.6 10.7-14.4 12.3-4.6 1.1-8.4-.9-11.6-4-1.8-1.8-1.8-4.2 0-6.7 1.5-2.3 3.3-4.5 5-6.7l10.7-14.3 2.1-2.3c9.7 4.5 12.8 12.9 8.2 21.7zM232.1 875.4c-4.1 3-8.6 3.5-13.1.7-2.7-1.7-5.6-3.6-6-8.2 3.9 1.2 7.6 2.7 11 .5 2-1.3 3.9-2.9 5.4-4.8 2-2.6 1.6-4.6-.9-8.5a162.3 162.3 0 0 0-29.2 18.9l.6 5.7a72.3 72.3 0 0 1-11.3-15.2c-.2-.5.2-1.3.4-2.1.8.2 1.6.2 1.8.6 1.9 2.3 3.9 1.7 5.9.4l14.5-9.5a677 677 0 0 0 10.7-7.3l-.5-6c1.4 1 2.4 1.3 2.8 1.9 3.5 5.1 7 10.1 10.2 15.3 1 1.8 1.7 3.7 2 5.7a11 11 0 0 1-4.3 11.9zM352.4 961.8c-.9 5.7-2 7.5-5 8.4-.6-2.6-.4-5.9-1.9-7.8-2-2.5-5.3-3.8-8.5-6l-7.5 12.9 6.8 3.9c3.2-.2 4-3.4 7-1.6l-3.4 6.2-3.6 6.4c-.8-1.5-1.9-2.6-1.6-3.1 1.2-2.8-.1-4.2-2.3-5.4l-4.9-2.5c-2.1 3.8-4.2 7.3-5.9 10.9-.5 1.4-.3 2.9.5 4.1a12 12 0 0 0 14.1 3.2c1.3-.6 2.5-1.9 4.1 0-1 3.5-3.8 5.6-7 7.8l-29.9-17c1.8-.6 2.7-1.2 3.5-1.1 4.6.6 4.6.7 7-3.4l11.6-20.4c1.7-2.9 3.2-5.5.1-8.4-.2-.2 0-.7 0-1 0-.2.2-.3.3-.5 3.1.5 18.8 9.1 26.5 14.4zM283.9 915.6c-.3.2-.7.7-.8.6-3.3-1.7-5.8-.8-8.2 2-5.5 6.3-11.4 12.3-17.1 18.4l-2.3 3 1.4 4.7c0 .3-.7.7-1.4 1.3-4.4-4.6-9.2-8.7-13-13.8 5.7.7 5.8.8 9.6-3.2l16.5-17.5 2.3-2.9c.8-2.5-3-4-.2-6a55 55 0 0 1 13.2 13.4zM590.7 1003.8l1.5 14.1c7.3.9 8.9.1 11.7-6.1 2.5 2 2.1 4.7 2.3 7l.5 7.1c-3.6.2-3-4.7-6.4-4.2-2.3.4-4.7.4-7.6.6l2.3 15.7 6.1 1.4c-3.3 3-6.8 2.7-10.1 2.8-3.5.1-6.8 2.1-10.5.6 0-2.7 2.8-2.1 4.1-4 1.2-4.8-.9-9.9-1.1-15-.4-4.6-1-9.3-1.8-13.8-.7-4.9-.7-4.9-5.1-7.2.8-.6 1.4-1.6 2-1.6l27.2-2.9c.3 0 .6.3 1 .4 1.8 7.9 1.8 7.9-.7 9.5-4.4-6.3-5.5-6.7-15.4-4.4zM258.4 889.2a84 84 0 0 0-15.5-17.8c-.6.9-1.4 1.8-1.3 2 2.1 3.3-.1 5.2-2.3 7.1L221 896.2c-2.5 2.2-4.9 3.2-8 1.2-.1-.1-.6.3-.9.4.9 3.1 4.4 7.9 10 13.5.4.4 1.2.5 2.5.9l-1-5.9 9.8-8.9c2.8 1.3 3.2 2.9 2.2 5.2a67.7 67.7 0 0 0-3.6 8.8 25 25 0 0 0-.9 7.7c.2 4.4 3.6 8.3 8.2 9.7a16 16 0 0 1 .4-12c1.6-3.7 2.3-7.8 5-10.8 2 .2 3.6.6 5.2.6 5.2.1 9.7-3.7 10.5-8.9.4-3-.3-6-2-8.5zm-5.3 3a10.2 10.2 0 0 1-8.3 7.4c-3.7.7-5.9-1.3-7.7-5l12.3-10.6c3.2 2.1 4.8 4.7 3.7 8.2zM831.6 933c-1 2-2.7 1.5-4.4 1.2a2566.8 2566.8 0 0 0-38-6.3l5 5.7 10.7 11.5c2.3 2.5 4.6 3.9 7.8 1.4.4-.3 1.5.2 3.2.5l-12.6 11.8c-.2-1.9-.6-3-.3-3.6 1-1.9 1.1-3.5-.2-5.2a329.5 329.5 0 0 0-21-23.3l-5.4 2.2c-.3-2.8-.3-2.8 8.7-10.6l35.1 5.5a1360 1360 0 0 0-12.3-13.4c-2.4-2.5-5-4-8.4-1.8-.4.3-1.3-.2-2-.3 1.6-3.1 8.3-9.1 11.6-10.7.2.3.7.7.6.9-2 4-.1 7 2.5 9.9l17.2 19.2 1.2 1.2c.8 1 2 2.2 1 4.2zM889 858.6L870.2 888c-.5-2-1.1-2.9-.9-3.7.9-4.5 1-4.5-2.5-6.8l-24.6-15.7-6.4 2.8c2.4-6.1 5.8-10 8.4-14.3s5.4-8.5 8.3-13c3.1 1.3 6.4 2.3 9.3 5.7-1.8.3-3 .8-4 .6-3.5-.6-5.7 1.1-7.5 3.8l-3.7 5.9 12.4 7.8c1.5-2.4 3.3-4.3 3.7-6.5.4-1.8-1-3.9-1.7-5.9 3.3 0 7.9 2.7 12.3 7-.9.4-1.8 1.2-2.3 1-3.2-1.5-4.9.1-6.3 2.7l-2.5 4c3.5 2.1 6.7 4.3 10.2 6.2 2.8 1.5 3.8 1.2 5.8-1.2 3.4-4 5.8-8.4 2.4-13.7-.9-1.4-.7-2.4.9-3.2 3.5 1 4.9 4.3 7.5 7.1zM863.9 895a34 34 0 0 1-12.9 15.8 20.3 20.3 0 0 1-25-1.2 20.8 20.8 0 0 1-7.1-23.6c1.3-3.7 3.2-7.1 5.7-10.2 2.6-3.3 6-6 9.4-9.3 3 2.5 6.7 3.6 8.8 8.4l-3.8-.7c-9.7-2.7-16.4 7-14.7 15.1 1.8 8.4 12.3 16.8 20.8 17 10.5.3 15.9-9.7 12.6-16.9-.6-1.5-1-3.1-1.4-4.7 1.8.4 2.9.3 3.4.7 1.4 1.5 2.6 3.2 3.9 4.8s1 3.1.3 4.8zM798.6 959c-4 2.4-6.7-.5-9.5-2.5L763.8 938c-1.1-.7-2.2-1.2-3.4-1.7a11.7 11.7 0 0 0-1.6 10.7c2.4 7.8 4.4 15.8 6.4 23.7.6 2.2 1.4 4.4 1.3 6.5s-1.1 4.4-1.7 6.5c1.3 1.5 2.3.2 3.3-.5 7.6-5.2 7.6-5.2 8.4-8.3l-4.9.7-3-10.3 8.7-6 8.2 6.3c0 2.2-2.4 3.5-.2 5.4l15.3-10.7c-.9-.6-1.7-1.5-2-1.3zm-31.3 2.6l-3.2-10.6 1.2-.9 8.5 6.6-6.5 4.9zM637.8 991.4c-13.4 0-23.9 9.2-23.6 21.6.3 14.4 9.9 22.8 21.1 22.7 11.7 0 23.9-7.7 23.8-21.4-.2-12.9-8.9-23.7-21.3-22.9zm10.9 32.7a9.5 9.5 0 0 1-14.4 6.3c-1.6-.9-3-2.2-4.2-3.7a30.8 30.8 0 0 1-5.8-21.6c.2-1.1.4-2.2.9-3.2 2.7-7 10.1-9 15.8-4 4.8 4.1 6.7 9.7 7.7 15.7.3 1.6.3 3.3.5 5.2l-.5 5.3zM761.2 987.6l-15.7 8.5c-.1-2.9-.1-2.9 2.2-6L737 969.6l-1 .2.9 21.1.6 7.8c.3 1.4-.7 2.7-2 3h-.4l-23.9-19.8-.8.5 2 4.9 6.5 13.1c1.3 2.7 2.8 4.3 6.1 3 .5-.2 1.3.6 2.1 1-4.8 3.8-10.9 6.7-14.2 6.4.3-.7.4-1.5.8-1.8 1.9-1.6 1.8-3.7 1-5.7a1893 1893 0 0 0-11.2-25 4.3 4.3 0 0 0-4.5-2.7c-1 .1-2-.3-4-.6 4.3-3.9 8.9-5.2 12.7-7.3l23.8 19.3c1.2-5.6.3-10.5.2-15.4-.1-5-.6-10-1-15.6 3.8-2.4 7.8-4.4 12-5.9.3-.1.8.7 1.5 1.3l-1.8 1.9a3.7 3.7 0 0 0-1 5l13.5 25.2c1.4 2.7 3.8 2.3 6.2 1.8 0 1.2.3 2.2.1 2.3zM690.3 998.7l2.1-3a10.6 10.6 0 0 0-9-16.4c-1.9-.1-3.7.1-5.5.7-6.2 2-12.3 4.3-18.4 6.5-.5.2-.7.8-1.5 1.5.8.7 1.2 1.4 1.6 1.3 3-.3 4.3 1.4 5.1 4 1.6 5 3.5 9.8 5.2 14.8 1.1 3.1 2.3 6.3 3.3 9.5.8 2.4 1 4.7-1.6 6.5-.4.3-.2 1.5-.3 2.9l17.7-6.2c-.9-3.4-3.9-1.3-5.7-3.2-2-3.9-3.4-8-4.1-12.3 2.5-1.8 4-.7 5.6.9 2.3 2.5 4.7 4.8 7.2 7 5.7 4.7 12.3 4.4 19-1.4-9.9-.5-14.7-7.5-20.7-13.1zm-5.5-2.7c-.5 3-1.5 3.7-7.5 5.4l-5.3-15.3c3-2.7 5.7-2.6 8.5-.9 3.1 2 5 7 4.3 10.8zM109.3 788.6c9.5-.1 18.5 4.4 24.3 11.9 4 5.1 5.9 11.1 8 17.1a312.3 312.3 0 0 0 45.9 91.5c.8 1.2 1.5 2.5 2.1 3.8a153.9 153.9 0 0 1-66.9-24.2 112.9 112.9 0 0 1-37.6-42.1 78.2 78.2 0 0 1-7.6-22.1c-1.4-7.9.8-15.2 5.2-21.8a31 31 0 0 1 26.6-14.1m-.1-11.9A43 43 0 0 0 73 796a41 41 0 0 0-7.1 30.5 85.8 85.8 0 0 0 8.8 25.5c9.7 18.8 24 34.8 41.5 46.5a164.6 164.6 0 0 0 72 26.1l23.3 3.1-11.3-20.6-.6-1.2a25 25 0 0 0-2.3-3.9 294.6 294.6 0 0 1-24.4-39.8 376.5 376.5 0 0 1-19.8-48.5l-.6-1.6c-2.1-6-4.4-12.7-9.4-18.9a42 42 0 0 0-33.6-16.4l-.3-.1zM967.9 784.8c7.4 0 14.1 1.4 20.2 5.9 8 6 15 20.1 11.3 33a106 106 0 0 1-32 50.9 135.5 135.5 0 0 1-57.6 29.6c-4.7 1.2-9.4 2.2-14.1 3.2l-1.2.1-2.8-.1 11.9-18.3a293.1 293.1 0 0 0 31.4-65.9 226 226 0 0 0 4.5-16.1 30.9 30.9 0 0 1 28.3-22.3h.1m0-11.9h-.4c-9.3.2-18.3 3.5-25.5 9.5a40.7 40.7 0 0 0-14.3 22c-1.2 5.2-2.6 10.2-4.2 15.1a282.1 282.1 0 0 1-38 75.3l-4 6-12 18.4h24.8c1.2 0 2.5-.1 3.7-.4 4.5-.9 9.6-2 14.6-3.3a149.3 149.3 0 0 0 62.6-32.2c17.1-15 29.4-34.6 35.6-56.5a44.4 44.4 0 0 0-15.6-45.8 43.8 43.8 0 0 0-27.3-8.1z"/>
  </g>
  <g id="logo-text">
    <path d="M606.1 310.7c5.6-2.6 6.6-7.7 6.6-13.4l.2-86.8c0-4.4-1.1-8-5.9-9.1-.3-.5-.5-1.1-.6-1.6-.8-8.6-.3-9 8.1-8.3 2 .2 4 .2 6 .1s3.9-.5 6-.9c4.7 23.6 13.5 45.7 21.2 68.2.1-1.4.3-2.7.3-4.1l-.3-40.4c0-2.7-.6-5.4-.9-8.1 0-1.7-1.1-3.2-2.7-3.7-3.5-1.1-4-3.9-3.7-7 .3-1.6.6-3.3 1.1-4.9 3.8.3 7.2.9 10.6.9s6.8-.5 10.7-.8v10.3c-4.8 1.4-5.3 5.3-5.3 9.5l-.9 56.1c-.1 15.5.1 30.9.2 46.4 0 3.3-.8 6.1-3.9 7.8-2.4 1.3-4.1.6-5-2.1l-16.4-53.6-7.7-24.9a6.9 6.9 0 0 0-2.2-3.3v4.6l.2 47.5c0 4.4.6 8.7.8 13 .2 4.1 2.8 6 6.3 7.3v9.6l-3.9.3c-4.7 0-9.5-.1-14.2.1-1.8.3-3.6-.6-4.5-2.1-3.7 2.3-7.4 3.7-11.8 2.3-3.9-1.2-7-4.2-8.4-8a163 163 0 0 1-5.8-19.2c-1.8-7.6-3-15.3-4.4-23a4.7 4.7 0 0 0-1.8-2.9l-.3 2.7v27.3c.1 2.7.3 5.4.8 8.1.2 1 .7 2.4 1.5 2.7 5.1 2.1 4.1 6.2 3.6 10.2a8 8 0 0 1-.8 1.6h-24.7v-9.5c4.9-1.6 5.3-5.6 5.3-10v-88.4c0-3.3.1-6.2-3.8-8.1-2.7-1.3-1.7-4.9-1.5-7.6.2-2.3 2.1-2.9 3.9-3.1 7.4-.9 14.7-2.5 22.2-.8 5.1 1 9.4 4.3 11.7 8.9 3.3 6 4.6 12.6 5.2 19.3a76 76 0 0 1-1 22.3 32 32 0 0 1-5.2 12.5 6.3 6.3 0 0 0-1.3 5.6c3 13.4 5.8 26.9 9 40.3.9 4.2 2.7 8.3 7.4 10.2zm-31.4-106.8c-.5 1.2-.8 2.4-1 3.7v40.8c0 1.6-.1 3.3 2.4 4.4.9-1 2.2-2 2.8-3.3 1-2.1 1.7-4.4 2.1-6.7 1.6-9 1.5-18.1-.1-27.1-.8-4.2-1.3-8.9-6.2-11.8zM244.1 201.2c-.2-1-.4-1.7-.4-2.4-.5-7.2.1-7.7 7.1-7.2 4.3.3 8.7-.2 13.5-.3.4 12.4 2.8 24.8 5.2 37.3 2.3 12.3 4.2 24.6 7.3 36.8 4.6-24.6 10-49 12.4-74.2 3.5.3 6.7.7 9.9.7s6.1-.5 9.5-.8a46 46 0 0 1 1.5 5.3c.3 2.6-.2 5.1-3.2 6.2a5.2 5.2 0 0 0-3.3 4.6c-.2 2.3-.7 4.7-.7 7a3496 3496 0 0 0 0 45.8c.1 13.4.5 26.9.8 40.3l.1 2.2c.1 3.3 1 6.1 5 6.7.9 3.4 1.1 6.6-.4 10H285c-2.2-2-1.9-4.8-1.5-7.5.2-1.2 1-2.3 2.1-2.8 3.4-1 3.7-3.6 3.8-6.5v-4.9-42.6l-.8-.2c-.7 3.2-1.6 6.3-2.1 9.5l-8.1 49.4c-.2 1.8-.6 3.6-1.1 5.3-.4 1.7-2 2.8-3.7 2.6-1.8-.2-3.2-1-3.5-2.8a380 380 0 0 1-1.9-11.3l-8-48.8c-.3-2-1-4-1.6-6.4l-.5 1.5-.1 46.9c0 3.6.2 7 4.5 8.2.8.3 1.5 1 1.7 1.9.2 2.8 1 5.8-1.2 8.8h-17.1a3 3 0 0 1-3.2-2.4v-7.6c4.8-1.5 5.5-5.1 5.6-9.1l1.4-58.3c.2-8.2.5-16.3.6-24.5 0-2.3-.5-4.7-.5-7 0-4.4-1.4-7.9-5.7-9.4zM391.5 319.4h-24.2c-1.8-2.6-1.2-5.4-1-8.1a4 4 0 0 1 2.2-2.7c2.5-1.3 3.2-3.3 3.2-5.8l.1-5.5v-82.9l-.1-4.4c0-2.8 0-5.2-3.4-6.6-2.8-1.1-2.1-4.3-1.9-6.8.2-1.9.9-3.5 3.1-3.9 7.7-1.1 15.4-2.8 23.2-1 5.4 1.2 9 4.3 11.6 9a44 44 0 0 1 5 17.7c.5 6 .5 12 0 18a37.1 37.1 0 0 1-6.2 18.4 7.2 7.2 0 0 0-1.1 6.2c3 13.3 5.9 26.5 9 39.7.8 3.5 2.8 6.7 5.6 9 3.6 3 2 8.5-2.5 9.8-5.3 1.6-9.8.3-13.1-3.9-2-2.3-3.5-5.1-4.4-8-2.4-9.1-4.5-18.3-6.5-27.5-1-4.6-1.7-9.2-3.5-13.9-.3.7-.6 1.4-.7 2.1l.6 34.9c0 1.9.2 3.9 2.2 4.6 3.7 1.3 3.5 4.3 3.3 7.2 0 1.5-.3 2.9-.5 4.4zm-4-66.7c3.5-.5 4.2-3.1 4.9-5.5a67 67 0 0 0-1-38c-.4-2.3-2-4.2-4.3-5.1-1.7 6.7-1.6 43.3.4 48.6zM749.2 190.7c1.8 12.4 5.8 23.8 9.5 35.3l11.2 34 1.2-.2-.8-32.9-.2-12.5c0-1.4 0-2.9-.2-4.4-.3-4-1-7.8-5.9-8.4a18 18 0 0 1-.2-10.3H785c.5 1.8.8 3.6 1 5.5.2 2.2-.4 4.4-2.8 5.4a4.9 4.9 0 0 0-2.8 4.4c-.3 2.7-.8 5.4-.8 8.1l-.7 82.3c0 5.4.5 10.9.5 16.3 0 5.1-2.3 7.5-7.9 8.2-3.3-9-5.5-18.5-8.5-27.7l-8.7-27.5-9.1-29.1-.7 4.3.1 55.1.1 3.3c.2 4.4 1.1 8.4 6.1 9.3 1.5 4.9 1.5 4.9-.1 10h-20.6c-1.5-2.5-.9-5.5-.7-8.3.1-.9.6-1.6 1.4-2.1 3.4-1.5 3.8-4.6 4.1-7.7l.1-1.1.7-85.6c0-2-.5-4-.6-5.9-.2-2.9-1.2-5-4.1-6.4s-3.6-7.5-1.4-10c.7-.7 1.8-1.1 2.8-1.1 5.6.9 11 1.2 16.8-.3zM488 249.2c7 6.3 9.2 14.6 9.9 23.1s.9 17.4-.9 26c-.8 4.6-2.5 9.1-5 13.1a17 17 0 0 1-13.6 8c-8.3.4-16.6.1-24.9.1-2-3.2-1-6.3-1-9.4.9-.7 1.7-1.3 2.7-1.8a5.2 5.2 0 0 0 2.8-4.9c.2-5.4.6-10.9.7-16.3v-62.7c0-6.1-.6-12.3-.9-18.4-5.8-4.3-6.3-5.6-3.8-12.5 4.8-2 10.1-1.9 15.3-2.3 3.8-.2 7.6.1 11.3.8 4.4.7 8.2 3.6 10 7.6 1.5 2.9 2.7 5.9 3.5 9.1 2.2 8.8 2.4 18.1.6 27-1 4.3-3 8.3-6.7 13.5zm-15.2 9.6v8.2c0 9.8 0 19.6.2 29.5.2 2.9.7 5.7 1.7 8.5.7 2.1 2.9 2.2 4.2.3.9-1.4 1.5-2.9 1.9-4.5a70.3 70.3 0 0 0-.1-35c-.7-2-1.7-4-2.9-5.8-.9-1.6-2.4-2.1-5-1.2zm1-54.8c-1.3 4.1-1.4 36.1-.3 41 2.8.4 4-1.6 4.6-3.6a52.7 52.7 0 0 0 .4-31.4c-.7-2.5-1.6-5.1-4.7-6zM723.2 255.5c.1 13.8-.9 27.6-4.7 40.9-1.7 6-4 11.7-7.7 16.7-3.1 4.1-6.8 7.6-12.2 8.5a17 17 0 0 1-16.5-6.1A51.3 51.3 0 0 1 672 294c-2.4-9.3-3.3-18.9-3.9-28.5-.4-8.7-.2-17.4.5-26.1a97.5 97.5 0 0 1 7.7-33.2c1.9-4.3 4.5-8.3 7.5-11.9 7.6-8.8 18.7-7.1 25.4 1.1a50 50 0 0 1 8.1 15.3c4.3 13.1 5.7 26.5 5.8 40.2l.1 4.6zm-15.4 1.7c-.4-7.1-.4-15.1-1.3-23.1-.9-7.4-2.3-14.6-4.2-21.8a28 28 0 0 0-4.2-8.7c-1.7-2.6-3.9-2.7-5.7-.1a30.7 30.7 0 0 0-4.3 8.7 114 114 0 0 0-4 27.9c-1 17.2.1 34.5 3.2 51.4.9 4.8 2.5 9.4 4.8 13.8 2.7 5.3 6.5 5.1 9-.2a49 49 0 0 0 3.6-10.8c2.5-12 2.4-24.2 3.1-37.1zM824.3 308.2a112 112 0 0 0 .1-32.2l-5.6-2.5c-1.5-4.6-1.4-5.5.2-10.1h24.8c.2 2.2.5 4.5.6 6.8 0 1.6-.2 3.2-2.1 4-2.1 1-2.4 3-2.4 5.1v22.9c0 1.9.8 3.9 1.3 5.8 1 3.9.3 5.5-3.2 7.5l-4.6 2.9c-11.5 6.7-23.4 4.1-31-6.9a67 67 0 0 1-9.5-25.3 166.6 166.6 0 0 1-2-42.9c.7-12 2.7-23.8 7.6-34.9a38 38 0 0 1 11-15.3c6.7-5.2 13.9-5.6 21.6-2.7 2.5 1 4.9 2.2 7.7 3.6v9.6l.8 17.9v3.8c-.2 2.5-1.1 3.6-3.1 3.7a3.6 3.6 0 0 1-4-3c-.7-2.6-.8-5.4-1.4-8-.8-3.7-2-7.3-3.5-10.8-3.5-7.1-9.1-7.5-12.9-.6a48.2 48.2 0 0 0-5.3 14.1c-1.4 7.1-1.9 14.4-2.6 21.6-.5 4.7-.7 9.4-.6 14.1.5 12.1.9 24.3 4 36.1a32 32 0 0 0 6.1 13.2c2 2.4 4.3 4 8 2.5zM363.3 319.3h-24c-.4-2.1-1-4-1-5.9s.3-4 2.7-4.9c2.1-.8 2.1-2.6 1.9-4.5l-3-24.8-.5-1.9h-8.9l-3.6 29.1c6 4.3 6.7 6.7 3.9 12.9h-18.3c-1.9-1.8-2.6-4.5-1.9-7 .3-1.5.7-3.2 2.7-3.7 2.7-.7 3.4-3.1 3.8-5.5l3.4-21.5 5.1-34.9 5.9-43.6c.1-1 .5-2.1.9-3l4.7-8.5c.8-1.4 1.1-3.2 3.3-2.9 2 .3 2.7 1.6 2.9 3.4l2 14.5a3226 3226 0 0 1 4.1 30.7l4.7 36.1c1.3 9.9 2.8 19.7 4.3 29.6.3 2 .8 3.8 2.8 5 3.9 2.5 4.7 4.8 3.4 9l-1.3 2.3zm-28-75.4a81.7 81.7 0 0 0-2.9 19l5.3-.4-2.4-18.6zM538.4 319.3h-25.7c-2.1-2.6-1.5-5.7-.9-8.6.2-.9 1.6-1.9 2.7-2.3 2.3-.9 2.9-2.6 3.2-4.6.2-1.8.3-3.6.2-5.4 0-4.4-.2-8.7 0-13.1.7-12.1-1.3-23.9-3.6-35.6l-7.3-38.4-.4-2.1c-.6-3.6-2-6.6-6.4-7.8 0-2.4-.2-4.7 0-7 .3-2.8 1.1-3.3 4-3.2 4.5.2 9 .5 13.6.6 2.1-.1 4.3-.3 6.4-.7 3.5 5.7 3 8.8-2.2 12.9-.2 6.1 1.8 12.2 2.6 18.4.9 6.1 2.1 12.2 3.6 18.2a354 354 0 0 0 7.4-36.6c-5.3-4.3-5.9-7.2-2.9-12.5H550c2.6 2.4 1.5 6 1.3 9.6-4.4 1.4-5.6 5.1-6.5 9.1l-11.6 53.1c-.3 1.4-.4 2.9-.3 4.3l-.1 33.8c0 3.6.4 6.5 4.6 7.5 1 .4 1.7 1.3 1.8 2.3.3 2.6 1 5.4-.8 8.1z"/>
    <path d="M420.7 191.4h24.6c2 2.1 1.6 5.1 1.1 7.9a5 5 0 0 1-2.6 3.1 4.6 4.6 0 0 0-2.8 4.3c-.2 2.3-.6 4.7-.6 7v83.5c0 2.3.2 4.7.6 7 .3 1.3 1 3.1 2 3.5 4.5 2 4 5.6 3.4 9.3a7 7 0 0 1-1.1 2.3h-24.6c-1.6-2.7-1.3-5.5-.8-8.1a4.7 4.7 0 0 1 2.3-2.7c2-1 3.2-3.1 3.1-5.3.1-3.3.6-6.5.6-9.8v-75.3c0-3.8-.3-7.6-.7-11.4a6.3 6.3 0 0 0-1.7-3.7c-1.3-1.2-3.4-1.5-3.6-3.7-.4-2.6-.8-5.3.8-7.9zM528.9 376.7c0-6.2.1-12.4-.1-18.6 0-1.1-1.5-2.1-2.2-3.2-.6-.9-1.4-2-1.4-2.9 0-.5 1.5-1.5 2.3-1.6h16.4c.8 0 2.2 1.1 2.2 1.7 0 1-1 1.9-1.5 2.8s-2 2-2 2.9l-.1 36.3c0 2.5 1 3.3 3.3 3.1s4.9.2 7.3 0c3.6-.3 5.7-2.9 7.7-5.5.5-.6 1.6-1.6 2-1.4.9.4 1.5 1.2 1.8 2.2.6 7.5-1.5 11.6-10.3 11.4-8.5-.2-17 0-25.5-.1-1.1 0-3.2-1-3.2-1.5.2-1.7.7-3.3 1.5-4.7.5-1.2 1.8-2.3 1.9-3.5.2-5.8.1-11.5.1-17.3l-.2-.1zM481.2 376.7c0-6.2.1-12.4-.1-18.6 0-1.1-1.5-2.1-2.2-3.2-.6-.9-1.4-2-1.4-2.9 0-.5 1.5-1.5 2.3-1.6h16.4c.8 0 2.2 1.1 2.2 1.7 0 1-1 1.9-1.5 2.8s-2 2-2 2.9l-.1 36.3c0 2.5 1 3.3 3.4 3.1s4.9.2 7.3 0c3.6-.3 5.7-2.9 7.7-5.5.5-.6 1.6-1.6 2-1.4.9.4 1.5 1.2 1.8 2.2.6 7.5-1.5 11.6-10.3 11.4-8.5-.2-17 0-25.5-.1-1.1 0-3.2-1-3.2-1.5.2-1.7.7-3.3 1.5-4.7.5-1.2 1.9-2.3 1.9-3.5.2-5.8.1-11.5.1-17.3l-.3-.1zM439 405.6c-14.6 0-24.4-7.7-27-21.5-2.3-12.3 3.4-26.4 17-31.1 11.3-3.9 22.1-3 31 5.8s9.8 19.6 5.7 30.9c-3.5 9.8-12.7 15.7-24.1 16l-2.6-.1zm15.4-25.2a35.1 35.1 0 0 0-5.2-18.3c-5.8-8.5-15.9-7.6-20.7 1.2l-1.5 3.6a34.6 34.6 0 0 0 3.7 28.3c5.8 8.1 16.5 7 20.4-2.3 1.7-3.9 2.2-8.3 3.3-12.5zM708.9 379.9h-9.7v14.4c0 2.6 1.5 4 4.1 4.2l6.6.1c3.1.2 6.1-1.4 7.7-4.2 1.1-1.8 2.4-3.5 3.6-5.3 4 3.2 4 5.3-.2 14.5l-4.2.3h-35c-2.3 0-4-.4-3.2-3.3 7.6-3 7.5-.9 7.5-10.6v-27.7c0-3.4-.3-6.1-4.4-6.8-.7-.1-1.9-1.9-1.7-2.3.6-1 1.7-2.1 2.7-2.2 3.3-.3 6.6-.1 9.9-.1H720v13.4c-1.4 1.2-3.2 1.2-3.8-.5-2.7-8.7-9.5-7.6-16.5-7.4-1.4 5.5-.4 10.9-.7 16.6h9.8c.4-1.5 1-2.9 1.7-4.2.6-.9 1.5-1.5 2.5-1.6a3 3 0 0 1 1.9 2.2c.2 4.8.1 9.7 0 14.5 0 .7-1 1.8-1.5 1.8-1 0-2-.4-2.7-1.2-.8-1-1.1-2.6-1.8-4.6zM600.1 379.9h-9.7v14.4c0 2.6 1.5 4 4.1 4.2l6.6.1c3.1.2 6.1-1.4 7.7-4.2 1.1-1.8 2.4-3.5 3.6-5.3 4 3.2 4 5.3-.2 14.5l-4.2.3h-35c-2.3 0-4-.4-3.2-3.3 7.6-3 7.5-.9 7.5-10.6v-27.7c0-3.4-.3-6.1-4.4-6.8-.7-.1-1.9-1.9-1.7-2.3.6-1 1.7-2.1 2.7-2.2 3.3-.3 6.6-.1 9.9-.1h27.4v13.4c-1.4 1.2-3.2 1.2-3.8-.5-2.7-8.7-9.5-7.6-16.5-7.4-1.4 5.5-.4 10.9-.7 16.6h9.8c.4-1.5 1-2.9 1.7-4.2.6-.9 1.5-1.5 2.5-1.6a3 3 0 0 1 1.9 2.2c.2 4.8.1 9.7 0 14.5 0 .7-1 1.8-1.5 1.8-1 0-2-.4-2.7-1.2-.8-1-1.1-2.6-1.8-4.6zM401.5 389l3.7 1.4-1.9 9.3a4.7 4.7 0 0 1-3.6 3.9 42 42 0 0 1-29.8-1.6 22.4 22.4 0 0 1-12.9-19.3c-.7-10 2.3-18.5 11.1-24.2 6.7-4.3 14.8-6 22.6-4.8l11.9 1.6c.2 3.8.5 7.1.4 10.4 0 1-.9 2-1.4 3l-2.9-1.6c-.3-.2-.4-.7-.5-1.1-3.1-8.7-16.1-10.6-23.2-2.1-6.8 8.1-6.3 24.1 1.1 31.8 7.2 7.4 17.2 6.4 22.8-2.2l2.6-4.5zM654.4 398.3c1.4-4.2 1.5-8.7.1-12.9l-5.2-1c-1.3-1.9-1.3-2.2.2-4.1h22.7l.5 2.7c0 .6-.2 1.3-1.9 1.6-2 .4-2.2 1.2-2.2 2v9.2c0 .8.8 1.5 1.2 2.3.9 1.6.3 2.2-2.9 3l-4.2 1.2a38 38 0 0 1-28.5-2.8 22 22 0 0 1-8.7-10.1 29.7 29.7 0 0 1-1.8-17.1 25 25 0 0 1 17.1-20.1 39.9 39.9 0 0 1 19.8-1.1l7.1 1.4v3.8a176 176 0 0 0 .8 8.7c-.2 1-1 1.4-2.8 1.5-2 .1-3.2-.4-3.6-1.2-.6-1-.7-2.2-1.3-3.2a15 15 0 0 0-3.2-4.3 9.4 9.4 0 0 0-11.9-.2c-2 1.5-3.7 3.4-4.9 5.7a44 44 0 0 0-3 14.2c.5 4.9.8 9.7 3.7 14.5a13 13 0 0 0 5.6 5.3c2.2 1.2 4.8 1.5 7.3 1z"/>
  </g>
  <g id="libra">
    <path class="st3" d="M467.1 665.2h142.1M505.6 647.3h65.1M538.2 516.3v110.8"/>
    <path class="st4" d="M458.4 487.3h163.9M527.4 499.6h22.4"/>
    <path class="st5" d="M473.4 489.5l-39.7 109h79.4zM513.1 598.9h-79.4c0 15.8 17.8 28.6 39.7 28.6s39.7-12.9 39.7-28.6zM604.5 489.5l-39.7 109h79.4zM644.2 598.9h-79.4c0 15.8 17.8 28.6 39.7 28.6s39.7-12.9 39.7-28.6z"/>
    <path d="M528.9 474.1l7.4-18.4c.5-1.3 2-1.9 3.3-1.4.6.3 1.1.8 1.4 1.4l7.4 18.4c.5 1.4-.1 2.9-1.5 3.4a3 3 0 0 1-1 .2h-14.5a2.6 2.6 0 0 1-2.6-2.7c-.1-.2 0-.5.1-.9z"/>
  </g>
  <path class="st5" d="M675.1 740.6s-11.6 20-22.4 35.7c-13.3 19.3-13.3 49.1-25.4 57.7-23.4 16.7-69.4 27.7-45 42.3 27.2 9.7 12 8 57.6 8s63.3-33.4 95.2-60 60.8-24.9 67.1-35.9 10.2-30.8-11.1-50.2c0 0 26.1-7.3 26.1-20l-15.6 2.4c0-7.5 19.1-11.5 19.1-19.8l-11.5-2.3s17.1-6.3 19-17.7l-12-2s13.8-7.5 17.1-17.6v-24.1s-9.8 25.1-55.5 28.9c-34.8 2.9-43.3 27.8-34.5 45l-15 .2s17.4 24.5-1.5 33.7-51.7-4.3-51.7-4.3z" id="shoe"/>
  <g id="torch">
    <path class="st5" d="M478.5 902.7l-26.2 18.8L345 782.1l35.7-25.6zM363.2 730.3l-37.4 26.8-8.7-11.3 37.4-28.4zM442.5 908.8l27.2-19.6M432.8 894.5l27.3-19.6M360.2 796.6l30.3-21.8"/>
    <path class="st5" d="M396.6 745l-15.9 11.5-35.7 25.6-15.8 11.4-18.4-25.6 15-10.8 37.4-26.8 15-10.8zM317.1 745.8s-69-38.9-57.1-153.3c9.7 17.2 15 29.8 27.1 38.3 14.4 10.1 20.5 22.9 25.3 38.3 0 0-5.8-26.3 2.7-41.7 5.4 19.9 15.8 21.7 26.5 45.5a160.1 160.1 0 0 1 12.9 44.5l-37.4 28.4z"/>
  </g>
  <path class="st0" d="M911 83.7v672.8L865.7 740V135.6c-70 8.1-132.8 7.3-186.7-2.6-56.6-10.4-103.5-30.7-139.6-60.5-35.3 29-81.3 49-136.9 59.6-54.3 10.3-117.2 11.5-187 3.5v612l-45.3 12V83.7l25.9 3.7c150.1 21.4 266.4-.4 327.4-61.5l16-16 16 16c62.3 62.3 176.3 83.5 329.8 61.5l25.7-3.7z"/>
</svg>