<svg xmlns="http://www.w3.org/2000/svg" viewBox="0 0 920.43 906.43"><defs><style>.cls-1,.cls-7{fill:#fff;}.cls-2,.cls-3,.cls-4,.cls-5,.cls-6{fill:none;}.cls-2,.cls-3,.cls-4,.cls-5,.cls-6,.cls-7{stroke:#fff;}.cls-2,.cls-3,.cls-4,.cls-5,.cls-7{stroke-miterlimit:10;}.cls-2,.cls-4{stroke-width:5.71px;}.cls-3{stroke-width:5.74px;}.cls-4,.cls-5,.cls-6{stroke-linecap:round;}.cls-5,.cls-6{stroke-width:3.43px;}.cls-6{stroke-linejoin:round;}.cls-7{stroke-width:0.48px;}</style></defs><title>marby-logofooter-bg</title><g id="Layer_2" data-name="Layer 2"><g id="Layer_8" data-name="Layer 8"><path class="cls-1" d="M201.32,135.39c1,0,2.06.74,3.55,2.23L254.23,187c13.53,13.53,170.94,171,174,173.95,1.94,1.88,1.89,3.15,0,5C413.6,380.64,389,405.4,374.44,420.13c-14.39,14.53-29.09,28.77-43,43.72-9.58,10.26-21,16.95-34,21.54a153.25,153.25,0,0,1-51.49,9.07c-22.17,0-44.09-5-65.79-14.44-17.48-7.62-33-18.31-47.27-31-23.49-20.91-42.11-45.32-53-75-14.3-38.77-14.23-77.47,2.54-115.65a64.81,64.81,0,0,1,14-20.18c30.1-29.74,70-69.66,100-99.52.47-.46.93-.93,1.42-1.36,1.51-1.31,2.53-2,3.53-2M297.9,288.51c-5.65,0-11.32-.35-17-.87-9.14-.84-18.27-2-27.43-2-3,0-6,.12-9,.43-12.38,1.24-22.59,6.41-29.28,17.38a2.54,2.54,0,0,1-1.89,1.45c-10.9,1.71-21.17,5.55-31.42,9.42-7.22,2.73-14.52,5-22.31,5.39a104.31,104.31,0,0,0-18.94,2.49,73,73,0,0,1-16.88,2.11,59.86,59.86,0,0,1-6.26-.32,32,32,0,0,0-3.34-.17,34.77,34.77,0,0,0-8.12,1A20,20,0,0,0,91.91,352c2.14,5.33,5.75,9.61,9.79,13.57,1,1,1.94,2,3,3,13.54,12,29.37,19.85,46.35,25.73a64.24,64.24,0,0,0,21.15,3.7,61.86,61.86,0,0,0,19.67-3.27c4-1.33,8-2.58,12-4.06a33.44,33.44,0,0,1,11.87-2.13,38.91,38.91,0,0,1,4.73.3,74.58,74.58,0,0,1,14.71,3.65,56,56,0,0,0,15.14,2.91l.92,0a14.89,14.89,0,0,0,11.19-4.85c4.44-4.63,7.89-10,11.5-15.23.77-1.11,1.45-1.63,2.44-1.63a4.41,4.41,0,0,1,1.2.19c8.68,2.47,17.61,3.65,26.51,5a27.86,27.86,0,0,0,4.16.33,21.14,21.14,0,0,0,3.69-.31c3.1-.55,6.09-1.54,8-4.16a3.6,3.6,0,0,1,3.23-1.58c4.21-.15,8.32-.94,11.24-4.25a5,5,0,0,1,4-1.87c4.27-.16,8.5-1.21,10.84-4.93a6.86,6.86,0,0,1,6-3.49,9.74,9.74,0,0,0,1.37-.3c5-1.11,9.22-3.23,10.82-8.6.36-1.22,1.39-1.11,2.25-1.31A27,27,0,0,0,380,344a8.5,8.5,0,0,0,.76-13.22,9.71,9.71,0,0,0-7-2.61q-.65,0-1.32.06c-3,.25-6,.44-9.07.44l-1.88,0c-17.7-.49-34.65-5-51.59-9.52-.59-.16-1.51-.14-1.3-1.09s.36-1.84,1.5-2.17a29.1,29.1,0,0,0,4-1.42c2.66-1.22,5.58-2.49,6.47-5.46.94-3.15,3-4.53,5.74-5.75a12.85,12.85,0,0,0,6.34-5.76,7.49,7.49,0,0,0-.62-8.24,8.6,8.6,0,0,0-7.14-3.85,10.46,10.46,0,0,0-2.55.33,99.47,99.47,0,0,1-24.4,2.77M201.32,129.68h0c-3,0-5.26,1.62-7.27,3.38-.59.51-1.09,1-1.54,1.47l-.16.16-27.9,27.81c-23.75,23.68-50.66,50.52-72.08,71.69a70.93,70.93,0,0,0-15.21,21.94C60.22,294.64,59.32,335,74.47,376.06c10.58,28.69,28.44,54,54.6,77.24,15.86,14.11,31.81,24.57,48.78,32,22.72,9.9,45.62,14.92,68.07,14.92a159.68,159.68,0,0,0,53.4-9.4c14.83-5.25,26.69-12.79,36.25-23,9.77-10.47,20.13-20.8,30.14-30.79,4.2-4.19,8.54-8.52,12.79-12.81,15.6-15.75,39.75-40.08,53.79-54.14a9.47,9.47,0,0,0,3.11-6.64,9.35,9.35,0,0,0-3.17-6.54c-1.06-1-24.37-24.29-168.66-168.58l-5.31-5.31-13.08-13.08-36.28-36.28c-1.36-1.36-3.9-3.9-7.59-3.9ZM297.9,294.22a104.81,104.81,0,0,0,25.79-2.94,4.8,4.8,0,0,1,1.16-.16,2.91,2.91,0,0,1,2.52,1.5,1.83,1.83,0,0,1,.17,2.26A7.3,7.3,0,0,1,324,298c-3.28,1.46-7.25,3.84-8.89,9.34-.28.49-2.17,1.35-3.18,1.81l-.18.08a23.29,23.29,0,0,1-3.19,1.13c-2.89.84-4.73,3-5.46,6.32l0,.1a6.44,6.44,0,0,0,.86,5,6.83,6.83,0,0,0,4.58,2.89h0c16,4.3,34,9.17,52.84,9.69l2,0c3.55,0,7-.25,9.55-.46.29,0,.58,0,.84,0a4,4,0,0,1,3.07,1,3,3,0,0,1,1,2.33,2.9,2.9,0,0,1-1.27,2.18,21.27,21.27,0,0,1-8.1,3.39l-.14,0a7.25,7.25,0,0,0-6.3,5.22c-.63,2.11-2,3.63-6.59,4.66l-.66.16-.11,0a12.49,12.49,0,0,0-10.24,6.12c-.36.57-1.3,2.07-6.22,2.26a10.68,10.68,0,0,0-8.09,3.8c-1.34,1.52-3.41,2.19-7.15,2.32a9.25,9.25,0,0,0-7.6,3.87c-.7.94-2,1.52-4.46,1.95a15.55,15.55,0,0,1-2.7.23,22,22,0,0,1-3.3-.27l-3-.45c-7.93-1.18-15.42-2.29-22.76-4.38a10,10,0,0,0-2.76-.41c-2.86,0-5.27,1.38-7.14,4.1l-1.58,2.31a93.87,93.87,0,0,1-9.35,12.22,9.14,9.14,0,0,1-7.07,3.09l-.64,0A50.5,50.5,0,0,1,237,387a80.29,80.29,0,0,0-15.84-3.91,44.84,44.84,0,0,0-5.43-.34,39.34,39.34,0,0,0-13.87,2.49c-2.76,1-5.54,1.94-8.48,2.9l-3.29,1.08a56.49,56.49,0,0,1-17.87,3,58.89,58.89,0,0,1-19.28-3.38c-18.68-6.47-32.8-14.29-44.43-24.61-.55-.49-1.13-1.09-1.74-1.72l-1-1,0,0,0,0c-4.35-4.26-7-7.84-8.49-11.62a14.3,14.3,0,0,1,10.12-19.51,29.1,29.1,0,0,1,6.79-.82,26.35,26.35,0,0,1,2.75.14,65.94,65.94,0,0,0,6.85.36,78.26,78.26,0,0,0,18.2-2.26,98.65,98.65,0,0,1,17.91-2.34c8.94-.44,17.17-3.16,24-5.76,9.73-3.68,19.8-7.48,30.29-9.12a8.2,8.2,0,0,0,5.89-4.12c5.31-8.72,13.48-13.52,25-14.67a84.74,84.74,0,0,1,8.48-.4c6.92,0,13.75.68,21,1.4l5.92.57c6.67.61,12.23.9,17.51.9Z"/><path class="cls-1" d="M298.87,5.71c.83,0,1.53,1.06,3.28,3a297.23,297.23,0,0,0,29.49,28.51c29,24.77,60.6,45,97.65,55.54a150.92,150.92,0,0,0,31.5,5.7c2.47.16,3.24,1,3.45,3.5,1.82,22.44,8.45,43.53,18.18,63.72,9.31,19.33,21.1,37.07,34.47,53.81a380.09,380.09,0,0,0,34.08,37c2.1,2,4.28,3.94,6.5,5.8,1.65,1.37,1.94,2.6.14,4.05a25.86,25.86,0,0,0-2,2L446,378,336.3,487.65c-.6.6-1.24,1.16-1.79,1.8s-1,1-1.49,1-1-.42-1.4-1.32q-2.75-5.69-5.61-11.33a2.34,2.34,0,0,1,.63-3.22c.71-.6,1.33-1.32,2-2l202.8-202.8c3.59-3.59,3.58-3.58-.12-7-26.1-23.85-48-51-63.8-82.74-9.91-19.89-16.59-40.77-18.49-63-.16-1.92-.83-3.12-3-3.26-33.13-2.11-62.07-15.48-89.18-33.53a307.37,307.37,0,0,1-53.42-45.44c-2.36-2.5-3.52-3.75-4.71-3.75s-2.37,1.2-4.77,3.6L91.12,237.48c-1.88,1.88-2.7,2.7-3.8,2.7-.86,0-1.89-.52-3.74-1.44-3.26-1.64-6.48-3.37-9.8-4.89-2.06-.94-2-1.91-.52-3.28.62-.58,1.19-1.2,1.79-1.79L295.16,8.67c2-2,2.92-3,3.71-3m0-5.71h0c-3.12,0-5,1.84-7.49,4.38l-.25.25L71,224.74l-.66.68c-.35.36-.68.7-1,1-2.82,2.63-3.07,5.23-2.8,6.94s1.35,4.11,4.84,5.71c2.2,1,4.35,2.11,6.62,3.28l3,1.52c2.37,1.19,4.08,2.05,6.3,2.05,3.46,0,5.49-2,7.84-4.38l152.1-152.1L298,38.73l.65-.65.53.56.11.11A314.57,314.57,0,0,0,353.65,85c31.68,21.08,60.29,32,89.85,34.32,2,21.16,8.24,41.88,18.91,63.28,15.25,30.59,36.3,58,64.35,83.75l-142.5,142.5L324.6,468.54l-.71.73c-.35.36-.68.71-.93.92a8,8,0,0,0-2,10.16c1.94,3.84,3.81,7.62,5.56,11.24,2,4.11,5.24,4.55,6.54,4.55a7.58,7.58,0,0,0,5.82-3c.2-.23.5-.52.83-.83l.67-.65L450,382l73.11-73.11,36.55-36.55.74-.77a10.57,10.57,0,0,1,.8-.8,8.07,8.07,0,0,0,3.37-6.31,8.36,8.36,0,0,0-3.42-6.58c-2.28-1.9-4.31-3.72-6.21-5.54A372.24,372.24,0,0,1,521.35,216c-14.21-17.79-25.27-35-33.79-52.72-10.22-21.22-16-41.4-17.63-61.7-.55-6.78-5.07-8.49-8.76-8.74a144.2,144.2,0,0,1-30.31-5.49c-32.67-9.34-63-26.63-95.51-54.39a291.65,291.65,0,0,1-28.93-28l-.89-1C304,2.18,302.16,0,298.87,0Z"/><path class="cls-2" d="M339.85,516.44c-5.44-12.13-11.79-23.8-17.5-35.8-.68-1.42-1.5-1.07-2.47-.5-1.94,1.13-3.83,2.36-5.82,3.38-26.7,13.68-55.17,17.72-84.69,14.75-40.46-4.07-74.48-22.07-103.93-49.42A207.41,207.41,0,0,1,95.7,414.48c-19.37-28.12-30.3-59.07-30.81-93.35C64.5,294.9,69.48,269.85,83.17,247c1.17-2,.47-2.65-1.28-3.52C71,238.11,60.13,232.59,49.23,227.15c-.67-.34-1.34-1-2.4-.58.08.56.12,1.11.24,1.63a20.67,20.67,0,0,1-2.57,16.2,124.18,124.18,0,0,0-13.92,33.95c-10.55,42-5.79,82.65,11.64,122,13.29,30,32.84,55.45,56.75,77.76a242.89,242.89,0,0,0,41.26,31.42C180,533.17,222.65,543.4,268.8,537c19.3-2.67,37.68-8.27,54.41-18.59a17.47,17.47,0,0,1,10-2.33c2.13.08,4.25.54,6.53.85C339.81,516.61,339.87,516.51,339.85,516.44Z"/><path class="cls-1" d="M417.35,205.9c-5.5,5.5-10.8,10.74-16,16.06-2.37,2.4-4.59,4.94-6.87,7.44-1.11,1.22-1.91,2.49-1.19,4.3.87,2.19-1.21,2.91-2.34,3.95-1.3,1.19-2.08-.31-2.63-1.1-1.76-2.55-5.27-3.65-5.92-7.12,0-.13-.5-.14-.75-.25-4.63-2-5.94-4.89-4.18-9.62,1.88-5.05,5.16-9.31,8.14-13.74,1.33-2,2.69-3.93,4-5.9l-.58-.54c-1.35,1.35-2.71,2.68-4,4q-4.42,4.53-8.8,9.09c-.72.75-1.47,1.53-1,2.72.8,1.94-.55,2.95-1.72,4-1,.94-1.85.9-2.84-.19-1.9-2.07-4-4-5.91-6-.69-.73-2.25-1.26-1.21-2.66.91-1.23,1.82-3,3.68-2.49,2,.57,3.2-.44,4.41-1.65l32.84-32.84c1.08-1.08,1.95-2.09,1.34-3.93-.53-1.59,1-2.46,2.09-3.34s2.16-.29,3,.42c2,1.59,4,3.16,5.77,4.92,4.08,4,4.88,7.64,2.19,12.69-4.31,8.09-10.24,14.54-19.57,16.9a3.55,3.55,0,0,0-2.13,1.69c-3.81,5.68-7.8,11.24-11,17.31a33,33,0,0,0-1.39,3.06c-.51,1.27-.6,3.25.19,3.63a4.31,4.31,0,0,0,4.72-.2,102.47,102.47,0,0,0,9.67-9c8.08-8,16-16.06,24-24.11,1.54-1.55,2.86-3,2-5.64-.58-1.77,1.39-2.69,2.65-3.52s1.84.35,2.51,1.14,1.39,2.19,2.39,2.73c3.28,1.79,2.61,3.38.83,6.19-5.68,8.93-10,18.61-14.75,28.08-.06.11.07.31.2.85,6.28-6.54,12.92-12.43,18.48-19.38a2.33,2.33,0,0,0,.4-2.62c-.72-1.48,0-2.46,1-3.46,1.42-1.45,2.64-2,4,.12a18.69,18.69,0,0,0,4.06,4.25c.72.57,2.21,1,1.52,2.27s-1.84,3.26-3.68,2.93c-2.11-.39-3.4.46-4.74,1.69-13,11.82-25.1,24.5-37.45,36.95a7.49,7.49,0,0,1-2,1.56,3,3,0,0,1-3.65-.46c-1-1,0-1.91.49-2.76q9.48-18,19-36A3.17,3.17,0,0,0,417.35,205.9Zm-14-20.86h0c-2.38,2.38-4.78,4.74-7.13,7.16-.6.61-1.78,1.18-1.11,2.27s1.88.64,2.76.15a34.79,34.79,0,0,0,14.41-14.84,4.54,4.54,0,0,0,.38-1.34c.09-.55.21-1.25-.33-1.55s-1,.23-1.42.62Z"/><path class="cls-1" d="M26.16,217.32A16,16,0,0,1,32,218.45c8.7,3.42,12.47,13.2,8.39,21.91-4.16,8.9-8.57,17.68-11.65,27a170,170,0,0,0-6,24,5.45,5.45,0,0,1-.88,2.85C5.26,273.75.51,246.41,12.09,225.87a16.17,16.17,0,0,1,14.06-8.55m0-5.71h0a21.78,21.78,0,0,0-19,11.45C.88,234.13-1.32,247.22.76,260.93a77.31,77.31,0,0,0,16.68,36.91l4.55,5.6,4.41-5.71a9.79,9.79,0,0,0,1.95-5.06c0-.1,0-.2,0-.3a165.12,165.12,0,0,1,5.78-23.17c2.49-7.57,5.86-14.7,9.44-22.25q1-2.08,2-4.16a22,22,0,0,0,.66-17.66,21.26,21.26,0,0,0-12.13-12,21.62,21.62,0,0,0-7.95-1.52Z"/><path class="cls-1" d="M332.64,520.81c5.48,0,11,3.17,14.27,8.71,3.71,6.21,1.13,16.09-5.42,20.06A50.08,50.08,0,0,1,315,556.94a63.67,63.67,0,0,1-13.94-1.62c-10-2.25-19-6.86-27.33-12.7a3.41,3.41,0,0,1-.63-.85c.9-.89,2-.79,3-1,17.45-3.27,34-8.83,49.35-18a13.87,13.87,0,0,1,7.17-2m0-5.71h0a19.69,19.69,0,0,0-10.11,2.8c-13.72,8.22-29.25,13.87-47.46,17.28l-.3,0a9.09,9.09,0,0,0-5.62,2.48l-3.49,3.43,2.79,3.88h0a7.21,7.21,0,0,0,2.06,2.29c9.95,6.94,19.55,11.39,29.35,13.59A69.68,69.68,0,0,0,315,562.65a56,56,0,0,0,29.41-8.19c9.22-5.58,12.73-18.86,7.37-27.87-4.23-7.09-11.57-11.49-19.18-11.49Z"/><path class="cls-1" d="M288.84,91.09c-4.11,2.88-8.23,5.73-12.32,8.63-4.35,3.09-8.67,6.24-13,9.34-1.12.8-2.29,2-3.69.59s-.23-2.63.6-3.71c5.86-7.67,11.36-15.6,16.88-23.51a9.09,9.09,0,0,0,1.56-3.22Q269.91,88.14,261,97.09c-.79.8-1.55,1.73-.93,3,1.19,2.43-.74,3.48-2.18,4.48-1.62,1.13-2.2-.75-3.07-1.55-1.25-1.14-2.42-2.35-3.62-3.54-.7-.7-1.86-1.26-1.18-2.52s1.75-3.08,3.27-2.66c2.69.74,4-.84,5.57-2.29q11.82-11.24,23.58-22.55A119.13,119.13,0,0,0,292,59.92a4.32,4.32,0,0,0,1.24-4.08c-.5-2.08,1.26-3,2.64-3.83s2,.53,2.64,1.36a16.81,16.81,0,0,0,4.22,4.09c1.41.83,1.06,1.52.13,2.59-7.93,9-14,19.44-21,29.17-.14.19-.1.52-.21,1.23,6.69-4.65,13.13-9,19.48-13.57,3.58-2.55,7-5.28,10.5-8,1.06-.84,1.88-1.26,2.68.18,1,1.78,2.6,2.93,4.1,4.2.82.69,2.11,1.2,1.31,2.66s-1.83,3.14-3.55,2.58c-2.37-.77-3.83.25-5.24,1.65q-9.7,9.61-19.3,19.3-6.24,6.29-12.33,12.72c-1.46,1.55-3.4,2.82-2.43,5.73.44,1.33-1.33,2.53-2.71,3.23s-1.82-.54-2.51-1.22c-1.81-1.77-3.57-3.59-5.39-5.35-.9-.87-2-1.68-1-3,.87-1.15,1.77-2.79,3.55-2.06s2.66-.09,3.68-1.11l16.71-16.71Z"/><path class="cls-1" d="M320.65,130.9c-4.61,4.48-9.23,9-13.47,13.81a2,2,0,0,0-.4,2.1c.89,2.28-1,3.17-2.22,4.34a1.29,1.29,0,0,1-2-.17q-3.55-3.61-7.15-7.16c-.61-.6-1-1.26-.32-1.94,1-1.11,1.8-3,3.71-2.45s3-.33,4.18-1.48l33-33c1.06-1.06,2-2,1.36-3.9-.54-1.56,1-2.49,2.07-3.34s2.17-.3,3.06.43c2,1.67,4.09,3.3,6,5.12,3.64,3.54,4.58,7.33,2.35,11.74-4.22,8.37-10.17,15-19.66,17.58a4.32,4.32,0,0,0-2.6,2c-3.41,5.26-6.87,10.49-10.14,15.84-1.34,2.19-2.56,4.46-2.23,7.35.25,2.2-2.38,3.51-4.42,2.52-2.95-1.43-4.13-4.42-3.08-8.16,1.3-4.59,4.19-8.34,6.74-12.25,1.88-2.88,3.88-5.68,5.83-8.52ZM344,108.38c-.21,0-.44,0-.55.06-5.83,5-11,10.68-16.39,16.11-.37.37-.77.89-.35,1.49a1.32,1.32,0,0,0,1.48.55,8.17,8.17,0,0,0,2.08-.78,37.41,37.41,0,0,0,13.18-13.48C344.08,111.17,344.81,109.84,344,108.38Z"/><path class="cls-1" d="M463.71,267.66c6.27-5.53,11.95-11.5,17.56-17.54,1.3-1.4,2.14-2.81,1.43-5-.6-1.88,1.34-2.87,2.72-3.75s1.76.6,2.36,1.28a33.3,33.3,0,0,0,4.11,4.21c.77.62,2.29,1,1.43,2.53s-1.85,3.07-3.56,2.68c-2.39-.55-3.79.68-5.19,2-11.65,11-23.08,22.25-34.14,33.85a37.92,37.92,0,0,1-4,3.9,3.3,3.3,0,0,1-4.2.18c-1.57-1.24-.05-2.34.5-3.39q9.34-17.76,18.73-35.5c.24-.46.4-1,.71-1.72-.49.19-.77.22-.92.37-7,7-14,14.06-21,21.16-1.6,1.64-3.24,3.23-2.07,6.14.55,1.38-1.19,2.54-2.49,3.38-1.51,1-1.95-.49-2.67-1.17-1.43-1.35-2.82-2.75-4.15-4.19-.68-.73-2.27-1.2-1.27-2.64.88-1.27,1.79-3,3.65-2.55a4.44,4.44,0,0,0,4.3-1.43c11.37-10.62,22.35-21.65,33.13-32.87,1.35-1.41,2.29-2.75,1.53-5-.65-1.88,1.22-2.75,2.51-3.58s2,.34,2.73,1.19c1.15,1.35,2.12,2.93,3.71,3.8,1.9,1,1.45,2,.43,3.48C473.16,247,468.83,257.52,463.71,267.66Z"/><path class="cls-1" d="M331,179.31c-1.06-1.06-2.16-2.08-3.16-3.19-.68-.76-2.3-1.32-1.35-2.64s1.8-3.18,3.88-2.59c1.76.5,2.85-.25,4-1.33q17-16.33,33.37-33.38c.92-1,1.66-1.84,1.16-3.44s.88-2.68,2.11-3.57,2.16-.25,3.05.45a57.89,57.89,0,0,1,6.59,5.68c3.28,3.48,4.16,7.06,1.86,11.28-3.8,7-8.7,12.9-17.12,14.53-.79.15-1.13.42-1.11,1.24.11,4-1.75,7.27-4.09,10.22a45.13,45.13,0,0,1-11.46,10.67c-6.44,4-11,3.3-16.19-2.28-.51-.55-1-1.13-1.48-1.69Zm16.32-12c-2.09,2.34-5.26,4.76-7.4,8.13-.55.87-1.39,1.84-.56,2.78s2,.22,2.85-.22a34.4,34.4,0,0,0,10.23-8.65c1.75-2.07,3.48-4.2,4.15-6.93.25-1,.43-2.17-.72-2.74s-1.45.59-2,1.12C351.84,162.76,349.87,164.77,347.33,167.31ZM367.69,147c-2.12,2.12-4.24,4.22-6.34,6.35-.37.37-.95.75-.64,1.4a1.43,1.43,0,0,0,1.7.65,8.6,8.6,0,0,0,3.55-1.57,33.22,33.22,0,0,0,8.23-8.33,9.67,9.67,0,0,0,1.73-3.79c.11-.63.27-1.39-.48-1.72s-1,.31-1.4.68C371.92,142.72,369.81,144.84,367.69,147Z"/><path class="cls-1" d="M447.94,249.55c-5.56,5.33-11.28,10.44-18.25,13.91a22.22,22.22,0,0,1-8.82,2.65c-6.63.32-10.68-4-9.84-10.58.68-5.26,3.21-9.76,6.22-14,7.21-10.11,15.92-18.64,26.74-24.88a28.69,28.69,0,0,1,9.4-3.61c7.77-1.35,12.41,3.35,11,11.1-1.06,5.68-4.08,10.43-7.38,15A93.87,93.87,0,0,1,447.94,249.55Zm-6.33-5.15c2.44-2.72,5.33-5.67,7.92-8.87,2.94-3.63,5.88-7.31,7.52-11.78.48-1.3,1.26-2.85.17-4s-2.86-.52-4.22.06a32.2,32.2,0,0,0-4.21,2.21,59,59,0,0,0-8.65,6.71c-7.91,7.1-15.21,14.75-20.5,24.06-1.1,1.94-2.92,4.47-.82,6.4,1.92,1.76,4.25-.14,6.16-1.19C431.19,254.55,436,249.4,441.61,244.4Z"/><path class="cls-1" d="M479,279c-4.93,5.21-9.44,10-12.79,15.67a16.56,16.56,0,0,0-2.74,7.58,3.09,3.09,0,0,0,1.22,3c1.23.78,1.86-.4,2.59-1a89.76,89.76,0,0,0,9-8.9,2.32,2.32,0,0,0,.5-3c-1.31-2.33.49-3.43,2-4.52,1.66-1.23,2.28.52,3.12,1.34,1.74,1.7,3.42,3.47,5.1,5.23.7.74,2.31,1.06,1.58,2.54s-1.78,3.06-3.47,2.83c-2-.27-3,.63-4.1,1.82-3.16,3.54-7.3,6.21-9.48,10.64a2.43,2.43,0,0,1-2.58,1.38c-9.23-1.62-15.15-6.53-11.85-17.27,2.17-7,6.56-12.79,11.48-18.12,6.52-7,13.47-13.56,22.35-17.62a25,25,0,0,1,8.61-2.41c6.14-.44,12.54,4.8,12.91,10.54,0,.65-.44,1-.8,1.37-3.12,3.36-6.25,6.73-9.4,10.06-.88.93-1.81,2.25-3.27,1s-.48-2.33.34-3.42a27,27,0,0,0,4.41-7.79c1.24-3.86-.67-5.92-4.63-4.92-5.33,1.34-9.49,4.78-13.62,8.15C483,275.09,480.79,277.29,479,279Z"/><path class="cls-1" d="M289.06,137.36c-.92-.93-1.87-1.84-2.77-2.79-.72-.76-2.09-1.3-1.19-2.72s1.76-2.89,3.66-2.45a2.41,2.41,0,0,0,2.82-1.14c2.38-3.13,4.75-6.27,7.32-9.25,1.39-1.61.42-2.38-.58-3.47s-1.9-1.37-3.25-.22c-2.92,2.49-6,4.78-9,7.13-.84.65-1.72,1.21-1.19,2.5.92,2.27-.82,3.29-2.23,4.27-1.62,1.12-2.23-.66-3.11-1.47-1.18-1.07-2.24-2.27-3.43-3.32-1-.87-1.76-1.69-.94-3.08s1.9-2.59,3.56-2c1.84.63,3.07-.18,4.36-1.13q16.9-12.56,33.79-25.14c2.47-1.85,4.7-4.1,7.35-5.6a17.88,17.88,0,0,1,7.32-2.3c1.9-.13,1.56,1.68.66,2.88-2.42,3.21-4.91,6.37-7.35,9.58q-13.59,17.89-27.16,35.79a3.82,3.82,0,0,0-.89,3.86c.64,1.88-.82,2.87-2.14,3.79-1.48,1-2.15-.26-3-1.09Zm21.23-33.22-.34-.31c-2.07,1.55-4.13,3.12-6.2,4.66-.81.61-1.11,1.22-.23,2,.62.56,1.18.89,1.84,0C307,108.38,308.65,106.26,310.29,104.14Z"/><path class="cls-1" d="M382.65,173q7.3-4.94,14.6-9.89a1.78,1.78,0,0,0,.95-2.11c-.6-2.25,1.07-3.28,2.63-4.07,1.73-.88,2.07,1.09,3,1.88s1.7,1.73,2.6,2.54,2.36,1.38,1.37,2.86c-.89,1.33-1.75,3.1-3.89,2.51a3.84,3.84,0,0,0-3.19.52c-14.05,8.31-28,16.74-38.78,29.38-1.18,1.39-2.35,2.46-1.33,4.64.88,1.89-1.23,2.7-2.31,3.69s-1.81-.15-2.52-.86l-6.56-6.57c-.7-.7-1.86-1.33-1-2.53s1.89-3.08,3.39-2.48c2.86,1.14,4.14-.73,5.77-2.17,8-7.08,14.38-15.5,20.14-24.43,2.33-3.62,4.83-7.13,7.24-10.7,1.28-1.9,2.85-3.56,2-6.35-.43-1.47,1.35-2.53,2.64-3.27s2,.47,2.67,1.32a39.42,39.42,0,0,0,4.91,5c.82.72,2.46,1.11,1.61,2.77s-1.8,3.08-3.8,2.72a2.5,2.5,0,0,0-2.77,1.35q-4.87,6.87-9.73,13.75Z"/><path class="cls-1" d="M318.65,166.92c-.8-.8-1.65-1.54-2.37-2.4s-2.71-1.41-1.62-3.05c.93-1.4,2-3.19,4.23-2.38a2.69,2.69,0,0,0,3-.94c5.21-5.12,10.47-10.2,15.63-15.37,6.29-6.3,12.5-12.67,18.76-19a3.42,3.42,0,0,0,1.15-3.73c-.6-2.06,1.21-3,2.57-3.88s2.1.68,2.81,1.54a41.92,41.92,0,0,0,5.36,5.34c.79.66,2.26,1.18,1.41,2.61s-1.86,3.2-3.84,2.62a3.72,3.72,0,0,0-4,1.22q-5.67,5.46-11.25,11c-7,6.94-14,13.88-20.86,20.9-1.68,1.71-3.84,3.22-2.92,6.42.43,1.5-1.33,2.53-2.64,3.28s-1.79-.54-2.48-1.19c-1-1-2-2-3-3Z"/><path class="cls-1" d="M425.94,310.27c-4.05,1.58-8.1,3.17-12.16,4.72-.89.34-1.82,1.19-2.8.07s0-1.77.34-2.57c1.57-4.09,3.21-8.16,4.82-12.23l-.58-.46c-2.45,2.45-4.91,4.89-7.35,7.36-.79.8-.22,1.55.21,2.28.32.53.46,1-.16,1.44a1,1,0,0,1-1.26-.29c-1.48-1.43-2.94-2.89-4.39-4.36a1.1,1.1,0,0,1-.24-1.51c.34-.45.84-.32,1.26-.06a2.14,2.14,0,0,0,2.81-.33c3.39-3.1,6.8-6.17,10.2-9.26,1-.87,1.67-1.82.71-3.15a1,1,0,0,1,.1-1.5c.67-.5,1.19-.08,1.68.43,1.17,1.21,2.33,2.45,3.59,3.57.87.77.82,1.31.26,2.32-2,3.62-3,7.66-4.45,11.51-.17.46-.64,1.06-.08,1.53s1.09,0,1.58-.17c3.67-1.4,7.5-2.42,11-4.31,1.27-.69,2.11-.73,3.08.47a36.9,36.9,0,0,0,3.37,3.39c.45.43.76.91.44,1.46a1,1,0,0,1-1.46.3c-1.77-1.44-2.93-.3-4.07.9q-4.15,4.39-8.27,8.81c-.94,1-2.23,1.9-1,3.56.33.45.07.89-.38,1.16s-.92,0-1.25-.31q-2.81-2.76-5.58-5.56a1,1,0,0,1-.28-1.25A.85.85,0,0,1,417,318a1.52,1.52,0,0,0,2.25-.09q3.52-3.54,7.06-7.06Z"/><path class="cls-1" d="M372.9,276.5c-1.47-1.47-2.8-2.78-4.11-4.12-.41-.42-.7-1-.24-1.48a.92.92,0,0,1,1.28,0c1.45,1.11,2.36.2,3.33-.79,2.76-2.8,5.59-5.53,8.33-8.35,1.1-1.13,2.64-2,1.72-4.21-.5-1.22,1-1.12,1.63-.55,4.18,3.6,8.54,7.1,10.89,12.28,2,4.49.51,9.32-3.74,12.69a11.08,11.08,0,0,1-13.33,0A21.28,21.28,0,0,1,372.9,276.5Zm9.13-7.62,0,0-4.57,4.57c-1.82,1.81-1.47,3.44.38,5a6.4,6.4,0,0,0,6.85,1,12.4,12.4,0,0,0,6.08-5.2c2-3.29,1.52-6.92-1.13-9.81-1-1.12-2-1.27-3.08-.14C385.1,265.85,383.56,267.35,382,268.88Z"/><path class="cls-1" d="M271.09,174.73c-.66-.66-1.36-1.29-2-2s-1.58-1.07-1.1-2c.61-1.21,1.43-.11,2.15,0,1.33.28,2.08-.65,2.87-1.42q4.11-4,8.15-8.15c1.1-1.11,2.33-2.08,1.43-4.09-.53-1.18.64-1.53,1.43-.87,3.53,2.92,7.29,5.73,9.2,10.06s-1.28,8.39-6.07,8c-1.1-.09-1.79-.07-2.07,1.14-.74,3.21-2.76,6.27-1.13,9.76a.85.85,0,0,1-.32,1.21c-.48.28-.88-.05-1.28-.27a8,8,0,0,1-3.63-7.67c.36-1.82,1.06-3.58,1.58-5.37.26-.87.84-1.9-.21-2.55s-1.55.44-2,1c-1.26,1.59-4.19,2.51-2.4,5.48.11.18-.16.71-.39.92-.45.4-.9.05-1.22-.26-1-1-2-2-3-3Zm13.25-9.46c-.46.46-1,.9-1.38,1.4-.55.65-1.71,1.14-.88,2.29a3.09,3.09,0,0,0,2.84,1.48,5.17,5.17,0,0,0,4.32-4.8,2.92,2.92,0,0,0-1.44-2.84c-1.08-.49-1.57.72-2.26,1.28A16.79,16.79,0,0,0,284.33,165.27Z"/><path class="cls-1" d="M256.89,161.07c-5-5-5.21-11.57-.4-16.44a11.84,11.84,0,0,1,17.12-.07,11.46,11.46,0,0,1,.18,16.8C268.7,166.44,262.16,166.33,256.89,161.07Zm12-3.33c2.22-2.11,3.84-4.38,4.24-7.3a4.9,4.9,0,0,0-6.29-5.63c-4.1,1-9,6.49-9.47,10.62s2.9,6.85,6.81,5.46A11.49,11.49,0,0,0,268.85,157.74Z"/><path class="cls-1" d="M392.93,296.57c-1.72-1.72-3.46-3.43-5.16-5.18-.48-.49-1.32-1-.65-1.86s1.17-.19,1.7.19c1.24.92,2.21.5,3.19-.5,3.16-3.21,6.35-6.37,9.53-9.55.83-.83,1.53-1.68.67-2.93a1,1,0,0,1,.12-1.5,1,1,0,0,1,1.48.25q5.15,5.18,10.33,10.34a1,1,0,0,1,.05,1.69c-1.14,1.05-1.75,2.86-3.44,3.06-.92.11-.93-1-.56-1.74,1.46-2.87-.71-4.29-2.32-5.93-.68-.7-1.31-.5-1.92.14a27.37,27.37,0,0,0-2.17,2.2c-.58.76-2.31,1.27-1,2.63.92,1,1.68,2.78,3.63,1.51a1.08,1.08,0,0,1,1.69.31c.35.61-.15,1-.55,1.43q-1.79,1.79-3.58,3.58c-.42.42-.9.79-1.46.42a1,1,0,0,1-.23-1.51c1.41-2-.33-3-1.46-3.87-1.51-1.22-1.91.79-2.84,1.31a3,3,0,0,0-.8.79c-.88,1.1-2.83,2-1.67,3.68,1.28,1.85,2.66,4,5.56,3.5l1.1-.22c.71-.16,1.55-.58,2,.33s-.35,1.35-.93,1.82c-2.78,2.25-3.7,2.19-6.31-.42l-4-4Z"/><path class="cls-1" d="M247.24,135.24c-1.46,1.46-2.91,2.93-4.38,4.37-1,1-2.1,2-.81,3.55a.85.85,0,0,1-.15,1.25.91.91,0,0,1-1.26-.21q-3.11-3.06-6.16-6.17c-.32-.32-.61-.76-.27-1.25s.94-.45,1.46-.13c1.34.83,2.26.14,3.19-.8q4.65-4.7,9.35-9.35c.87-.86,1.5-1.71.66-2.93-.29-.42-.43-.93,0-1.28a1.1,1.1,0,0,1,1.52.14c3.3,2.78,6.7,5.49,8.69,9.44a6.28,6.28,0,0,1-2.73,8.68c-2.5,1.43-6.77.33-8.58-2.2-.26-.37-.68-.72-.34-1.22.5-.76,1.16-.27,1.77-.19a5.6,5.6,0,0,0,6.23-4.69,2.84,2.84,0,0,0-1.13-3c-1.09-.63-1.61.62-2.23,1.21C250.39,132,248.83,133.65,247.24,135.24Z"/><path class="cls-1" d="M342.89,247.08c-6.85-6.88-5.85-16,2.18-19.8,4.93-2.36,11.37-.6,15.36,4.22.48.58.91,1.19,1.37,1.78,2.46,3.15,2.29,4.35-.92,6.74-.5.37-.94.61-1.49.22a1,1,0,0,1-.25-1.26c1.42-3.44.32-6.06-2.74-7.87-2.65-1.58-6.43-.76-9.3,1.79a12.12,12.12,0,0,0-4,5.67c-.69,2.45-.58,4.81,1.21,6.85a6.26,6.26,0,0,0,6.63,1.91c.84-.19,1.86-1.05,2.45.19s-.73,1.5-1.37,2.08c-1.81,1.61-3.61,2-5.73.35C345.15,249,344,248.11,342.89,247.08Z"/><path class="cls-1" d="M330.21,233.85c-.73-.73-1.48-1.44-2.18-2.19-.49-.52-1.32-1-1-1.85.46-1.12,1.31,0,1.84-.18,1.91-.6,2.14-2.57,2.76-4.09.39-1-2.76-3.93-3.86-3.86-1.82.12-3.8,2.09-3.55,3.64.08.52.09.9-.35,1.2a.76.76,0,0,1-1-.12c-1.54-1.5-3.06-3-4.56-4.55a.81.81,0,0,1,0-1.23.86.86,0,0,1,1.24,0c1.28.93,2.48.39,3.69-.16,4.68-2.12,9.39-4.15,14-6.39a6.14,6.14,0,0,1,3.7-.51c2.2.25,2.12,1.15,1.3,2.78-2.5,5-4.9,10.07-7.35,15.1-.66,1.35-1.49,2.67-.34,4.17a.83.83,0,0,1-.12,1.23c-.57.52-1.06.15-1.46-.23-1-.9-1.86-1.84-2.79-2.77ZM335.56,218c-1.36-.07-2.15.71-3.07,1.1-.53.22-1.43.4-1.26,1.24a2.38,2.38,0,0,0,1.67,1.73c.85.27,1-.59,1.3-1.14C334.66,220,335.08,219.08,335.56,218Z"/><path class="cls-1" d="M362.73,266.38c-.73-.73-1.48-1.44-2.18-2.19-.49-.53-1.32-1-1-1.84.41-1.09,1.2-.28,1.88-.21s3-3.48,2.89-4.43-3.53-3.9-4-3.46c-1.24,1.15-4.64.29-3.56,3.71.3,1-.54,1.56-1.26,1a63.5,63.5,0,0,1-4.6-4.51.82.82,0,0,1,0-1.24c.41-.42.81-.3,1.23,0,1.29.92,2.51.33,3.71-.21q7.28-3.29,14.54-6.61c.41-.19.91-.7,1.19-.59,1.14.42,2.65-.11,3.43.87s-.24,2.08-.71,3.05c-2.28,4.71-4.58,9.41-6.83,14.13-.67,1.4-1.66,2.83-.33,4.42a.83.83,0,0,1-.15,1.24.87.87,0,0,1-1.25-.15c-1-1-2-2-3-3Zm5.56-15.89c-2.1.57-3.82.82-4.56,2.41-.24.53,1,1.78,1.59,1.69C367.31,254.27,367,252.15,368.29,250.49Z"/><path class="cls-1" d="M225.27,129.44c-3.6-3.67-3.76-6-.59-8.73.46-.4.86-1.13,1.63-.55s.54,1.08.3,1.76a7.07,7.07,0,0,0-.25,4.95c.56,1.54,1.62,2.59,3.35,2.43a3.12,3.12,0,0,0,2.85-3,11,11,0,0,0-.67-4.68c-1.3-4.63-.21-7.84,3.16-9.42,2.9-1.35,6.84,0,9.33,3.32s2.35,4.38-.29,6.58c-.43.35-.85.8-1.48.49s-.71-1.05-.47-1.69a5.36,5.36,0,0,0,.41-3.29c-.42-1.63-1.47-2.68-3.22-2.5a2.52,2.52,0,0,0-2.29,3,19.36,19.36,0,0,0,.84,3.82c1.37,4.76.5,8.17-2.6,10S228.64,132.88,225.27,129.44Z"/><path class="cls-1" d="M303.92,208.1c-3.67-3.71-3.82-5.59-.76-8.77.47-.49.87-1,1.64-.65s.68,1,.45,1.69a7.76,7.76,0,0,0-.4,4.68c.49,1.8,1.58,3,3.59,2.84s2.61-1.6,2.77-3.35a13,13,0,0,0-.84-4.66c-1.16-4.22,0-7.38,3.11-8.94,2.93-1.45,6.67-.33,9.2,2.77s2.65,4.91.05,7.06c-.45.38-.89.76-1.48.47s-.73-1-.49-1.67a6.07,6.07,0,0,0,.45-3c-.3-1.79-1.31-2.93-3.21-2.83s-2.48,1.57-2.36,3.17a19.15,19.15,0,0,0,.88,3.81c1.37,4.77.49,7.88-2.83,9.89C310.79,212.35,307.22,211.44,303.92,208.1Z"/><path class="cls-1" d="M441.24,327.45c2.85-.9,5.06-1.57,7.25-2.31.58-.19,1.33-.42.76-1.37a1,1,0,0,1,.49-1.6c.67-.28,1,.29,1.4.67,1.13,1.12,2.25,2.26,3.39,3.38.51.5.91,1,.41,1.69s-1,.26-1.51.11c-4.7-1.23-14.45,2.54-17.27,6.57a2,2,0,0,0,.17,2.78.89.89,0,0,1,0,1.26c-.56.58-1.07.18-1.45-.2-2.14-2.1-4.26-4.23-6.37-6.36-.34-.34-.58-.79-.26-1.25a.91.91,0,0,1,1.45-.16c1.44,1.12,2.34.16,3.38-.74,4.43-3.85,4.85-9.53,6.73-14.55a1.84,1.84,0,0,0,0-.28c.2-1-1.9-2.13-.27-2.87,1.44-.66,2.06,1.24,3,2.05,1.34,1.17,2.55,2.49,3.81,3.74.76.75.7,2.09-.19,1.84-2.79-.79-2.47,1.49-3.09,2.74S442,325.38,441.24,327.45Z"/><path class="cls-1" d="M300.57,188.31c-1.26,1.26-2.54,2.5-3.77,3.78s-3.13,2.47-1.23,4.64c.29.33.11.71-.15,1a.79.79,0,0,1-1.23,0q-3.5-3.45-7-7a.78.78,0,0,1,0-1.22.83.83,0,0,1,1.24,0c1.58,1.51,2.65.46,3.77-.68,3-3,6-6,8.93-9,.6-.61,1.82-1.16,1.21-2.25a3.69,3.69,0,0,0-3.33-2.23,7.64,7.64,0,0,0-1.91.4c-.74.22-1.49.53-1.84-.51-.29-.86.38-1.09.95-1.44,1.19-.75,2.23-1.92,3.51-2.28,1.92-.54,1.6,1.82,2.62,2.66,4,3.25,6.86,7.66,11.3,10.42.43.26.86.76.48,1.12-1.34,1.28-2.77,2.49-4.24,3.63-.42.33-.87-.13-1.14-.53-.48-.72.14-1.25.39-1.8.94-2-.1-3.3-1.55-4.3s-2.08.68-2.89,1.38C303.29,185.45,302,186.92,300.57,188.31Z"/><path class="cls-1" d="M253.49,289.18a224.92,224.92,0,0,1,23.33,1.63,204.8,204.8,0,0,0,21.26,1.27,110.82,110.82,0,0,0,21.33-1.92c1.56-.3,3.1-.78,4.68-.93q.34,0,.67,0a4.75,4.75,0,0,1,4.6,3c1,2.19.14,4-1.5,5.54a22.84,22.84,0,0,1-8.27,4.64c-1.06.39-1.69.68-1.51,2.1.31,2.35-1,4.11-2.88,5.4a25,25,0,0,1-7.5,3.06c-.66.18-1.83,0-1.83.94,0,3.3-2.22,5-5.08,6.62,9.36,2.42,18.18,4.89,27.1,7,11.92,2.77,23.93,4.91,36.14,4.91,2.9,0,5.8-.12,8.73-.38.3,0,.6,0,.9,0a7.22,7.22,0,0,1,3,.59c3.45,1.52,4.29,5.41,1.58,8-3.34,3.21-7.72,4.06-12.06,4.89-1.46.28-2.44.34-2.22,2.49.31,3-2,4.65-4.5,5.8-3.1,1.46-6.49,1.73-9.85,2.07h-.79c-.56,0-1.09.11-1.16,1-.34,4.72-3.95,5.65-7.58,6.52a13.37,13.37,0,0,1-2.52.25c-2.33.1-4.29-.08-5.77,2.85-1.34,2.67-5,3-8,3.19-.48,0-1,0-1.45,0-.83,0-1.66,0-2.48-.08h-.2a1.28,1.28,0,0,0-1.43,1.1c-.8,2.81-3.16,3.8-5.67,4.46a16.89,16.89,0,0,1-4.33.53,27.32,27.32,0,0,1-4-.33c-8.9-1.33-17.83-2.54-26.51-5a7.73,7.73,0,0,0-2.1-.34c-1.67,0-2.91.82-4.12,2.72a114.9,114.9,0,0,1-10.82,14.69,12.57,12.57,0,0,1-9.86,4.53q-.82,0-1.68-.08a74.39,74.39,0,0,1-15.85-3.67,57.3,57.3,0,0,0-16.81-3.1h-.72a37.42,37.42,0,0,0-13.59,2.51,157.26,157.26,0,0,1-15.77,5.09,55,55,0,0,1-14.3,1.93,54.34,54.34,0,0,1-15.93-2.43c-18.79-5.73-36.06-14.17-50.61-27.6A43.17,43.17,0,0,1,96,352.73c-5.69-11,.22-22.87,12.48-24.89a35.64,35.64,0,0,1,5.77-.53c.7,0,1.39,0,2.07.09q3.64.34,7.25.34a74.21,74.21,0,0,0,17.3-2,114.79,114.79,0,0,1,20.34-2.62c8.57-.47,16.46-3.45,24.35-6.46s15.66-6,23.85-7.38a14.53,14.53,0,0,0,10.75-6.83c5.41-7.8,13.79-11.67,23.22-12.71a91.64,91.64,0,0,1,10.06-.52m44.85,6.32c-5.27,0-10.55-.29-15.84-.72-10.27-.84-20.49-2.14-30.82-2.14h-.6c-8.48,0-16.35,1.83-23.27,7-2.57,1.91-2.42,6.88.42,8.46,3.55,2,6,4.68,6.67,8.84a7.9,7.9,0,0,0,5.51,6.52c2.41.85,4.81,2,7.31,2a7.37,7.37,0,0,0,3.47-.86A55.3,55.3,0,0,1,286,318.48a23.08,23.08,0,0,0,3.45.25,37.9,37.9,0,0,0,8.82-1.22,6.36,6.36,0,0,0,3.21-1.64c1.09-1.11.86-1.88-.64-2-.72-.07-1.44-.09-2.16-.09h-2.62a64.31,64.31,0,0,1-13.1-1.35,4.3,4.3,0,0,1,2.17-.54c.4,0,.77,0,1.13,0h.13c8.56-.21,17.07-.71,25.15-3.9,1.31-.52,3.35-1.14,2.85-2.94a1.27,1.27,0,0,0-1.35-1.06,19,19,0,0,0-2.32.44,90.8,90.8,0,0,1-11.88.8,86.17,86.17,0,0,1-9.39-.51,5.65,5.65,0,0,1,3.3-.77,125.62,125.62,0,0,0,22.7-3.89c3.16-.88,6.31-1.89,8.94-3.95.82-.64,2.21-1.33,1.63-2.64a1.49,1.49,0,0,0-1.49-1,8,8,0,0,0-1.76.33,104.41,104.41,0,0,1-24.45,2.64m-175,35.68q-3.74,0-7.51-.32-1-.08-1.93-.08a28.52,28.52,0,0,0-5.07.48c-9.49,1.72-14.1,10.72-10,19.43a26.06,26.06,0,0,0,6.61,8.3,124.62,124.62,0,0,0,35.86,21.82,116.85,116.85,0,0,0,23.06,7.2,43.61,43.61,0,0,0,7.77.69c7.6,0,15-1.89,22.26-4.62a73.54,73.54,0,0,1,12.87-4,45.87,45.87,0,0,1,8.16-.72c7.49,0,14.77,1.73,22,4.16a43.84,43.84,0,0,0,13.45,2.74c.87,0,1.79.08,2.69.08a5.91,5.91,0,0,0,4.54-1.53c4.76-4.91,8.28-10.75,12.16-16.46a4.79,4.79,0,0,0-1-.41c-.34,0-.69,0-1,0h-.66a32.1,32.1,0,0,0-14.3,3.57,17.34,17.34,0,0,1-8.09,2.12,17.86,17.86,0,0,1-10.45-3.66c-6.07-4.34-6.49-10.3-4.88-16.85a18.49,18.49,0,0,1,.55-1.89c3.3-9.11,7.79-17.43,16.16-23.68a62.61,62.61,0,0,1-7.16-1.84c-4.29-1.39-6.57-4.3-7.48-8.64-.85-4.08-2.69-6.1-6.39-6.1a12,12,0,0,0-1.27.07c-5.56.59-11.24.34-16.7,2-6.73,2-13.46,4-20,6.53-8.15,3.09-16.29,6.3-25.13,6.85A118.23,118.23,0,0,0,141.76,329a77.88,77.88,0,0,1-18.44,2.16m121.79,39.62a15.73,15.73,0,0,0,7.31-1.93,29.59,29.59,0,0,1,14-3.26h.09a53.68,53.68,0,0,1,13.63,1.81A216,216,0,0,0,305.57,372a19.51,19.51,0,0,0,2.69.2,11.65,11.65,0,0,0,4.25-.74c.81-.31,2.05-.42,2-1.65s-1.28-1.18-2.15-1.34a82.77,82.77,0,0,1-12.78-3.32c-.68-.24-1.7-.18-1.87-1.48.63.06,1.18.08,1.71.18a141.08,141.08,0,0,0,21.8,2.3l1.12,0a13,13,0,0,0,4.43-.66c1-.37,2.52-.58,2.4-1.94s-1.58-1.43-2.67-1.62a114.26,114.26,0,0,1-15.59-3.68c-1-.33-2.23-.37-3.1-1.86l5.76,1.09c7.1,1.31,14.2,2.61,21.45,2.61l1.43,0a12.77,12.77,0,0,0,5-.72c1-.44,2.48-.74,2.39-2s-1.63-1.29-2.7-1.45a117.57,117.57,0,0,1-18.07-4.18,5.9,5.9,0,0,1-3-1.51c1.43.21,2.34.32,3.25.48a115,115,0,0,0,19.82,1.82q2.41,0,4.83-.12c3.47-.18,7-.45,10.18-1.88,1.08-.48,2.45-1.24,2.17-2.61-.19-.94-1-1.09-1.81-1.09-.37,0-.74,0-1.06,0h-.78A102.39,102.39,0,0,1,333.74,344c-1-.22-2-.19-3-1.26.95,0,1.65,0,2.35.09,4.92.32,9.83.55,14.74.55a108.92,108.92,0,0,0,17.81-1.33,24.22,24.22,0,0,0,8.51-2.75c1-.58,2.42-1.23,1.95-2.72-.34-1.08-1.26-1.24-2.2-1.24l-.94,0c-3,.07-6,.33-9,.33h-.86c-15.1-.27-29.82-3.12-44.34-7-10.78-2.91-21.56-5.85-32.68-7.12a71.52,71.52,0,0,0-8.14-.48c-14.07,0-26.67,4.61-36.76,15.85-5.67,6.31-9.19,13.88-9.21,22.69a9.67,9.67,0,0,0,4.7,8.44,14.88,14.88,0,0,0,8.4,2.75m8.38-87.32a96.67,96.67,0,0,0-10.69.56c-11.9,1.31-21.34,6.55-27.29,15.13-2,2.9-3.52,3.86-7,4.46-8.72,1.49-16.91,4.62-24.84,7.64l-.09,0c-7.29,2.78-14.84,5.66-22.63,6.1a122.07,122.07,0,0,0-21.35,2.76,68.94,68.94,0,0,1-16,1.88c-2.21,0-4.47-.11-6.72-.32-.84-.08-1.71-.12-2.61-.12a41,41,0,0,0-6.7.61,22.33,22.33,0,0,0-16.63,33.14,48.17,48.17,0,0,0,10.64,13.39c13.9,12.83,31.18,22.27,52.82,28.87A60.34,60.34,0,0,0,172,400.28a61,61,0,0,0,15.78-2.12,161.67,161.67,0,0,0,16.34-5.28,31.54,31.54,0,0,1,11.53-2.13h.62a51.67,51.67,0,0,1,15.14,2.82,80.07,80.07,0,0,0,17.06,3.92c.76.07,1.51.11,2.23.11a18.26,18.26,0,0,0,14.13-6.44,121.12,121.12,0,0,0,11.33-15.35c8.22,2.34,16.61,3.59,24.72,4.79l2.39.36a32.86,32.86,0,0,0,4.89.4,22.41,22.41,0,0,0,5.79-.72c1.58-.42,5.77-1.52,8.27-5.29h0c.66,0,1.27,0,1.86-.06,3.4-.24,9.66-.7,12.56-6l.47,0,.62,0h.29a16.54,16.54,0,0,0,3.31-.39c3-.73,8.77-2.11,11-7.63a29.13,29.13,0,0,0,9.44-2.35c5-2.35,7-5.45,7.59-8.29,4.14-.86,8.84-2.21,12.72-5.94a10.42,10.42,0,0,0,3.21-9.43,10.85,10.85,0,0,0-6.44-7.94,13,13,0,0,0-5.26-1.07c-.46,0-.93,0-1.41.06-2.66.24-5.43.36-8.22.36-12.72,0-25.31-2.55-34.85-4.77-5.65-1.31-11.21-2.78-17.06-4.32a25,25,0,0,0,6.28-3,11.73,11.73,0,0,0,5.29-7.7,25.34,25.34,0,0,0,8.12-5.06c5.13-4.94,3.63-10,2.75-12a10.5,10.5,0,0,0-9.81-6.32c-.4,0-.8,0-1.21.06a28.3,28.3,0,0,0-3.84.7c-.46.11-.93.22-1.4.31a104.68,104.68,0,0,1-20.24,1.81,197.57,197.57,0,0,1-20.67-1.24l-.28,0a227.64,227.64,0,0,0-23.64-1.64ZM232,303.67c5.15-3.58,11.26-5.28,19.14-5.32h.57c7.36,0,14.59.68,22.24,1.39,2.65.25,5.39.5,8.11.73l3.2.24-11.88,8,3.7.41-6.32,3.41a64.21,64.21,0,0,0-22.19,7,1.66,1.66,0,0,1-.84.21,13.19,13.19,0,0,1-3.78-1.08l-1.64-.6a2.27,2.27,0,0,1-1.76-2.06A17.45,17.45,0,0,0,232,303.67ZM123.32,336.88a84.08,84.08,0,0,0,19.79-2.32,113.34,113.34,0,0,1,19.63-2.48c9.37-.58,17.77-3.77,25.88-6.86l.92-.35c6.22-2.36,12.79-4.34,19.13-6.25l.52-.16a45.1,45.1,0,0,1,10.24-1.37c1.76-.1,3.57-.21,5.41-.41a6.4,6.4,0,0,1,.67,0h.33a6.53,6.53,0,0,1,.48,1.54c1.42,6.81,5.38,10.27,9.09,12a61.37,61.37,0,0,0-10.4,19,23.87,23.87,0,0,0-.73,2.47c-2.47,10-.08,17.73,7.1,22.86a28.34,28.34,0,0,0,3.53,2.16,68.46,68.46,0,0,0-19.48-3.09,51.87,51.87,0,0,0-9.17.81,78.33,78.33,0,0,0-13.88,4.25c-7.69,2.9-14.12,4.25-20.25,4.25a38.12,38.12,0,0,1-6.76-.6,112,112,0,0,1-21.93-6.87,118.06,118.06,0,0,1-34.24-20.81,20.39,20.39,0,0,1-5.23-6.46,7.56,7.56,0,0,1,5.82-11.36,23,23,0,0,1,4.06-.39c.49,0,1,0,1.45.06,2.69.23,5.38.34,8,.34Zm121.79,28.19a9.21,9.21,0,0,1-5.21-1.77c-1.82-1.23-2.18-2.32-2.18-3.7,0-6.83,2.62-13.18,7.75-18.88,8.44-9.39,19.08-14,32.52-14a66,66,0,0,1,7.48.44c10.59,1.21,20.78,4,31.56,6.88l.28.07q5.81,1.57,11.22,2.79l-11.08-.42,7.87,8.73-1-.18c-.69-.12-1.36-.21-2.13-.32l-1.28-.18-16.94-2.47,9.52,9.58-2.56-.49-2-.38-12.41-2.36,6,10.18-2-.37a14.73,14.73,0,0,0-1.77-.22l-.47,0-7.21-.74.93,6.87c-3.57-.65-7-1.38-10.43-2.28a59.63,59.63,0,0,0-15.07-2h-.1a35.09,35.09,0,0,0-16.64,3.91,10.15,10.15,0,0,1-4.67,1.28Zm0,14.23a23,23,0,0,0,10.74-2.77,24.67,24.67,0,0,1,2.7-1.21,54.06,54.06,0,0,1-4.36,5.27,6.15,6.15,0,0,1-.67,0c-.41,0-.83,0-1.24,0l-1.38,0a32.38,32.38,0,0,1-8.4-1.4,21.2,21.2,0,0,0,2.63.16Z"/><path class="cls-1" d="M197.3,326.38c-3-.35-5.68-.79-8.41-1-6.5-.41-12.94-.46-18.41,4-2,1.64-3.89-.35-5.92-.79,3.61-.94,7.2-1.92,10.82-2.8,8-2,15.73-4.84,23.51-7.55,1-.35,2.57-1.28,3.06-.23.66,1.4-1.06,2.18-2.11,2.83a38.72,38.72,0,0,1-3.82,1.75c-.65.31-1.62.49-1.54,1.4s1,.68,1.58.91C196.48,325.14,197,325.21,197.3,326.38Z"/><path class="cls-1" d="M211.86,316.56c.11.34.42.81.3,1-1.68,2.58-1.61,4,2,4.73,1.77.35,2.18,3,3.43,4.5.26.3-.07.66-.42.88-1.44.89-5.84.4-7-1-1.27-1.57-3.31-2.44-3.23-5.19.1-3.64,2.74-3.95,5-4.93Z"/><path class="cls-1" d="M156.76,329.54c-2.21.49-2.68,3.76-5.16,3.39-1.95-.29-3.65-1.88-6.3-1.18,2.7,1.32,5.59,1.62,7.06,4.22-3-1.86-6-3.3-9.66-2.69a.83.83,0,0,1-1-.72c-.07-.55.4-.79.81-1a14.53,14.53,0,0,1,5-1.69A31.35,31.35,0,0,1,156.76,329.54Z"/><path class="cls-1" d="M186.88,337.49c-9.12.7-17.18,6.5-26.6,5.57C161.74,342.3,184.85,337.27,186.88,337.49Z"/><path class="cls-1" d="M212,316.56c-2.2-.66-4.34.75-6.63.27,1.67-2.17,6-3.17,9.34-2.23-.42,1.44-2.12,1-2.84,2Z"/><path class="cls-1" d="M168.19,333.39a13.09,13.09,0,0,0-10.11-1.76C162,329.48,165.85,330.21,168.19,333.39Z"/><path class="cls-1" d="M203.31,329.76c-.48-.46-1.4-1.06-.64-1.5,1-.56,1.86.42,2.59,1.08.48.43,1.58,1.14.74,1.68C204.81,331.8,204.2,330.18,203.31,329.76Z"/><path class="cls-1" d="M183.92,328.78l-6.28-1.11C179.9,327,182,327.06,183.92,328.78Z"/><path class="cls-1" d="M140,333.69l3.44,4.82C142,337.15,140,336.2,140,333.69Z"/><g id="Layer_68" data-name="Layer 68"><line class="cls-3" x1="485.04" y1="791.64" x2="557.73" y2="718.95"/><path class="cls-1" d="M561.34,500.83,775.85,715.39,774,717.23l-213.68-1.17V501.9l1-1.07m-.1-8.09-4,4.19-1,1.07-1.56,1.64v222l5.62,0L774,722.88h2.36l1.67-1.67,1.85-1.85,4-4-4-4L565.33,496.84l-4.09-4.09Z"/><path class="cls-1" d="M664.58,366.69l5.53,7.37c44.18,58.87,91.83,91.3,134.14,91.3h8v8c0,43.18,31.85,89.84,92.1,134.94l7.39,5.53L688.67,836.89l-7.58-15L887.44,615.5c-56.41-44-87.63-90.21-90.9-134.44-44-3.25-89.87-34.2-133.62-90.1L455.21,598.67,440.29,591,664.58,366.69m.62-8.69-4.65,4.65L436.25,586.94l-5.53,5.53,7,3.58,14.92,7.69,3.71,1.91,2.95-2.95L662.43,399.53c20.89,25.89,42.4,46.38,64,61s43.5,23.3,64.85,25.81c2.51,21.49,11.26,43.42,26,65.26S852.73,595,878.87,616L677.05,817.81l-2.92,2.92,1.86,3.69,7.58,15,3.55,7.05,5.58-5.58L915.77,617.86l4.66-4.66-5.28-3.95-7.39-5.53C849,559.74,818,514.66,818,473.35V459.65H804.25c-40.47,0-86.49-31.61-129.57-89l-5.53-7.37-4-5.26Z"/><path class="cls-1" d="M414.48,584.47l35.61,17.84-4,7.16a105.54,105.54,0,0,0-8.24,19.74,124.84,124.84,0,0,0-4.31,18.25c-.78,5-1.36,10.11-1.7,15.19s-.46,10-.35,15a142.47,142.47,0,0,0,4.08,30.52c1.09,4.51,2.28,9,3.76,13.42,1.68,5,3.63,9.9,5.7,14.75A143.15,143.15,0,0,0,455.8,756.7c2.91,4.59,6.06,9,9.2,13.45s6.87,8.65,10.43,12.88c4.28,5.09,9.06,9.66,13.81,14.28,3,2.92,6.27,5.56,9.51,8.21,3.66,3,7.31,6,11.16,8.71q6.88,4.85,14.12,9.16a159.06,159.06,0,0,0,21.34,10.53,162.09,162.09,0,0,0,24.25,7.7,127.69,127.69,0,0,0,20.1,3.29c5.4.39,10.84.55,16.26.55l3.87,0A140.63,140.63,0,0,0,658.08,836a91.1,91.1,0,0,0,16.52-8.18c.66-.42,1.39-.74,2.37-1.25,5.94,12,12,23.79,17.77,36l-5.37-.8a17.25,17.25,0,0,0-2.45-.18,16.64,16.64,0,0,0-8.86,2.58,114.72,114.72,0,0,1-20.26,9.66,154.25,154.25,0,0,1-35.93,8.49,162.07,162.07,0,0,1-19.38,1.23q-2.24,0-4.49-.07a191.34,191.34,0,0,1-42.65-6.08,199,199,0,0,1-40.9-15.88,184.36,184.36,0,0,1-21.69-13.18c-4.57-3.25-9.12-6.53-13.59-9.91-2.2-1.66-4.22-3.59-6.31-5.4-3.51-3-7.16-5.93-10.47-9.16-3.58-3.5-7.45-6.73-10.4-10.84a8.41,8.41,0,0,0-1.11-1.17,136.52,136.52,0,0,1-12.36-14.1,239.44,239.44,0,0,1-15.36-21.84,207.36,207.36,0,0,1-17.61-35.42A182.83,182.83,0,0,1,397,710.91a138.25,138.25,0,0,1-3-23.39c-.19-6.62-.54-13.27-.26-19.88a156.48,156.48,0,0,1,5.87-36.19,131.7,131.7,0,0,1,8.63-22.5,68.38,68.38,0,0,1,3.38-6.07A20.63,20.63,0,0,0,414.47,586a8.5,8.5,0,0,1-.19-1c0-.07.06-.16.19-.45m-2.79-7.79-2.42,5.45a6,6,0,0,0-.66,3.42v.14a13.63,13.63,0,0,0,.33,1.75,14.87,14.87,0,0,1-2.16,12.38,74.3,74.3,0,0,0-3.67,6.58,138.15,138.15,0,0,0-9,23.48,162.83,162.83,0,0,0-6.08,37.5c-.24,5.54,0,11.08.13,16.44q.07,1.93.12,3.86A145.66,145.66,0,0,0,391.42,712a189.68,189.68,0,0,0,8.8,30.54A214.18,214.18,0,0,0,418.31,779,246.21,246.21,0,0,0,434,801.32,140.63,140.63,0,0,0,446.93,816l.2.19.26.25a64,64,0,0,0,8.49,9.14c.87.82,1.7,1.6,2.51,2.39,2.47,2.41,5.08,4.61,7.6,6.73,1,.88,2.09,1.76,3.12,2.66l1.74,1.54c1.53,1.37,3.11,2.78,4.86,4.1,4,3,8.35,6.19,13.73,10a190.9,190.9,0,0,0,22.37,13.59,205.8,205.8,0,0,0,42.07,16.33,198.16,198.16,0,0,0,43.92,6.27c1.54.05,3.11.08,4.68.08A166.5,166.5,0,0,0,622.55,888a158.94,158.94,0,0,0,37.26-8.81,119,119,0,0,0,21.25-10.15,11,11,0,0,1,5.85-1.73,11.64,11.64,0,0,1,1.64.12l3,.45,2.3.34,10.53,1.56-4.53-9.63c-4-8.41-8.12-16.72-12.15-24.76-1.86-3.71-3.79-7.55-5.67-11.35l-2.58-5.23-5.17,2.69-.78.4a21.93,21.93,0,0,0-2,1.1,85.9,85.9,0,0,1-15.49,7.67,135.54,135.54,0,0,1-46.27,9l-3.79,0c-5.69,0-10.87-.18-15.85-.54a120.37,120.37,0,0,1-19.2-3.15,157.34,157.34,0,0,1-23.4-7.42A152.62,152.62,0,0,1,527,818.47c-4.74-2.83-9.37-5.83-13.76-8.93-3.35-2.35-6.51-4.93-9.86-7.67l-1-.8-.72-.59c-3-2.44-5.82-4.74-8.4-7.27l-1.06-1a177.08,177.08,0,0,1-12.37-12.84l-2.29-2.7c-2.82-3.31-5.48-6.44-7.84-9.79l-.36-.51c-2.93-4.14-6-8.41-8.68-12.71a138,138,0,0,1-10.32-19.5c-2.32-5.44-4.08-10-5.54-14.32-1.55-4.58-2.75-9.32-3.62-12.94a137.44,137.44,0,0,1-3.92-29.31c-.11-4.77,0-9.66.34-14.52s.88-9.7,1.65-14.71a118.27,118.27,0,0,1,4.12-17.42,99.65,99.65,0,0,1,7.78-18.67l4-7.16,2.9-5.21-5.33-2.67L432.3,587,417,579.36l-5.35-2.68Z"/><path class="cls-1" d="M437.08,741.62c-.86-.26-1.4-.27-1.52-.48-.69-1.31-1.71-1.1-2.76-.66-1.66.69-3.28,1.42-4.92,2.12-2.22,1-4.43,1.91-6.66,2.84-1.25.51-2.2,1.15-2,2.75,0,.28-.44.63-.84,1.18-1.31-3-2.5-5.76-3.84-8.9.78.21,1.4.19,1.57.46a1.79,1.79,0,0,0,2.55.63c4.1-1.78,8.18-3.59,12.32-5.27,1.66-.68,1.37-2,1.36-3.51.44.08.86,0,.94.19C434.68,735.62,435.79,738.39,437.08,741.62Z"/><path class="cls-1" d="M458.75,786.13c-2.33,1.86-4.31,2-6.9.32-1.07-.69-2.29-1.36-2.37-3.25,3.17,1.17,5.75.61,7.45-2.27,1-1.7.9-2.37-.55-4.67-2.54,1.25-4.61,3.21-6.82,4.93s-4.39,3.34-6.45,4.9c.17,1.15.29,2,.46,3.11-2.08-.55-2.35-2.41-3.41-3.49a29.68,29.68,0,0,1-2.8-3.76c.37-.21.59-.41.65-.36,1.75,1.06,3.05.39,4.5-.82,2.61-2.17,5.42-4.09,8.13-6.15,2-1.52,2.12-1.71,2.2-4.79a8,8,0,0,1,1.3,1c1.75,2.25,3.51,4.51,5.21,6.81a7.85,7.85,0,0,1,.91,1.93A5.55,5.55,0,0,1,458.75,786.13Z"/><path class="cls-1" d="M447.95,761.9c-.6,0-1,.16-1.2,0-1.17-1.19-2.37-1-3.67-.26-4.23,2.31-8.48,4.59-12.73,6.88-1.29.69-1.29.69-2.59-.7l7.69-18.5a109.65,109.65,0,0,0-10.68,5.94,1.7,1.7,0,0,0-.78,2.08,11.08,11.08,0,0,1,.16,1.74c-1.87-.4-1.78-2-2.46-3a9.75,9.75,0,0,1-1.83-3.7c.47,0,.93-.19,1.07,0,1.24,1.3,2.52,1,3.88.26,3.92-2.14,7.84-4.26,11.86-6.44,0-1-.06-2-.1-3.26.56.28,1.11.38,1.29.69,1,1.61,1.82,3.27,2.73,5-2.54,4.72-4.2,9.77-6.16,14.92a27.73,27.73,0,0,0,9.3-5.49c-.15-.82-.28-1.59-.48-2.76.7.38,1.28.48,1.48.82C445.82,757.9,446.8,759.78,447.95,761.9Z"/><path class="cls-1" d="M463.38,807c-1.11.72-2.31,1.29-3.71,2-1.23-1.44-2.33-2.8-3.51-4.11s-2.65-2.67-3.84-4.12-2.82-2.22-3.09-4.6l2.88,1.34c1.21-1,2.5-1.91,3.7-3,2.36-2.05,4.57-4.28,7-6.22,1.49-1.17,1.28-2.52.82-4.39.72.31,1.16.39,1.41.65,3.08,3.35,6.12,6.74,9.31,10.27L471,798.28c-.25-.4-.78-.94-.67-1.12,1.49-2.54.11-4.23-1.62-5.83-.32-.31-.66-.6-1-.93-1.26.26-1.86,1.34-2.71,2.07s-1.52,1.5-2.47,2.46l2.63,2.63c.9.77,2.12-1.33,3.12.47-1.87,1.11-2.92,3.09-5.13,4.13-.1-.57-.36-1.11-.21-1.31,1-1.3.54-2.3-.45-3.28-.44-.43-.87-.87-1.39-1.39a22.33,22.33,0,0,0-4.6,4.09,1.67,1.67,0,0,0,0,2.41c.55.71,1.16,1.36,1.78,2a3.53,3.53,0,0,0,3.4,1.14c.69-.12,1.38-.19,2.41-.31C463.75,806.21,463.7,806.84,463.38,807Z"/><path class="cls-1" d="M478.79,813.89c.81,0,1.44.08,2.05.15a5.18,5.18,0,0,0,3.91-8.66c-2.29-2.5-4.84-4.74-7.33-7.05-.3-.28-.89-.24-1.67-.43.57,1.47,1.07,2.5-.09,3.66-2.83,2.85-5.53,5.84-8.2,8.86-1.15,1.29-2.31,1.91-3.95,1-.09-.06-.3.1-.69.27,0,.15,0,.48.2.64,1.84,1.83,3.69,3.64,5.6,5.4.18.16.73-.07,1.46-.17-1.56-1.75-.82-2.95.4-4.09,1-1,2-2,3-3,1.28.39,1.33,1.25,1,2.33-.52,1.71-1,3.43-1.46,5.16a5,5,0,0,0,.68,4.12c.87,1.32,1.74,2.83,3.71,3.09C476.35,819.69,477.37,818.93,478.79,813.89Zm-.23-3c-1.8.38-2.75-.73-3.72-2.17l5.44-5.44a3.34,3.34,0,0,1,1.93,3.72A5.87,5.87,0,0,1,478.56,810.93Z"/><path class="cls-1" d="M421.54,703.69a11.07,11.07,0,0,0,1.87-6c.14-4.08-.79-8-1.62-12,0-.24-.46-.41-.72-.62-1.36,2.16-1.36,2.18-4,2.58-3.72.55-7.45,1.07-11.17,1.62-.7.1-1.4.3-2.09.44,0-.21,0-.41,0-.62-.73-.41-.29-2-2-1.66.46,3.56.87,7,1.37,10.45a13.68,13.68,0,0,0,2.1,5.48C408.77,708.93,417.82,709.12,421.54,703.69ZM416.29,702c-3.11,1-6.19,1-9.07-.7-2-1.19-2.56-3.14-2.57-5.28,0-1.24.81-2,2.25-2.28s2.66-.4,4-.58c2.83-.4,5.67-.82,8.5-1.22.51-.06,1,0,1.5,0C422.64,696.66,420.83,700.6,416.29,702Z"/><path class="cls-1" d="M417.61,651.65a5.17,5.17,0,0,1-4.66-4.19c-.33-1.51-.65-3.11.75-4.79.91,1.75,1.65,3.49,3.56,3.87a10.51,10.51,0,0,0,3.44.21c1.59-.2,2.11-1,2.58-3.2-1.8-1-13.54-3.53-16.31-3.48l-1.74,2.12a33,33,0,0,1,1.32-9c.11-.24.52-.37.83-.59.19.36.44.61.42.81-.15,1.42.72,1.9,1.87,2.13,2.71.57,5.43,1.15,8.14,1.7l6.11,1.18,1.89-2.21a6,6,0,0,1,.31,1.6c-.54,2.9-1.07,5.8-1.73,8.67a8.27,8.27,0,0,1-1.25,2.64A5.35,5.35,0,0,1,417.61,651.65Z"/><path class="cls-1" d="M429.12,721.75c-2.22,1.61-3.25,1.87-4.55,1.17.7-1.09,1.87-2.13,2-3.27.15-1.51-.52-3.1-.88-4.92l-6.91,1.82c.4,1.43.73,2.68,1,3.62,1.13,1,2.5.19,2.92,1.81l-3.25.94-3.41.94c.23-.78.24-1.5.5-1.6,1.36-.52,1.39-1.49,1.07-2.61-.21-.76-.49-1.49-.82-2.49-2,.57-3.9,1-5.71,1.7a2.3,2.3,0,0,0-1.23,1.55,5.7,5.7,0,0,0,3.69,5.86c.65.23,1.49.23,1.4,1.41-1.53.82-3.18.6-5,.27-1.4-5.13-2.8-10.25-4.35-15.9.82.42,1.32.52,1.56.82,1.34,1.76,1.33,1.8,3.51,1.2,3.63-1,7.24-2,10.87-3,1.55-.4,3-.8,2.88-2.82,0-.12.22-.25.36-.36a.63.63,0,0,1,.25-.06C425.89,709.08,428.33,717.32,429.12,721.75Z"/><path class="cls-1" d="M421.56,682.87c-.18,0-.48,0-.5-.06-.56-1.69-1.67-2.24-3.46-2.13-4,.25-8,.28-12.05.42a17.33,17.33,0,0,0-1.8.23c-.4.75-.73,1.44-1.14,2.06-.07.1-.49,0-.92,0a66.69,66.69,0,0,1,.3-9.09c1.7,2.2,1.7,2.21,4.35,2.16,3.84-.1,7.68-.2,11.52-.34.7,0,1.4-.17,1.76-.21,1.11-.58.32-2.37,1.95-2.09C422.09,676.58,422.09,681.3,421.56,682.87Z"/><path class="cls-1" d="M495.67,816.75,491.41,822c2.16,2.79,3,3.05,6,1.89.16,1.5-.88,2.29-1.61,3.17s-1.47,1.66-2.26,2.57c-1.32-1.15.57-2.62-.76-3.57-.93-.65-1.74-1.47-2.78-2.36l-4.55,6.08,1.59,2.53c-2.15-.08-3.25-1.39-4.39-2.48s-3-1.58-3.76-3.34c.92-.9,1.68.23,2.73,0,2-1.23,3.05-3.63,4.72-5.45a62,62,0,0,0,4.08-5.31c1.41-1.89,1.4-1.9.72-4.16.48,0,1-.07,1.24.13,3.43,2.72,6.82,5.48,10.22,8.25.12.09.13.31.19.47-2.07,3.26-2.07,3.26-3.46,3C500,819.85,499.8,819.37,495.67,816.75Z"/><path class="cls-1" d="M421.88,665.25a41.2,41.2,0,0,0,.78-11.27c-.49.1-1.08.11-1.11.24-.4,1.86-1.8,1.74-3.17,1.63-3.84-.28-7.66-.63-11.49-.88-1.57-.1-2.75-.6-3.11-2.29,0-.08-.31-.11-.46-.17-.76,1.37-1.2,4.17-1.2,8,0,.27.25.56.54,1.14l1.65-2.34,6.34.28c.51,1.38.09,2.08-1,2.5a34.14,34.14,0,0,0-4.18,1.76,11.44,11.44,0,0,0-2.91,2.29,5.34,5.34,0,0,0-.52,6.06,7.78,7.78,0,0,1,4.2-3.93c1.79-.71,3.44-1.87,5.37-2,.58.74,1,1.42,1.56,2a5,5,0,0,0,6.55.54A6.15,6.15,0,0,0,421.88,665.25Zm-2.81-.81a5,5,0,0,1-5.31-.29c-1.48-1-1.56-2.46-.89-4.31l7.78.57C421,662.23,420.59,663.68,419.06,664.44Z"/><path class="cls-1" d="M601.34,874.41c-1,.31-1.43-.4-1.91-1.07-1.06-1.54-2.13-3.09-3.22-4.61-2.38-3.34-4.79-6.66-7.51-10.45-.09,1.49-.19,2.56-.23,3.63-.1,2.51-.18,5-.28,7.52-.06,1.6.25,2.87,2.16,3.11.26,0,.43.59.89,1.26l-8.27-.29c.57-.69.79-1.23,1.14-1.33a2.07,2.07,0,0,0,1.7-1.84c.52-5,.75-10,.78-15L584,854.21c.85-1,.85-1,6.53-.67,3.29,4.48,6.48,8.85,10,13.74.15-3.35.29-6,.39-8.69,0-1.65-.34-3-2.25-3.45-.23-.06-.37-.5-.58-.81a18.29,18.29,0,0,1,7.56.29c0,.18,0,.48-.09.51-2.06.67-2.42,2.33-2.52,4.18-.21,4.12-.45,8.24-.68,12.34,0,.27,0,.54,0,.82C602.35,873.27,602.36,874.11,601.34,874.41Z"/><path class="cls-1" d="M646,868.66l-16.33,3.59c.49-.83.63-1.36,1-1.57,1.83-1.2,1.9-1.19,1.48-3.16-1-4.55-2-9.09-3-13.65L626,852.64c2.88-1.24,5.34-1.43,7.7-2s4.71-1,7.24-1.6a9.49,9.49,0,0,1,1.2,5.09,7.45,7.45,0,0,1-1.59-1.15,3.4,3.4,0,0,0-3.81-1.26c-1,.2-2.06.48-3.23.76l1.57,6.86c1.32-.31,2.59-.33,3.46-.93s1-1.67,1.45-2.58c1.09,1.12,1.78,3.59,1.81,6.54-.43-.15-1-.19-1.12-.43-.59-1.57-1.69-1.64-3-1.23-.67.2-1.36.33-2.2.54.45,1.91.82,3.76,1.33,5.55.42,1.45.86,1.7,2.37,1.57,2.53-.22,4.81-.86,5.44-3.82.16-.78.57-1.06,1.4-.78C646.73,865.28,646.09,866.85,646,868.66Z"/><path class="cls-1" d="M625.17,872.49a16.38,16.38,0,0,1-9.75,1,9.72,9.72,0,0,1-8.05-8.89A10,10,0,0,1,613,854.2a16.43,16.43,0,0,1,5.35-1.53,47.49,47.49,0,0,1,6.33,0c.2,1.87,1.06,3.51.12,5.84-.58-.86-.83-1.19-1-1.53-2.37-4.2-7.95-3.2-10.08.13S612.12,867,614.95,870a5.94,5.94,0,0,0,10-1.45,19.73,19.73,0,0,1,1.11-2.08c.48.73.89,1.07.89,1.39,0,1-.19,2-.31,2.94A2,2,0,0,1,625.17,872.49Z"/><path class="cls-1" d="M581.34,872.06c-2.17-.57-2.1-2.41-2.35-4.06-.77-5-1.5-9.9-2.29-14.85a11,11,0,0,0-.58-1.74,5.65,5.65,0,0,0-4.18,3.09c-1.85,3.46-3.88,6.83-5.86,10.22a11.34,11.34,0,0,1-1.78,2.66,14.2,14.2,0,0,1-2.79,1.64c-.07,1,.69.84,1.27,1,4.35.82,4.35.82,5.65,0l-1.9-1.43,2.5-4.51,5,.93c.23,1.81.44,3.46.63,4.93-.74.74-2,.36-1.88,1.77l8.78,1.56C581.47,872.68,581.48,872.1,581.34,872.06Zm-11.5-9.76c.93-1.7,1.73-3.2,2.53-4.68l.69.11.64,5.13Z"/><path class="cls-1" d="M515.84,828.55c-4.54-4.57-11.21-5-15.33-.68-4.78,5-4.35,11.07-.53,14.86,4,3.95,10.73,5.49,15.31.8C519.63,839.07,520.29,832.46,515.84,828.55Zm-7.42,14.76a4.55,4.55,0,0,1-7-2.75,6.75,6.75,0,0,1-.16-2.67,14.86,14.86,0,0,1,5.36-9.3,6.54,6.54,0,0,1,1.38-.8,4.55,4.55,0,0,1,6.74,4c.22,3-1,5.58-2.71,8-.47.65-1,1.23-1.62,1.93A18.88,18.88,0,0,1,508.42,843.3Z"/><path class="cls-1" d="M559,869.06c-2.7-.78-5.39-1.59-8.21-2.45.94-1,.94-1,2.81-1.29,1.08-3.46,2.21-7,3.33-10.56l-.38-.27c-2.28,2.49-4.56,5-6.82,7.45-.84.92-1.62,1.9-2.45,2.85a1.22,1.22,0,0,1-1.87.2q-.7-7.41-1.42-14.81l-.44-.07c-.33.78-.7,1.56-1,2.36-.76,2.2-1.45,4.42-2.24,6.61-.48,1.34-.52,2.42,1,3.09.22.09.23.65.37,1.08-2.92-.32-5.94-1.44-7-2.64.34-.15.62-.38.89-.36a2.15,2.15,0,0,0,2.24-1.59c1.59-4.08,3.14-8.17,4.69-12.27a2,2,0,0,0-.61-2.41,9.76,9.76,0,0,1-1.15-1.57c2.79.13,4.79,1.25,6.77,1.81.52,4.89,1,9.59,1.53,14.63,2.31-1.5,3.67-3.46,5.28-5.14s3.18-3.62,4.93-5.63a27.74,27.74,0,0,1,6.07,2.06c.11.06,0,.49.06,1a11.36,11.36,0,0,1-1.26,0,1.79,1.79,0,0,0-2,1.37c-1.33,4.35-2.62,8.73-4,13.09-.43,1.4.52,2.07,1.48,2.72C559.3,868.69,559.06,869.09,559,869.06Z"/><path class="cls-1" d="M531.16,848.78l1.7-.3a5.11,5.11,0,0,0,2.54-8.63,7.38,7.38,0,0,0-2.09-1.64c-2.79-1.4-5.61-2.71-8.44-4-.21-.1-.51,0-1,0,0,.5,0,.87.08,1,1.14.93,1,1.93.39,3.09-1.12,2.24-2.16,4.51-3.24,6.76-.69,1.45-1.36,2.91-2.09,4.34-.56,1.07-1.26,2-2.73,1.65-.24,0-.59.44-1.09.86l8.08,3.88c.84-1.45-.88-1.75-.86-3a18.6,18.6,0,0,1,2.8-5.56c1.45.23,1.62,1.12,1.62,2.2a48,48,0,0,0,.07,4.82c.36,3.54,2.71,5.66,6.93,6C530.55,856.73,531.29,852.75,531.16,848.78Zm-1-2.75c-1.2.82-1.76.74-4.35-.72l3.38-7a3.07,3.07,0,0,1,3.19,2.59A5.46,5.46,0,0,1,530.18,846Z"/><path class="cls-1" d="M71.68,390.4c-.88-.28-1.43-.3-1.55-.52-.73-1.34-1.76-1.15-2.82-.72-1.67.67-3.31,1.39-5,2.08-2.24.94-4.48,1.87-6.72,2.78-1.26.5-2.22,1.14-2,2.76,0,.29-.43.63-.83,1.19-1.38-3.1-2.64-5.9-4.07-9.12.79.23,1.42.21,1.61.5A1.86,1.86,0,0,0,53,390c4.14-1.74,8.26-3.51,12.45-5.14,1.68-.66,1.36-2,1.32-3.54.45.09.87.06,1,.21C69.12,384.26,70.31,387.09,71.68,390.4Z"/><path class="cls-1" d="M94.51,436.06c-2.33,1.85-4.35,1.95-7,.21-1.1-.72-2.36-1.42-2.46-3.35,3.25,1.25,5.86.73,7.55-2.18,1-1.71.87-2.39-.64-4.76-2.57,1.23-4.64,3.18-6.86,4.9s-4.4,3.32-6.48,4.88c.19,1.18.33,2,.52,3.17-2.13-.6-2.43-2.5-3.53-3.61a31.73,31.73,0,0,1-2.92-3.87c.37-.21.59-.41.66-.36,1.8,1.11,3.11.45,4.56-.75,2.62-2.16,5.44-4.07,8.17-6.11,2-1.51,2.12-1.71,2.16-4.83a8.56,8.56,0,0,1,1.34,1c1.82,2.32,3.65,4.65,5.42,7a8.31,8.31,0,0,1,1,2C97,432,96.42,434.54,94.51,436.06Z"/><path class="cls-1" d="M83.09,411.22c-.61,0-1.07.15-1.22,0-1.21-1.23-2.43-1-3.74-.33-4.27,2.28-8.55,4.52-12.83,6.78-1.3.68-1.3.68-2.65-.76l7.5-18.68a106.8,106.8,0,0,0-10.76,5.86,1.68,1.68,0,0,0-.75,2.11,11.39,11.39,0,0,1,.19,1.78c-1.91-.44-1.85-2.09-2.56-3.09a10.33,10.33,0,0,1-1.92-3.8c.48,0,.94-.17,1.09,0,1.28,1.34,2.58,1.06,3.95.33,3.95-2.11,7.91-4.19,12-6.34-.05-1.07-.1-2-.16-3.32.57.3,1.13.41,1.33.73,1,1.65,1.91,3.36,2.86,5.09-2.51,4.76-4.1,9.87-6,15.07a27,27,0,0,0,9.37-5.43c-.16-.84-.32-1.62-.54-2.82.72.4,1.32.51,1.52.86C80.85,407.12,81.88,409,83.09,411.22Z"/><path class="cls-1" d="M99.58,457.42c-1.11.71-2.33,1.27-3.74,2-1.27-1.48-2.42-2.89-3.65-4.24s-2.74-2.76-4-4.26-2.91-2.31-3.23-4.73l2.95,1.41c1.22-1,2.51-1.9,3.71-3,2.36-2,4.58-4.28,7-6.2,1.5-1.17,1.25-2.54.75-4.45a5.47,5.47,0,0,1,1.44.68c3.19,3.46,6.35,7,9.65,10.61l-3.35,3.35c-.26-.41-.81-1-.7-1.15,1.47-2.55,0-4.3-1.75-6-.33-.32-.68-.62-1.06-1-1.28.24-1.87,1.33-2.72,2.06s-1.52,1.5-2.47,2.46l2.73,2.73c.93.8,2.14-1.32,3.18.53-1.89,1.1-2.92,3.09-5.15,4.11-.11-.58-.39-1.13-.24-1.33,1-1.3.51-2.33-.52-3.34-.46-.44-.9-.9-1.44-1.44a21.59,21.59,0,0,0-4.6,4.09,1.69,1.69,0,0,0,0,2.46c.57.73,1.21,1.4,1.84,2.09a3.7,3.7,0,0,0,3.48,1.22c.7-.11,1.4-.16,2.45-.28C99.94,456.59,99.9,457.22,99.58,457.42Z"/><path class="cls-1" d="M115.38,464.66c.82.06,1.46.11,2.09.18a4.79,4.79,0,0,0,5-3.61,5.11,5.11,0,0,0-1.21-5.13c-2.37-2.58-5-4.91-7.58-7.3-.31-.29-.91-.26-1.71-.46.6,1.51,1.14,2.56,0,3.72-2.83,2.85-5.53,5.84-8.19,8.87-1.14,1.29-2.32,1.9-4,.94-.09-.06-.3.1-.7.27.05.15,0,.49.22.65,1.91,1.89,3.82,3.77,5.79,5.6.18.17.75-.06,1.48-.15-1.62-1.81-.88-3,.33-4.16,1-1,2-2,3-3,1.31.42,1.38,1.3,1.06,2.38-.5,1.73-1,3.48-1.4,5.23a5.12,5.12,0,0,0,.76,4.2c.91,1.36,1.82,2.91,3.83,3.21C113,470.52,114,469.76,115.38,464.66Zm-.28-3c-1.83.35-2.81-.79-3.83-2.28l5.44-5.44a3.52,3.52,0,0,1,2,3.82A5.69,5.69,0,0,1,115.1,461.65Z"/><path class="cls-1" d="M55.2,351.53A11,11,0,0,0,57,345.41c.07-4.15-.95-8.17-1.85-12.19-.05-.25-.48-.43-.74-.65-1.34,2.18-1.34,2.2-4,2.55-3.77.49-7.56,1-11.34,1.46-.71.09-1.42.28-2.12.42,0-.21,0-.42,0-.63-.76-.43-.33-2-2.09-1.72.53,3.63,1,7.15,1.58,10.66a14.41,14.41,0,0,0,2.23,5.61C42.3,356.64,51.51,357,55.2,351.53Zm-5.38-1.79a10.86,10.86,0,0,1-9.24-.87c-2-1.24-2.66-3.24-2.71-5.42,0-1.27.79-2,2.24-2.28s2.7-.36,4-.52c2.87-.36,5.75-.74,8.63-1.09.52,0,1.05,0,1.53,0C56.2,344.4,54.42,348.37,49.82,349.74Z"/><path class="cls-1" d="M50.29,298.52a5.5,5.5,0,0,1-4.82-4.35c-.36-1.54-.72-3.18.68-4.86,1,1.8,1.74,3.58,3.69,4a10.77,10.77,0,0,0,3.5.27c1.62-.18,2.13-1,2.57-3.21-1.85-1.06-13.84-3.83-16.65-3.83l-1.74,2.12a33.1,33.1,0,0,1,1.18-9.09c.11-.24.52-.37.84-.59.2.36.46.62.44.83-.12,1.44.76,1.94,1.94,2.2,2.77.62,5.54,1.26,8.31,1.87l6.23,1.31L58.37,283a6.27,6.27,0,0,1,.34,1.63c-.5,2.94-1,5.88-1.61,8.8a8.09,8.09,0,0,1-1.23,2.67A5.26,5.26,0,0,1,50.29,298.52Z"/><path class="cls-1" d="M63.23,370c-2.23,1.6-3.28,1.84-4.61,1.11.7-1.1,1.87-2.14,2-3.29.13-1.53-.58-3.16-1-5l-7,1.73c.43,1.46.79,2.74,1.07,3.7,1.17,1.06,2.55.24,3,1.89l-3.29.9-3.45.89c.22-.78.22-1.52.48-1.62,1.37-.5,1.39-1.49,1-2.64-.23-.78-.53-1.53-.88-2.55-2,.55-4,1-5.78,1.63a2.23,2.23,0,0,0-1.22,1.56,6,6,0,0,0,3.86,6c.67.25,1.52.26,1.45,1.46-1.55.81-3.23.55-5.09.19-1.51-5.24-3-10.48-4.71-16.26.85.44,1.36.55,1.6.86,1.39,1.81,1.39,1.86,3.6,1.29,3.68-.94,7.34-1.94,11-2.83,1.57-.38,3-.76,2.88-2.82,0-.12.22-.25.36-.36s.17,0,.25-.05C59.72,357.1,62.34,365.52,63.23,370Z"/><path class="cls-1" d="M54.86,330.35c-.18,0-.48,0-.51-.07-.6-1.73-1.74-2.31-3.55-2.23-4.08.18-8.17.15-12.25.22a17.42,17.42,0,0,0-1.83.21,23.43,23.43,0,0,1-1.12,2.08c-.07.11-.5,0-.94,0a67.68,67.68,0,0,1,.15-9.24c1.76,2.26,1.76,2.28,4.46,2.28,3.91,0,7.81-.07,11.71-.14.71,0,1.42-.15,1.79-.18,1.12-.57.29-2.41,1.94-2.09C55.29,324,55.37,328.76,54.86,330.35Z"/><path class="cls-1" d="M132.61,467.86l-4.24,5.29c2.25,2.88,3.09,3.16,6.16,2,.19,1.53-.86,2.31-1.58,3.2s-1.47,1.67-2.26,2.57c-1.36-1.2.54-2.66-.83-3.65-1-.68-1.8-1.53-2.87-2.45L122.47,481l1.66,2.6c-2.19-.12-3.33-1.47-4.51-2.6s-3.12-1.66-3.89-3.47c.92-.9,1.71.26,2.78.08,2-1.21,3-3.64,4.71-5.46a60.06,60.06,0,0,0,4.06-5.33c1.4-1.9,1.39-1.91.66-4.22.49,0,1-.06,1.27.15,3.54,2.83,7,5.7,10.54,8.57.12.09.14.31.21.48-2,3.28-2,3.28-3.47,3C137.11,471.1,136.85,470.61,132.61,467.86Z"/><path class="cls-1" d="M54.87,312.43A41.66,41.66,0,0,0,55.46,301c-.5.1-1.1.1-1.13.23-.38,1.88-1.8,1.74-3.19,1.6-3.91-.35-7.8-.78-11.71-1.1-1.6-.13-2.8-.66-3.2-2.38,0-.08-.31-.12-.47-.18-.75,1.38-1.14,4.22-1.08,8.09,0,.28.26.57.57,1.17L36.87,306l6.46.4c.54,1.41.13,2.11-1,2.53a33.49,33.49,0,0,0-4.23,1.72A11.07,11.07,0,0,0,35.18,313a5.39,5.39,0,0,0-.42,6.15,7.53,7.53,0,0,1,4.2-3.92c1.81-.69,3.47-1.85,5.43-1.9.6.77,1.06,1.46,1.62,2.06a5.08,5.08,0,0,0,6.67.67A6,6,0,0,0,54.87,312.43ZM52,311.56a5.07,5.07,0,0,1-5.41-.39c-1.52-1.07-1.63-2.53-1-4.4l7.92.72C53.88,309.34,53.53,310.8,52,311.56Z"/><path class="cls-1" d="M241.14,528.39c-1,.3-1.46-.43-2-1.12-1.1-1.59-2.22-3.18-3.36-4.75-2.48-3.44-5-6.86-7.83-10.77-.06,1.52-.14,2.6-.17,3.69-.06,2.55-.09,5.11-.16,7.65,0,1.63.3,2.92,2.25,3.2.26,0,.45.61.93,1.3l-8.42-.44c.57-.69.78-1.24,1.14-1.34a2,2,0,0,0,1.69-1.84c.45-5.06.59-10.14.53-15.26l-2.64-1.17c.84-1,.84-1,6.64-.57,3.42,4.62,6.75,9.12,10.46,14.15.1-3.41.19-6.13.24-8.84,0-1.68-.4-3.1-2.35-3.55-.24-.06-.39-.52-.61-.83a18.69,18.69,0,0,1,7.7.43c0,.18,0,.48-.08.52-2.08.65-2.42,2.32-2.49,4.21-.14,4.19-.32,8.37-.47,12.55,0,.28,0,.55,0,.83C242.15,527.25,242.17,528.1,241.14,528.39Z"/><path class="cls-1" d="M286.5,523.32l-16.55,3.36c.49-.84.62-1.37,1-1.59,1.84-1.19,1.91-1.17,1.45-3.19-1.07-4.64-2.21-9.28-3.31-13.94l-3.19-1.3c2.9-1.22,5.41-1.36,7.8-1.93s4.77-1,7.34-1.5a9.88,9.88,0,0,1,1.31,5.2,8,8,0,0,1-1.64-1.2,3.56,3.56,0,0,0-3.9-1.35c-1.06.19-2.09.45-3.27.72l1.72,7c1.33-.3,2.63-.29,3.51-.88s1-1.68,1.43-2.6c1.13,1.16,1.87,3.68,2,6.69-.44-.16-1.06-.22-1.15-.46-.63-1.61-1.75-1.7-3.11-1.3-.68.19-1.38.31-2.23.51.49,1.95.9,3.84,1.45,5.67.45,1.49.91,1.75,2.44,1.64,2.57-.18,4.87-.8,5.46-3.79.15-.79.56-1.07,1.41-.77C287.16,519.89,286.53,521.48,286.5,523.32Z"/><path class="cls-1" d="M265.35,526.85a16.51,16.51,0,0,1-9.9.84,10.34,10.34,0,0,1-8.35-9.19A9.79,9.79,0,0,1,252.6,508a16.28,16.28,0,0,1,5.42-1.46,48.38,48.38,0,0,1,6.44.14c.24,1.9,1.14,3.59.23,5.94-.61-.88-.87-1.22-1.08-1.58-2.49-4.31-8.14-3.39-10.25,0s-1.39,10,1.54,13.09c3.59,3.82,8.86,2.31,10.16-1.3a19.24,19.24,0,0,1,1.09-2.09c.51.75.92,1.1.93,1.43,0,1-.16,2-.26,3A2,2,0,0,1,265.35,526.85Z"/><path class="cls-1" d="M220.74,525.65c-2.22-.62-2.18-2.49-2.46-4.17-.87-5.05-1.7-10.1-2.59-15.15a11.58,11.58,0,0,0-.62-1.79,5.49,5.49,0,0,0-4.2,3.07c-1.82,3.49-3.83,6.88-5.78,10.29a11,11,0,0,1-1.77,2.67,13.81,13.81,0,0,1-2.81,1.62c-.06,1,.72.87,1.31,1,4.44.91,4.44.91,5.75.14l-2-1.49,2.47-4.54,5.1,1c.26,1.84.51,3.53.73,5-.74.74-2,.33-1.88,1.77l9,1.74C220.88,526.28,220.88,525.69,220.74,525.65Zm-11.87-10.13c.92-1.72,1.7-3.22,2.49-4.71l.71.13.74,5.23Z"/><path class="cls-1" d="M153.33,480.22c-4.7-4.73-11.49-5.26-15.61-1-4.78,5-4.24,11.19-.28,15.11,4.12,4.09,11,5.78,15.59,1.08C157.37,491,157.93,484.29,153.33,480.22ZM146,495.11a4.75,4.75,0,0,1-7.17-2.92,6.91,6.91,0,0,1-.21-2.71,14.49,14.49,0,0,1,5.29-9.37,6.37,6.37,0,0,1,1.39-.79,4.78,4.78,0,0,1,6.92,4.18c.27,3.07-.93,5.66-2.61,8-.47.65-1,1.23-1.62,1.94A18.26,18.26,0,0,1,146,495.11Z"/><path class="cls-1" d="M197.93,522.2c-2.76-.84-5.51-1.71-8.4-2.63.94-1,.94-1,2.84-1.27,1-3.5,2.13-7.09,3.2-10.69l-.39-.28c-2.27,2.49-4.55,5-6.81,7.47-.84.92-1.62,1.9-2.44,2.86a1.23,1.23,0,0,1-1.89.17q-.84-7.56-1.71-15.1l-.45-.08c-.32.79-.69,1.57-1,2.38-.73,2.22-1.39,4.47-2.16,6.69-.47,1.36-.48,2.46,1.11,3.16.22.09.25.67.4,1.11-3-.38-6.07-1.57-7.17-2.81.34-.14.63-.38.9-.35a2.1,2.1,0,0,0,2.25-1.58c1.55-4.12,3.05-8.25,4.56-12.4a2.05,2.05,0,0,0-.66-2.47,10.43,10.43,0,0,1-1.2-1.62c2.85.18,4.9,1.36,6.92,2,.61,5,1.2,9.77,1.82,14.92,2.32-1.49,3.68-3.46,5.28-5.13s3.17-3.63,4.92-5.64a29.13,29.13,0,0,1,6.21,2.2c.12.07,0,.5.08,1a11.52,11.52,0,0,1-1.28,0,1.76,1.76,0,0,0-2,1.36c-1.28,4.41-2.52,8.84-3.81,13.25-.41,1.41.56,2.11,1.55,2.8C198.26,521.84,198,522.23,197.93,522.2Z"/><path class="cls-1" d="M169.28,501.08l1.73-.27c3.27-.48,5.84-5,2.43-8.73a7.89,7.89,0,0,0-2.16-1.7c-2.86-1.47-5.76-2.85-8.66-4.25-.22-.1-.52,0-1,0,0,.51,0,.89.1,1,1.18,1,1,2,.45,3.15-1.1,2.26-2.12,4.55-3.18,6.82-.67,1.46-1.33,2.93-2.05,4.38-.55,1.08-1.25,2-2.75,1.63-.25-.05-.59.44-1.09.86l8.29,4.09c.83-1.46-.93-1.8-.93-3.08a18.17,18.17,0,0,1,2.75-5.61c1.48.26,1.67,1.17,1.68,2.26a48.91,48.91,0,0,0,.16,4.91c.42,3.61,2.85,5.81,7.16,6.19C168.8,509.16,169.48,505.12,169.28,501.08Zm-1-2.82c-1.2.82-1.78.73-4.44-.81l3.32-7a3.25,3.25,0,0,1,3.29,2.69A5.37,5.37,0,0,1,168.23,498.26Z"/><path class="cls-1" d="M394.8,576.1a14.68,14.68,0,0,1,10.61,4.53,14.48,14.48,0,0,1,4.18,12.27c-.35,3.09-1.77,5.78-3.07,8.51-3.74,7.81-7.43,15.64-10,23.92A148.74,148.74,0,0,0,391.07,648a17.27,17.27,0,0,1-.56,2c-7.2-9.38-12.22-19.47-14.46-30.88a53.92,53.92,0,0,1,1.54-27A36.7,36.7,0,0,1,382.5,582a13.92,13.92,0,0,1,9.15-5.61,16.79,16.79,0,0,1,3.15-.31m0-5.71a22.58,22.58,0,0,0-4.22.41,19.66,19.66,0,0,0-12.76,7.93,42.38,42.38,0,0,0-5.69,11.63,59.79,59.79,0,0,0-1.7,29.84c2.31,11.76,7.39,22.64,15.54,33.25l6.87,8.95L396,651.57c.06-.22.13-.42.19-.6a12.78,12.78,0,0,0,.54-2.13A143.07,143.07,0,0,1,401.94,627c2.4-7.64,5.83-15,9.73-23.17l.35-.73a29.25,29.25,0,0,0,3.24-9.6,20.76,20.76,0,0,0-20.47-23.16Z"/><path class="cls-1" d="M687.55,866.39a14.46,14.46,0,0,1,10.11,3.89,15.56,15.56,0,0,1,5,8.95c.7,4.73-1.75,11.89-7.37,15a50.48,50.48,0,0,1-24.85,6.48q-1.62,0-3.26-.1a65.18,65.18,0,0,1-29.57-9.51c-2-1.18-3.93-2.44-5.87-3.71a11.05,11.05,0,0,1-1.37-1.34c3.6-.76,6.92-1.44,10.23-2.16a139.6,139.6,0,0,0,33-11.71c2.38-1.2,4.72-2.52,7-3.93a13.41,13.41,0,0,1,7-1.85m0-5.71h0a19,19,0,0,0-10,2.71c-2.16,1.34-4.36,2.58-6.54,3.68a134.5,134.5,0,0,1-31.65,11.23c-2.21.49-4.43.95-6.77,1.44l-3.41.71-10.31,2.18,7.45,7.45.39.41a9.71,9.71,0,0,0,1.9,1.68c1.84,1.2,3.93,2.56,6.08,3.84a71.18,71.18,0,0,0,32.14,10.3c1.2.07,2.42.11,3.61.11a56.34,56.34,0,0,0,27.62-7.2c8-4.43,11.25-14,10.25-20.83-.66-4.52-2.76-8.39-6.58-12.17a20.13,20.13,0,0,0-14.13-5.54Z"/><path class="cls-1" d="M735.85,587c2.77,1,4.86-.37,6.78-2.28l29.46-29.36c1.48-1.48,2.32-3.07,1.09-5.09a3.36,3.36,0,0,1,.34-.75c2.64-3.19,2.94-3.18,5.54-.07a18.61,18.61,0,0,0,2,2.05c.7.62,1.5,1.13,2.31,1.73-6.39,9.6-10.91,20-15.93,30.29.5-.42,1-.81,1.5-1.27,4.54-4.58,9.09-9.16,13.59-13.79.91-.93,1.62-2,2.45-3.05a1.9,1.9,0,0,0,.35-2.18c-.82-1.59,0-2.67,1.1-3.61a20.33,20.33,0,0,1,2-1.28c1.18,1.41,2.16,2.75,3.31,3.91s2.46,2.13,3.89,3.34l-3.48,3.48c-2.11-1.15-3.59,0-5,1.43-6.44,6.25-12.93,12.44-19.33,18.74-5.28,5.2-10.46,10.5-15.66,15.78-1.12,1.14-2.34,1.82-4,1.34-1.25-.37-1.59-1.21-1-2.38q6.29-11.86,12.61-23.71,2.93-5.53,5.83-11.07a3.15,3.15,0,0,0,.37-1.87l-1.57,1.57c-5.34,5.39-10.7,10.75-16,16.17-1.46,1.49-2.75,3.14-4.16,4.68s-1.1,3-.31,4.61l-3.26,3.26c-.54-.46-1-.82-1.41-1.22-1.61-1.59-3.17-3.25-4.83-4.78a2.22,2.22,0,0,1-.83-2.25c-2-.49-3.75-1.26-4.76-3.23a6.19,6.19,0,0,1-.14-5.55,76,76,0,0,1,4.53-8.48c2-3.18,4.19-6.19,6.28-9.28a2.28,2.28,0,0,0,.37-1.6,11.55,11.55,0,0,0-1,.81c-3.09,3.08-6.19,6.14-9.24,9.26a27.56,27.56,0,0,0-2.49,3,1.86,1.86,0,0,0-.42,1.41c1,2.43-.73,3.49-2.22,4.68a2.84,2.84,0,0,1-.84.27l-8.35-8.35,3.24-3.24c2.23,1.12,3.71-.08,5.21-1.6q14.94-15,30-30c1.11-1.11,2.15-2.08,1.47-4.05-.48-1.38,1.09-2.22,2.06-3.06s1.69-.28,2.37.27c2.79,2.2,5.82,4.13,7.79,7.24a8.22,8.22,0,0,1,1,7,23,23,0,0,1-4.77,8.32,34.82,34.82,0,0,1-7.9,7.18,15.46,15.46,0,0,1-6,2.48,3,3,0,0,0-2.32,1.44c-3.53,5.58-7.15,11.1-10.61,16.72C735.69,582.78,734.89,584.78,735.85,587Zm25.56-46.85a7.84,7.84,0,0,0-1.57.93q-7,6.89-13.86,13.84a1.89,1.89,0,0,0-.68,2.33,7,7,0,0,0,2.07-.15,12.71,12.71,0,0,0,3-1.56,36.58,36.58,0,0,0,9.14-9.21C760.67,544.59,762.08,542.8,761.41,540.16Z"/><path class="cls-1" d="M650.28,427.17c.29-.41.46-.71.69-1,2.27-2.64,2.62-2.57,4.85,0,1.36,1.56,3,2.88,4.67,4.46A116.51,116.51,0,0,0,649.62,445c-3.36,4.94-6.91,9.76-10,14.95,9.89-6.8,20-13.2,29.35-21,1.1,1.28,2,2.52,3.12,3.59s2.24,1.89,3.52,3a16.62,16.62,0,0,1-1.31,2.29c-.8,1-1.8,1.66-3.18,1a2.39,2.39,0,0,0-2.67.47c-.87.71-1.81,1.36-2.61,2.15-5.2,5.16-10.41,10.32-15.54,15.54-4.52,4.6-8.95,9.28-13.41,13.92-.24.25-.46.52-.7.78-1.1,1.17-1.75,2.42-.58,3.94a7,7,0,0,1-3.54,3.28L624.14,481c-.08-1.44,1-2.27,2-3a1.93,1.93,0,0,1,1.67-.24c1.51.8,2.48,0,3.46-.91.57-.54,1.11-1.11,1.67-1.66l14.43-14.43-.21-.31c-1.32.83-2.68,1.6-4,2.5-6.5,4.65-13,9.33-19.47,14a14.92,14.92,0,0,1-2.19,1.41,1.65,1.65,0,0,1-2.14-.38,1.68,1.68,0,0,1-.23-2.16c1-1.51,2.11-3,3.18-4.46q6.92-9.63,13.84-19.27c.58-.81,1-1.7,1.64-2.72a3.31,3.31,0,0,0-.66.34q-8,7.93-15.95,15.87C620,466.81,619,468,620,469.91a1.34,1.34,0,0,1-.09,1.22c-.88,1-1.62,2.3-3.39,2.55-1.89-1.89-3.84-3.86-5.82-5.81a1.35,1.35,0,0,1-.08-2.07c.74-.82,1.56-1.58,2.38-2.4,2.12,1.11,3.58.13,5-1.2q10.1-9.67,20.23-19.31c2.83-2.7,5.7-5.38,8.51-8.11.81-.78,1.41-1.77,2.23-2.54C650.49,430.78,651.2,429.15,650.28,427.17Z"/><path class="cls-1" d="M660.15,517.18,651.93,509c.28-1.51,1.42-2.26,2.41-3.05a2.1,2.1,0,0,1,1.68-.17,2.76,2.76,0,0,0,3-.9c.61-.62,1.27-1.2,1.88-1.81l28.11-28.11c.49-.49,1-1,1.45-1.51.93-.94,1.76-1.76,1.08-3.39-.55-1.31.74-2.18,1.67-3a1.75,1.75,0,0,1,2.37-.24c3,2.23,6.14,4.27,8.19,7.54a8.27,8.27,0,0,1,.89,7,20.91,20.91,0,0,1-4.29,7.69,49.49,49.49,0,0,1-6.09,6.1,17.54,17.54,0,0,1-8.32,4.14,3.59,3.59,0,0,0-2.49,1.73c-3.49,5.49-7,11-10.4,16.53a7.79,7.79,0,0,0-1.16,5,2.74,2.74,0,0,1-4.17,2.49,5.49,5.49,0,0,1-3.13-5.79,11,11,0,0,1,1.24-4.21c2.25-3.91,4.68-7.72,7.1-11.53a45.87,45.87,0,0,0,3.51-5.89,3.31,3.31,0,0,0-.94.48q-5.82,6-11.6,12c-.63.65-1.24,1.39-.82,2.31.79,1.7-.26,2.62-1.33,3.56C661.32,516.4,660.74,516.75,660.15,517.18Zm21.23-24c1.36,1,2.49.39,3.52-.19a32.53,32.53,0,0,0,9.5-8.38,41.78,41.78,0,0,0,3.06-4.8,3.22,3.22,0,0,0,.28-3.16C694.88,478.32,682.55,490.75,681.38,493.22Z"/><path class="cls-1" d="M825,594.86c-3.58,4.8-6.12,10-8.76,15.17s-5.16,10.2-7.74,15.3l.49.34q5.43-5.71,10.86-11.41c1.38-1.45,2.8-2.87,4.19-4.31.48-.5,1-1,1.43-1.53,1.23-1.46,2.3-3,.82-4.85a8.48,8.48,0,0,1,3.43-3.55l7.19,7.19a19.71,19.71,0,0,1-1.5,2.2,2.39,2.39,0,0,1-2.78.91,2.36,2.36,0,0,0-2.43.53c-1,.81-2.08,1.58-3,2.48q-14.1,13.8-28.15,27.65c-1.85,1.83-3.5,3.87-5.34,5.71s-3.34,1.75-5.49.1c1.94-4.17,4.42-8.12,6.53-12.27s4.25-8.17,6.38-12.25l6.77-13a16.85,16.85,0,0,0-1.67,1.23q-9.33,9.34-18.64,18.71c-.37.37-.71.77-1.06,1.15-1.43,1.57-2.47,3.22-1.08,5.24-1.16,2.16-1.16,2.16-3.44,3.36l-7-7c.34-1.37,1.53-2.17,2.57-3a1.42,1.42,0,0,1,1.18-.25c1.68.64,2.83-.28,4-1.22.14-.11.27-.22.39-.34q14.64-14.37,29.26-28.76c.67-.66,1.17-1.51,1.81-2.22a3.21,3.21,0,0,0,.8-3.56c-.52-1.47,1.31-3.78,2.93-3.85a1.79,1.79,0,0,1,1.32.6A20.21,20.21,0,0,0,825,594.86Z"/><path class="cls-1" d="M716.66,526.09c.25,4.51-1.81,8.06-4.48,11.2a43.8,43.8,0,0,1-9.13,8.52,17.44,17.44,0,0,1-6.14,2.74,8.07,8.07,0,0,1-7.3-1.89c-3-2.68-5.68-5.61-8.48-8.41.42-1.74,1.77-2.47,2.86-3.54a13.48,13.48,0,0,1,1.52.29,2.49,2.49,0,0,0,2.61-.72c1.91-1.78,3.9-3.46,5.75-5.3q10.67-10.58,21.25-21.25c2.07-2.1,4-4.36,5.93-6.52-.53-3.42-.24-4,2.95-5.55,2.31.93,4.09,2.77,6,4.39a23.33,23.33,0,0,1,3.56,4.12,6.49,6.49,0,0,1,.83,6,20.05,20.05,0,0,1-1.91,4.25,29.92,29.92,0,0,1-8.94,9.34A16.15,16.15,0,0,1,716.66,526.09Zm-8.39-1.87L705.47,527c-3.32,3.34-6.67,6.65-9.92,10.06a14.13,14.13,0,0,0-2.29,3.45c-.48,1,.24,1.76,1.31,1.51a7.32,7.32,0,0,0,2.16-.86,33.57,33.57,0,0,0,11.83-11.91,11.44,11.44,0,0,0,1-2.94C709.76,525.48,709.45,524.79,708.27,524.23ZM727.17,506c-1.82,1-12.7,11.74-14,13.83.8,1.06,1.86.81,2.79.36a21.45,21.45,0,0,0,3.52-2.16,25.39,25.39,0,0,0,7.27-8.36C727.34,508.53,727.92,507.33,727.17,506Z"/><path class="cls-1" d="M794.27,608a69,69,0,0,1-15.49,12.27,24.3,24.3,0,0,1-8.28,3.06c-2.46.35-4.9.27-7-1.25a8.08,8.08,0,0,1-3.52-7.67,24.85,24.85,0,0,1,3.85-10.71,71.29,71.29,0,0,1,8.36-11,90.77,90.77,0,0,1,9-8.65,46,46,0,0,1,13.87-8.64,24.18,24.18,0,0,1,6.58-1.46c5.56-.39,8.75,4,8.23,9a22.71,22.71,0,0,1-2.47,7.93,62.37,62.37,0,0,1-11.65,15.61Zm-5.81-4.68c2.3-2.55,5-5.28,7.37-8.27a88.19,88.19,0,0,0,6-8.81,14,14,0,0,0,1.53-4.39c.31-1.47-.4-2.25-1.89-2a15.11,15.11,0,0,0-4.39,1.48,53.71,53.71,0,0,0-10.82,8.07,103.52,103.52,0,0,0-16.37,18.5,24.41,24.41,0,0,0-3,6.29c-.86,2.7.49,3.94,3.13,3a23.93,23.93,0,0,0,4.86-2.44C779.75,611.64,783.87,607.5,788.46,603.33Z"/><path class="cls-1" d="M810.66,660.14a54.72,54.72,0,0,0,11-10.9l-1.05-2.76c1.08-2.07,1.38-2.36,3.49-3.37l8.39,8.39c-.68.81-1.33,1.7-2.09,2.49a1.79,1.79,0,0,1-2.07.67c-1.05-.4-1.84.22-2.54.92-2.59,2.58-5.21,5.14-7.75,7.78a12.68,12.68,0,0,0-1.52,2.41c-1,1.67-1.73,2-3.64,1.47-.84-.22-1.71-.35-2.55-.57-6.19-1.63-9.33-6.55-8.15-12.86.81-4.36,2.93-8.15,5.36-11.78a80.62,80.62,0,0,1,13.85-15.21,47.75,47.75,0,0,1,14.4-9.25,18,18,0,0,1,8.91-1.48,10,10,0,0,1,8.22,6.4c.52,1.18.9,2.41,1.42,3.82-1,1-2.17,2.11-3.23,3.24-2,2.1-3.86,4.24-5.79,6.36a15.82,15.82,0,0,1-1.29,1.3c-.92.8-1.58.84-2.3.22a1.7,1.7,0,0,1-.33-2.36c.67-1.11,1.57-2.09,2.23-3.21a28.31,28.31,0,0,0,2.48-4.85c1.25-3.6-.54-5.62-4.18-4.58a23.9,23.9,0,0,0-6.59,3,98.63,98.63,0,0,0-8.19,6.43,50.08,50.08,0,0,0-5,4.58c-3.93,4.29-7.94,8.53-10.88,13.61a16,16,0,0,0-2.43,6.55C808.69,658.06,808.89,659.4,810.66,660.14Z"/><path class="cls-1" d="M650.63,507.62l-8.14-8.14a13.79,13.79,0,0,1,1.67-2.33c.66-.61,1.44-1.26,2.57-.74,1,.45,1.59-.14,2.18-.91,2.44-3.17,4.92-6.29,7.38-9.44a7,7,0,0,0,.46-.82l-3-3-11.11,8.65c.58,3.49,0,4.53-3,5.71l-6.21-6.21a3.41,3.41,0,0,1,1.72-3,1.91,1.91,0,0,1,2.17-.34c1.17.68,2.22.08,3.14-.58,2.83-2,5.63-4.07,8.42-6.14,4.53-3.36,9.07-6.72,13.57-10.13,5.61-4.24,11.18-8.53,16.78-12.79a4.41,4.41,0,0,1,1.33-.69c1.48-.46,3-.85,4.46-1.29.74-.22,1.47-.71,2.12.14a1.59,1.59,0,0,1-.15,2.14c-1.42,1.86-2.83,3.74-4.25,5.61q-4.49,5.91-9,11.81c-3.54,4.62-7.12,9.2-10.65,13.83-2.89,3.8-5.73,7.64-8.58,11.48a3,3,0,0,0-.74,2.64c.49,2.17,0,3.2-1.92,4.21A6,6,0,0,1,650.63,507.62Zm16.07-35.08a40.55,40.55,0,0,0-7.42,5.44l1.95,1.66Z"/><path class="cls-1" d="M710,567l-8.71-8.71c.15-1.6,1.41-2.46,2.61-3.25a2.16,2.16,0,0,1,1.7.15,2.38,2.38,0,0,0,2.64-.5,23,23,0,0,0,1.92-1.77c1.49-1.47,2.9-3,4.45-4.42,4.32-3.87,7.65-8.53,10.86-13.3,3.49-5.19,7-10.34,10.55-15.51l.6-.85c1-1.42,1.56-2.92.47-4.79.82-.82,1.55-1.67,2.4-2.37,1-.85,1.51-.73,2.42.28,1.45,1.61,2.89,3.24,4.41,4.79a25.2,25.2,0,0,0,2.38,1.94c-.75,3.12-1.94,4-5.11,3.62-2.15,2-3.53,4.76-5.37,7.14a84.39,84.39,0,0,0-5,7.38,165.49,165.49,0,0,0,14.92-9.88c-.36-3.26.43-4.43,3.26-5.2l5.87,5.87c.06,1.71-1.53,2.51-2.8,3.71-2-1-3.65-.17-5.31.89q-11,7-21.93,14.06a10,10,0,0,0-1.59,1.36c-3.83,3.81-7.63,7.65-11.49,11.44-1.22,1.2-2,2.34-1,4.09a1.53,1.53,0,0,1-.16,1.42C712.2,565.49,711.51,566.68,710,567Z"/><path class="cls-1" d="M713.44,483.72l8.35,8.35c0,1.4-1.19,2.27-2.3,3a2.46,2.46,0,0,1-1.95.15,2.25,2.25,0,0,0-2.4.5c-.87.72-1.8,1.38-2.59,2.18q-14.17,14.13-28.3,28.3a17.55,17.55,0,0,0-2.18,2.59,2.54,2.54,0,0,0-.51,1.87c.83,2.19-.56,3.24-2,4.3a4.28,4.28,0,0,1-1.15.43l-8.35-8.35a5.32,5.32,0,0,1,2.47-3,2.27,2.27,0,0,1,1.69-.11,2.67,2.67,0,0,0,2.84-.75c1.13-1.08,2.39-2,3.5-3.12q12.79-12.74,25.53-25.53a51,51,0,0,0,3.62-4.1,3,3,0,0,0,.67-1.85c0-.83-.65-1.68,0-2.48C711.24,485.11,712,484,713.44,483.72Z"/><path class="cls-1" d="M687.29,583.22c2.1-2.1,4.24-4.17,6.27-6.34.36-.38.21-1.22.35-1.84a3.09,3.09,0,0,1,.51-1.47c.19-.18,1,0,1.31.26q2.86,2.72,5.57,5.58c.26.27.36,1.12.16,1.3a3.18,3.18,0,0,1-1.47.42c-.57.11-1.35,0-1.69.3-4.15,4.06-8.23,8.2-12.35,12.29-.84.83-.77,1.45.07,2.2s1.61,1.72,2.5,2.48c1.32,1.12,2.91.93,4.49.73.39-.05,1.1,0,1.15.18a1.66,1.66,0,0,1-.13,1.35c-2.37,2.75-4.46,3.43-7.34.39s-5.79-5.76-8.63-8.68c-.38-.39-.75-1.44-.58-1.6a6.81,6.81,0,0,1,2.1-1.11c.59-.24,1.41-.16,1.83-.55,2-1.89,3.94-3.88,5.9-5.84Z"/><path class="cls-1" d="M671.14,567.06c2.1-2.1,4.24-4.17,6.27-6.34.36-.38.21-1.22.35-1.84a3.09,3.09,0,0,1,.51-1.47c.19-.18,1,0,1.31.26q2.86,2.72,5.57,5.58c.26.27.36,1.12.16,1.3a3.18,3.18,0,0,1-1.47.42c-.57.11-1.35,0-1.69.3-4.15,4.06-8.23,8.2-12.35,12.29-.84.83-.77,1.45.07,2.2s1.61,1.72,2.5,2.48c1.32,1.12,2.91.93,4.49.73.39-.05,1.1,0,1.15.18a1.66,1.66,0,0,1-.13,1.35c-2.37,2.75-4.46,3.43-7.34.39s-5.79-5.76-8.63-8.68c-.38-.39-.75-1.44-.58-1.6a6.81,6.81,0,0,1,2.1-1.11c.59-.24,1.41-.16,1.83-.55,2-1.89,3.94-3.88,5.9-5.84Z"/><path class="cls-1" d="M647,562.51c-4.94-5-5.67-10.9-1.85-16.47,3.39-5,10.1-7.79,16.33-4.77,5.15,2.5,8.51,6.48,8.54,12.45s-3.35,10-8.54,12.42c-4.51,2.14-9.62,1-13.58-2.74C647.61,563.11,647.32,562.81,647,562.51Zm13.76-3.33c2.08-2.43,3.87-4.84,4.45-8,.9-4.84-2.82-8-7.4-6.61a8.35,8.35,0,0,0-1.73.74,16.59,16.59,0,0,0-6.65,6.5,14.34,14.34,0,0,0-1.7,4.35c-.79,4.73,3.24,8,7.7,6.16A40,40,0,0,0,660.78,559.18Z"/><path class="cls-1" d="M747.26,645.33,744,642c-1.66,1.66-3.29,3.24-4.88,4.87a1.87,1.87,0,0,0,0,2.82c.71.78,1.48,1.5,2.2,2.27a3.91,3.91,0,0,0,4,1.18c1-.24,2-.37,3-.55.28,2.45-.45,3.13-5,4.83-.47-.39-1-.82-1.55-1.32q-5.94-5.91-11.86-11.85c-.77-.77-1.2-1.49,0-2.2,3.58,1.58,2.86,2.23,6.13-1s6.24-6.28,9.41-9.38c1.15-1.13,2-2.18.79-3.8a1.55,1.55,0,0,1,.2-1.34,2.11,2.11,0,0,1,1.65.18c1.2,1,2.26,2.21,3.37,3.33l9.3,9.3-4.53,4.53c-.89-.08-1.49-.7-1.09-1.46,2-3.86-.65-5.78-3.09-8.08-2.36,1.39-3.82,3.55-5.86,5.37l3.31,3.31a11.16,11.16,0,0,1,2-.86,1.63,1.63,0,0,1,1.38.32,1.44,1.44,0,0,1-.11,1.39c-1.58,1.69-3.24,3.32-4.93,4.91a1.17,1.17,0,0,1-1.12.11,1.71,1.71,0,0,1-.5-1.31A11.61,11.61,0,0,1,747.26,645.33Z"/><path class="cls-1" d="M710.37,608.44l-3.3-3.3c-1.66,1.66-3.29,3.24-4.88,4.87a1.87,1.87,0,0,0,0,2.82c.71.78,1.48,1.5,2.2,2.27a3.91,3.91,0,0,0,4,1.18c1-.24,2-.37,3-.55.28,2.45-.45,3.13-5,4.83-.47-.39-1-.82-1.55-1.32q-5.94-5.91-11.86-11.85c-.77-.77-1.2-1.49,0-2.2,3.58,1.58,2.86,2.23,6.13-1s6.24-6.28,9.41-9.38c1.15-1.13,2-2.18.79-3.8a1.55,1.55,0,0,1,.2-1.34,2.11,2.11,0,0,1,1.65.18c1.2,1,2.26,2.21,3.37,3.33l9.3,9.3L719.35,607c-.89-.08-1.49-.7-1.09-1.46,2-3.86-.65-5.78-3.09-8.08-2.36,1.39-3.82,3.55-5.86,5.37l3.31,3.31a11.16,11.16,0,0,1,2-.86,1.63,1.63,0,0,1,1.38.32,1.44,1.44,0,0,1-.11,1.39c-1.58,1.69-3.24,3.32-4.93,4.91a1.17,1.17,0,0,1-1.12.11,1.71,1.71,0,0,1-.5-1.31A11.61,11.61,0,0,1,710.37,608.44Z"/><path class="cls-1" d="M639.95,544.19l.78,1.72-3.8,2.52a2.27,2.27,0,0,1-2.55.09c-4.28-2.56-7.91-5.72-9.54-10.65A10.62,10.62,0,0,1,627,527c3.15-3.64,7-5.52,12-4.43a15.66,15.66,0,0,1,9.28,6.05c1.13,1.49,2.27,3,3.49,4.57-1.23,1.35-2.25,2.57-3.38,3.66-.35.34-1,.38-1.52.55-.15-.51-.33-1-.44-1.55,0-.16.13-.37.22-.55,1.9-4-1.85-9.06-7.16-8.59-5.06.45-10.32,6.05-10.39,11.14s3.66,8,8.48,7C638.31,544.65,639.06,544.42,639.95,544.19Z"/><path class="cls-1" d="M722.53,633.08a9.78,9.78,0,0,0,4.41-4.35l-1.41-2.1c.18-1.08.3-1.2,1.43-1.32l7.71,7.71a8.25,8.25,0,0,1-.74,1.1c-.21.23-.49.38-1.19-.09s-1.16-.33-1.44-.05c-1,1-2.11,2-3.1,3.13a3,3,0,0,0-.38,1.2c-.22.85-.64.85-2,0-.61-.36-1.21-.67-1.83-1-4.5-2.67-7.85-6.74-8.7-10.59a10.51,10.51,0,0,1,.49-6.38,14.54,14.54,0,0,1,5.2-6.45,11.06,11.06,0,0,1,7.1-2.38,11.85,11.85,0,0,1,5.49,1.33,19.35,19.35,0,0,1,7.08,6.35c.65.91,1.22,1.82,1.92,2.89-.41.41-.89.83-1.29,1.3-.74.88-1.45,1.8-2.17,2.7a2.78,2.78,0,0,1-.52.52c-.4.29-.82.15-1.46-.45s-.94-1.24-.83-1.64c.16-.56.5-1,.64-1.54a8.23,8.23,0,0,0,.38-2.56,4.5,4.5,0,0,0-3.94-4.1,7.87,7.87,0,0,0-3.57.27,18.9,18.9,0,0,0-3.74,2.12,8.9,8.9,0,0,0-2.11,1.73c-1.48,1.81-3,3.57-3.65,6.16a6.39,6.39,0,0,0,.09,3.69A5,5,0,0,0,722.53,633.08Z"/><line class="cls-4" x1="568.55" y1="660.06" x2="616.74" y2="708.25"/><line class="cls-4" x1="587.67" y1="667.06" x2="609.74" y2="689.13"/><line class="cls-4" x1="643.13" y1="633.67" x2="605.57" y2="671.23"/><line class="cls-5" x1="625.9" y1="596.79" x2="681.49" y2="652.38"/><line class="cls-5" x1="645.14" y1="624.38" x2="652.72" y2="631.96"/><polygon class="cls-6" points="630.28 602.63 579.86 626.13 606.78 653.06 630.28 602.63"/><path class="cls-6" d="M606.65,653.19l-26.92-26.92c-5.35,5.35-3.66,15.71,3.77,23.15S601.3,658.54,606.65,653.19Z"/><polygon class="cls-6" points="674.7 647.05 624.28 670.56 651.2 697.48 674.7 647.05"/><path class="cls-6" d="M651.07,697.61l-26.92-26.92c-5.35,5.35-3.66,15.71,3.77,23.15S645.72,703,651.07,697.61Z"/><path class="cls-7" d="M654.27,616.24l8.72-3.72a1.21,1.21,0,0,1,1.58,1.58l-3.72,8.72a1.27,1.27,0,0,1-2.06.4l-4.92-4.92A1.27,1.27,0,0,1,654.27,616.24Z"/><path class="cls-6" d="M613.49,756.15s-10.74,2.85-19.72,4.51c-11,2-21.16,12.12-28.16,10.94-13.58-2.28-32.91-14.13-29.59-.91,5.95,12.49,1.34,6.79,16.79,22.25S585.6,803,605.41,804.87s29.05,12.16,34.92,10.56,13.89-7,13.27-20.79c0,0,11.3,6.38,15.64,2l-6.09-4.47c2.56-2.56,10.37,2.56,13.2-.26l-3.12-4.73s7.94,3.64,12.43.41l-3.4-4.77s7.2,2.15,11.75-.16l8.18-8.18s-11.84,5.19-28.6-9c-12.76-10.81-24.1-5.25-26.94,3.55l-5.18-5s-2.39,14.2-11.92,10.92S613.49,756.15,613.49,756.15Z"/><polygon class="cls-6" points="491.92 744.44 476.67 741.93 487.54 658.31 508.31 661.71 491.92 744.44"/><polygon class="cls-6" points="511.24 646.91 489.49 643.34 490.37 636.54 512.68 639.62 511.24 646.91"/><line class="cls-6" x1="477.6" y1="734.3" x2="493.49" y2="736.91"/><line class="cls-6" x1="479.19" y1="726.18" x2="495.08" y2="728.78"/><line class="cls-6" x1="487.77" y1="668.35" x2="505.42" y2="671.25"/><polygon class="cls-6" points="517.58 663.23 508.31 661.71 487.54 658.31 478.31 656.79 480.75 641.91 489.49 643.34 511.24 646.91 520.02 648.34 517.58 663.23"/><path class="cls-6" d="M490.38,636.54S480.18,600,523,565.22c-2.53,9.1-5,15.19-3.81,22.18,1.45,8.29-.84,14.71-4.41,21.57,0,0,6.94-10.9,15.06-13.24-4.92,8.56-2,12.7-6.44,24.41a78.24,78.24,0,0,1-10.71,19.48Z"/></g></g></g></svg>