<svg xmlns="http://www.w3.org/2000/svg" viewBox="0 0 1080 1080"><defs><style>.cls-1{fill:#e53935;}.cls-1,.cls-2{stroke:#ffc400;}.cls-1,.cls-2,.cls-6,.cls-7,.cls-8{stroke-miterlimit:10;}.cls-1,.cls-2,.cls-7{stroke-width:11.91px;}.cls-2{fill:#ffb300;}.cls-11,.cls-3{fill:#1c3068;}.cls-10,.cls-4{fill:#ffc400;}.cls-5{fill:#fff;}.cls-6,.cls-7,.cls-8,.cls-9{fill:none;}.cls-6{stroke:#1c3068;stroke-width:33.35px;}.cls-10,.cls-11,.cls-12,.cls-7,.cls-8,.cls-9{stroke:#fff;stroke-linecap:round;}.cls-10,.cls-11,.cls-12,.cls-8,.cls-9{stroke-width:7.15px;}.cls-10,.cls-11,.cls-12,.cls-9{stroke-linejoin:round;}.cls-12{fill:#d03935;}</style></defs><title>marby-logoArtboard 1-web-svg</title><g id="tri-red"><path class="cls-1" d="M538,435H861.36a0,0,0,0,1,0,0v349.6a281.76,281.76,0,0,1-281.76,281.76H538a0,0,0,0,1,0,0V435A0,0,0,0,1,538,435Z"/></g><g id="tri-yellow"><path class="cls-2" d="M214.78,432.4H538.15a0,0,0,0,1,0,0v631.36a0,0,0,0,1,0,0H496.55A281.76,281.76,0,0,1,214.78,782V432.4a0,0,0,0,1,0,0Z"/></g><g id="tri-blue"><rect class="cls-3" x="298.57" y="191.43" width="477.94" height="477.94" transform="translate(-146.89 506.16) rotate(-45)"/><path class="cls-4" d="M537.54,100.87,867.07,430.4,537.54,759.93,208,430.4,537.54,100.87m0-16.85-8.42,8.42L199.59,422l-8.42,8.42,8.42,8.42L529.12,768.35l8.42,8.42,8.42-8.42L875.49,438.82l8.42-8.42L875.49,422,546,92.44,537.54,84Z"/></g><g id="bg-white"><path class="cls-5" d="M183.66,437.66V98l7.14,1.44c.53.11,54,10.74,120.39,10.74,71,0,167.27-12.31,222.64-71l4.23-4.48,4.33,4.39c58,58.73,154.59,71.06,225.36,71.06,66.24,0,118.89-10.63,119.41-10.74L894.32,98V437.66Z"/><path class="cls-4" d="M538.15,43.35c58.28,59,153.25,72.83,229.6,72.83,67.61,0,120.61-10.86,120.61-10.86V431.71H189.61V105.32s53.72,10.86,121.57,10.86c76.63,0,171.28-13.85,227-72.83M538,26.21l-8.47,9C475.58,92.28,381,104.27,311.18,104.27c-65.89,0-118.68-10.52-119.21-10.62L177.7,90.76V443.62H900.27V90.72L886,93.66c-.52.11-52.73,10.62-118.22,10.62-69.64,0-164.54-12-221.13-69.29L538,26.21Z"/></g><g id="blue-stroke"><path class="cls-6" d="M192.71,793.83V110.09c154.25,22,278.14.6,346.63-67.9,70.88,70.88,196,89.9,349,67.9V793.83"/></g><g id="blue-stroke-yellow"><path class="cls-4" d="M539.34,18.61,551.14,30.4c47.47,47.47,123.91,71.7,224.1,71.7q51.33,0,110.75-8.51l19-2.74v703H871.69V129.14a784.33,784.33,0,0,1-95.81,6.23c-102,0-182.44-23.79-236.53-70.44-53.94,46.51-134.13,70.23-235.83,70.23a779.3,779.3,0,0,1-94.13-6V793.83H176v-703l19,2.71a759.08,759.08,0,0,0,106.71,8c100.56,0,178.88-24.33,225.78-71.22l11.79-11.79m0-16.85-8.42,8.42L519.13,22C474.82,66.29,399.66,89.71,301.77,89.71a749.31,749.31,0,0,1-105-7.93l-19-2.71-13.59-1.94v728.6H221.3V142.47a777.14,777.14,0,0,0,82.21,4.61c51.83,0,98.67-6.11,139.22-18.17,37.45-11.14,69.9-27.44,96.61-48.53,26.78,21.16,59.33,37.52,96.89,48.69,40.66,12.09,87.64,18.22,139.64,18.22a781.87,781.87,0,0,0,83.9-4.77V805.74H917V77.1l-13.61,2-19,2.74c-38.72,5.57-75.41,8.39-109.06,8.39-97.85,0-170.42-22.95-215.68-68.21L547.77,10.19l-8.42-8.42Z"/></g><g id="banner"><path class="cls-3" d="M535.23,1069.72a93.55,93.55,0,0,1-15.39-1.09,4.5,4.5,0,0,0-.8,0l-.91,0h-.56c-1.22,0-2.46,0-3.68,0-12.27,0-24.59-1.31-36.15-2.65a507.61,507.61,0,0,1-55.53-9.67,440.8,440.8,0,0,1-79.28-26.64,389.56,389.56,0,0,1-57.12-31.57c-11.51-7.66-26.42-18.06-39.75-30.68q-2.92-2.75-5.87-5.51c-8.09-7.56-16.46-15.38-24.13-23.74A333.71,333.71,0,0,1,170.52,875a282.13,282.13,0,0,1-20.9-46.89,148.89,148.89,0,0,1-4.12-14.52c-2.6-11.5-8.47-19.78-17.95-25.32a22.77,22.77,0,0,1-2.41-1.67l-.11-.09a6.53,6.53,0,0,1-2.12-3.18c0-.07-.05-.16-.1-.28l-2.24-5.82,90.66-30.14,6.4,22.42a213.67,213.67,0,0,0,16.51,40.14,252.42,252.42,0,0,0,20.08,32.51c6.35,8.66,12.94,16.91,19.58,24.53,6.8,7.79,14,15.29,21.28,22.29a292.62,292.62,0,0,0,50,38.22c6.74,4.12,15.66,9.43,24.89,14,8.68,4.31,18.13,8.49,29.74,13.15a293.93,293.93,0,0,0,44.89,13.82c10.48,2.35,21.33,4.2,31.82,6l1.28.22c8.71,1.51,17.79,2.25,26.56,3,2.44.2,4.89.39,7.33.61,6.73.58,14.15.85,23.32.85,4.79,0,9.69-.07,14.43-.14l3.08,0c7.82-.08,15.88-.91,23.67-1.7l4.52-.46c8.7-.88,17.69-1.79,26.3-3.3,11.18-1.94,22.58-4.37,33.9-7.22A324.28,324.28,0,0,0,687,950.29a334,334,0,0,0,46.29-24A256.85,256.85,0,0,0,767,902.06c9.7-8.39,19.55-17.74,30.1-28.57a288.67,288.67,0,0,0,56.11-83.27,185.15,185.15,0,0,0,11.91-35.28,40.64,40.64,0,0,1,1.18-4c.19-.56.39-1.17.6-1.83l1.83-5.8,5.76,1.95c8.38,2.83,16.88,5.65,25.1,8.38,17.77,5.9,36.15,12,54.32,18.55L964.36,776l-8.91,6.62-4,2.93c-1.75,1.29-3.44,2.54-5.13,3.8a28.64,28.64,0,0,0-10.89,16.82c-3.32,14.12-8.41,28.49-16,45.22-10.25,22.6-23.73,44.43-41.21,66.73a329.17,329.17,0,0,1-34.12,37.58,407.37,407.37,0,0,1-72.95,54.74,423.34,423.34,0,0,1-84.94,37.43A392.43,392.43,0,0,1,634,1060.57c-13.54,2.29-24.61,4-34.84,5.46-4.3.59-8.6.84-12.76,1.08-1.64.09-3.29.19-4.92.3-2.86.21-5.72.45-8.59.69-6.75.57-13.73,1.17-20.7,1.25-2.43,0-4.93.1-7.35.18C541.72,1069.62,538.47,1069.72,535.23,1069.72Z"/><path class="cls-4" d="M872.59,750.9c26.49,9,52.82,17.34,79.31,26.9-3.24,2.41-6.17,4.55-9.1,6.74a34.56,34.56,0,0,0-13.13,20.23c-3.6,15.29-9.15,29.85-15.63,44.12-10.7,23.59-24.56,45.22-40.48,65.52a325.38,325.38,0,0,1-33.5,36.9,399.1,399.1,0,0,1-71.88,53.94,415.16,415.16,0,0,1-83.74,36.9A384.59,384.59,0,0,1,633,1054.7c-11.53,2-23.09,3.81-34.66,5.43-5.69.79-11.51.93-17.27,1.33-9.65.69-19.3,1.81-28.95,1.93-5.63.06-11.27.37-16.9.37a88.41,88.41,0,0,1-14.42-1,10.32,10.32,0,0,0-1.77-.13c-.53,0-1.06,0-1.59,0q-1.78,0-3.56,0c-11.88,0-23.7-1.25-35.47-2.61a499.45,499.45,0,0,1-54.87-9.55,432.51,432.51,0,0,1-78.21-26.28,381.35,381.35,0,0,1-56.25-31.09c-13.67-9.1-27-18.73-39-30-10.05-9.48-20.37-18.77-29.71-28.95a326.38,326.38,0,0,1-44.72-62,274.7,274.7,0,0,1-20.46-45.91,142.63,142.63,0,0,1-4-13.94c-2.86-12.65-9.46-22.54-20.75-29.14a17.71,17.71,0,0,1-1.81-1.26c-.12-.1-.14-.33-.38-1l78.83-26.21,4.69,16.44a220.13,220.13,0,0,0,17,41.26,260.38,260.38,0,0,0,20.56,33.28c6.29,8.58,12.91,16.91,19.89,24.92s14.1,15.46,21.66,22.68a297.16,297.16,0,0,0,51,39c8.27,5.05,16.68,10,25.35,14.25,9.84,4.88,20,9.24,30.16,13.34A298.57,298.57,0,0,0,443.31,974c11.05,2.48,22.23,4.36,33.4,6.27,11.36,2,22.89,2.62,34.38,3.62,8,.69,15.9.87,23.85.87,5.86,0,11.72-.1,17.58-.18,8.72-.1,17.44-1,26.13-1.93,9.79-1,19.63-1.93,29.3-3.62q17.3-3,34.33-7.31a331.8,331.8,0,0,0,47-15.94,338.08,338.08,0,0,0,47.12-24.42,266.34,266.34,0,0,0,34.5-24.8c10.58-9.15,20.7-18.89,30.47-28.92,24.18-24.85,43-53.39,57.27-85a190,190,0,0,0,12.29-36.43c.36-1.6,1-3.14,1.64-5.34m-7.71-15.18-3.66,11.6c-.2.63-.39,1.21-.57,1.74a45.88,45.88,0,0,0-1.34,4.57,179.13,179.13,0,0,1-11.54,34.15,282.72,282.72,0,0,1-54.94,81.55c-10.43,10.71-20.15,19.94-29.73,28.22a251.14,251.14,0,0,1-33,23.67,328.21,328.21,0,0,1-45.47,23.57,318.34,318.34,0,0,1-45.31,15.37c-11.17,2.82-22.42,5.21-33.46,7.13-8.4,1.47-16.87,2.33-25.84,3.24l-2.63.27-1.94.2c-8,.82-15.58,1.59-23.11,1.67l-3.11,0c-4.71.07-9.59.14-14.34.14-9,0-16.26-.26-22.83-.83-2.44-.21-4.9-.41-7.35-.61-9-.73-17.58-1.42-26-2.88l-1.3-.22c-10.42-1.78-21.2-3.61-31.54-5.93a287.92,287.92,0,0,1-44-13.54c-11.46-4.6-20.77-8.72-29.29-13-9-4.47-17.8-9.69-24.43-13.74a286.66,286.66,0,0,1-49-37.44c-7.2-6.88-14.23-14.25-20.92-21.91-6.53-7.49-13-15.61-19.26-24.13A246.69,246.69,0,0,1,239.4,806.9a207.84,207.84,0,0,1-16.06-39l-4.69-16.42-3.41-12-11.8,3.92L153,760.21l-28.35,9.43-11.84,3.94,4.46,11.61,0,0a12.37,12.37,0,0,0,4.06,6l.11.09.11.09a28.64,28.64,0,0,0,3,2.07c8.08,4.73,12.89,11.55,15.13,21.47A155,155,0,0,0,144,830,288.16,288.16,0,0,0,165.33,878a339.62,339.62,0,0,0,46.34,64.28c7.82,8.52,16.27,16.41,24.44,24Q239,969,242,971.78c13.65,12.91,28.83,23.51,40.53,31.29a395.65,395.65,0,0,0,58,32.06,446.78,446.78,0,0,0,80.35,27,513.67,513.67,0,0,0,56.16,9.78c11.75,1.36,24.26,2.69,36.86,2.69,1.28,0,2.56,0,3.82,0h.58l.75,0h0a99.64,99.64,0,0,0,16.18,1.14c3.33,0,6.63-.1,9.81-.2,2.5-.08,4.86-.15,7.23-.17,7.2-.09,14.28-.69,21.13-1.27,2.81-.24,5.71-.49,8.53-.69,1.6-.11,3.22-.2,4.84-.3,4.27-.24,8.69-.49,13.21-1.12,10.34-1.45,21.46-3.19,35-5.49a398.28,398.28,0,0,0,53-12.94,429.28,429.28,0,0,0,86.13-38,413.31,413.31,0,0,0,74-55.53,335,335,0,0,0,34.73-38.25c17.78-22.68,31.5-44.9,42-68,7.76-17.09,13-31.8,16.38-46.31a22.54,22.54,0,0,1,8.67-13.42c1.69-1.26,3.39-2.52,5.15-3.82l3.91-2.89,17.82-13.24-20.88-7.53C937.71,760,919.31,753.91,901.51,748c-8.23-2.73-16.73-5.55-25.1-8.39l-11.52-3.9Z"/><path class="cls-5" d="M393.47,979.37c-1.64.88-2.45,1.67-3,1.52-3-.91-4.15.91-5.05,3.1-1.43,3.45-2.74,6.93-4.12,10.39-1.86,4.69-3.72,9.36-5.62,14-1.1,2.6-1.55,5,1.12,7,.48.36.29,1.57.5,3-6.38-2.53-12.17-4.81-18.8-7.46,1.45-.83,2.33-1.79,3-1.64,2.57.52,3.84-.67,4.69-2.84,3.43-8.67,6.77-17.37,10.41-25.94,1.45-3.45-1-5-3.17-7.17.76-.52,1.33-1.19,1.67-1.1C381.09,974.08,386.8,976.51,393.47,979.37Z"/><path class="cls-5" d="M491.08,1013.05c-.69,6.17-3.43,9.29-9.7,10.65-2.6.57-5.38,1.38-8.29-1.31,6.41-3,9.39-7.58,7.65-14.34-1-4-2.17-4.81-7.7-6.08-1.91,5.6-2.07,11.53-2.79,17.34s-1.55,11.39-2.29,16.75l5.27,3.91c-3.88,2.26-7-.1-10.17-.12s-6.43-.88-9.67-1.41c.24-.86.26-1.48.43-1.5,4.15-1,5.07-3.93,5.43-7.84.64-7.05,2-14,2.93-21.06.76-5.24.6-5.65-3.81-10.32a16.69,16.69,0,0,1,3.36-.48c5.91.74,11.82,1.48,17.72,2.36a16.38,16.38,0,0,1,4.19,1.5C488.86,1003.48,491.63,1008,491.08,1013.05Z"/><path class="cls-5" d="M439.41,993.26c-.86.91-1.31,1.79-1.74,1.79-3.48,0-4.93,2-5.79,5-2.84,9.65-5.74,19.27-8.62,28.92-.88,2.93-.88,2.93-4.86,2.79-5.17-12.51-10.34-25.06-15.94-38.62a228.71,228.71,0,0,0-7,24.51,3.55,3.55,0,0,0,1.93,4.22,23.1,23.1,0,0,1,2.81,2.33c-3.34,2.17-5.62-.36-8.05-.79-2.67-.5-5.43-1-8.15-2.76.64-.74,1.1-1.64,1.52-1.64,3.74.1,5.19-2.24,6.1-5.34,2.62-8.93,5.29-17.84,8-27-1.6-1.5-3-2.86-5-4.67,1.24-.41,2.19-1.07,2.93-.88,3.79,1,7.5,2.14,11.34,3.29,3.22,10.72,8.22,20.61,12.91,31.09,3.19-6.48,5.55-15.63,5.62-21.82l-4.79-3.36c1.6-.48,2.6-1.19,3.38-1C430.38,990.49,434.59,991.83,439.41,993.26Z"/><path class="cls-5" d="M528.74,1037.07c-.57,2.69-1.5,5.31-2.45,8.48-3.93-.31-7.58-.69-11.24-.88-3.91-.21-7.84,0-11.75-.4-3.55-.33-7.43.88-11.34-2.22l6.22-2.26c.36-3.22.86-6.5,1.07-9.84.45-6.5.43-13.06,1.19-19.54.48-3.93-1.83-5.6-5.26-7.67,1.52-.6,2.29-1.14,3-1.12,9.48.41,19,.91,28.87,1.41v9.89c-1-.21-2.55-.24-2.64-.67-1.55-5.93-6.08-6.41-11-6.22-.93,0-1.86.1-2.88.14-1.48,2.24-.76,4.72-1,7.05s0,4.46,0,7.27h7.77c2.45-.19,1.17-5.1,5.29-3.91-1.12,4.41.24,8.86-1.48,13.65-1-.69-2.17-1.1-2.24-1.62-.38-3.45-2.6-4.19-5.5-4.17-1.29,0-2.57,0-4.1,0-1.19,4.31-.74,8.58-.74,12.82,0,2.26,1.43,3.36,3.5,3.62,1.86.24,3.72.29,5.6.36a7.37,7.37,0,0,0,6.69-3.34c.83-1.19,1.76-2.31,3.1-4C528.08,1035.3,528.91,1036.31,528.74,1037.07Z"/><path class="cls-5" d="M561.57,1024.44c1.26-1.12,2.24-2,3.24-2.81,4.31-3.53,3.86-9.05,2-12.75a10.26,10.26,0,0,0-9-5.79c-7.05-.31-14.13.14-21.2.41-.86,0-1.67,1-3.1,1.83,3,1.33,5.27,2.1,5.27,5.53,0,8.39.45,16.77,1,25.16.21,3.6-.6,6.22-4.36,7.29-.21,0-.29.6-.62,1.43.29.14.76.64,1.24.64,5.41,0,10.82-.07,16.22-.29.5,0,1-1.19,1.91-2.41-4.88-.29-5.55-3.14-5.46-6.62.1-2.93,0-5.86,0-8.84,2.45-1.31,3.81-.12,4.91,2,1.76,3.29,3.6,6.53,5.46,9.77a10.32,10.32,0,0,0,7.08,5.07c3.24.67,6.74,1.6,10-.91C566.53,1036.59,566.91,1034,561.57,1024.44Zm-4.69-4c-2.1,3.22-5.12,3-8.7,2.29v-16.06c3.45-1,6.27-.24,8.34,2.64C558.4,1011.89,558.57,1017.84,556.88,1020.42Z"/><path class="cls-5" d="M314.62,946.35a23.09,23.09,0,0,0-6.17-11.67c-5.81-6.22-13-10.65-20-15.25-.43-.29-1.29.07-2,.14,1.19,5.19,1.22,5.22-2.12,9.72-4.67,6.29-9.41,12.56-14.08,18.87-.88,1.19-1.62,2.5-2.43,3.74l-.91-.93c-1.69.48-3.31-2.45-5.43.55,5.93,4.57,11.63,9.05,17.44,13.39a28.54,28.54,0,0,0,11.17,5C303.52,972.91,317.14,959.86,314.62,946.35Zm-10.22,5.29c-3.14,6-7.58,10.67-14.41,12.34-4.65,1.14-8.41-.86-11.58-4-1.83-1.83-1.76-4.15,0-6.67,1.55-2.31,3.34-4.5,5-6.74,3.57-4.76,7.15-9.58,10.74-14.34.67-.83,1.48-1.57,2.14-2.29C305.87,934.36,309,942.85,304.4,951.64Z"/><path class="cls-5" d="M232.07,875.4c-4.15,3-8.65,3.53-13.06.69-2.72-1.74-5.55-3.62-6-8.17,3.93,1.24,7.58,2.72,11,.45a21.93,21.93,0,0,0,5.38-4.76c2-2.64,1.64-4.57-.91-8.53-4.15,1.17-25.18,14.77-29.18,18.92.17,1.67.33,3.38.55,5.69-2.64-2-10.15-12.27-11.27-15.15-.19-.52.21-1.31.36-2.1.81.24,1.55.24,1.81.57,1.88,2.31,3.86,1.74,5.91.38,4.84-3.17,9.7-6.31,14.51-9.51,3.55-2.38,7.08-4.79,10.74-7.27-.14-1.83-.29-3.5-.48-6.05,1.43,1,2.36,1.26,2.81,1.91,3.48,5.07,7,10.13,10.24,15.34a17.24,17.24,0,0,1,2,5.74A11.16,11.16,0,0,1,232.07,875.4Z"/><path class="cls-5" d="M352.43,961.81c-.91,5.65-2,7.55-5,8.43-.57-2.64-.38-5.91-1.88-7.77-2-2.45-5.34-3.81-8.55-6-2.57,4.41-4.86,8.36-7.5,12.86,2.69,1.52,5,2.88,6.79,3.88,3.17-.17,4-3.41,7-1.64-1.17,2.1-2.29,4.15-3.41,6.17s-2.17,3.84-3.65,6.41c-.81-1.48-1.86-2.57-1.62-3.1,1.24-2.76-.14-4.24-2.26-5.43-1.43-.81-2.93-1.48-4.88-2.45-2.1,3.79-4.24,7.27-5.91,10.94a4.79,4.79,0,0,0,.48,4.1c3.14,4.12,9.34,5.38,14.08,3.19,1.31-.62,2.55-1.86,4.15,0-1,3.48-3.81,5.57-7,7.79-9.62-5.5-19.25-11-29.87-17,1.83-.6,2.72-1.19,3.5-1.1,4.57.62,4.62.69,7-3.41,3.91-6.81,7.7-13.67,11.65-20.42,1.69-2.88,3.19-5.55.1-8.41-.19-.17,0-.69,0-1,0-.17.19-.31.29-.45C329,947.9,344.73,956.45,352.43,961.81Z"/><path class="cls-5" d="M283.93,915.61c-.29.24-.69.71-.83.64-3.31-1.67-5.77-.83-8.24,2-5.55,6.29-11.44,12.27-17.15,18.39a36.15,36.15,0,0,0-2.31,3c.52,1.69,1,3.19,1.36,4.72,0,.26-.74.71-1.41,1.31-4.43-4.6-9.22-8.72-13-13.84,5.74.74,5.77.76,9.6-3.22q8.29-8.72,16.49-17.49c1-1.07,1.81-2.31,2.29-2.91.79-2.5-3-4-.21-6C275.45,905.56,282.41,912.52,283.93,915.61Z"/><path class="cls-5" d="M590.69,1003.76c.5,4.69,1,9.41,1.5,14.06,7.31.93,8.91.1,11.67-6.1,2.45,2,2.07,4.67,2.31,7.05s.29,4.62.45,7.12c-3.64.24-3-4.72-6.38-4.15-2.33.4-4.74.4-7.58.62.81,5.67,1.55,10.74,2.26,15.68l6.08,1.38c-3.29,3-6.84,2.74-10.13,2.81-3.45.07-6.81,2.14-10.48.62,0-2.69,2.81-2.14,4.07-4,1.17-4.79-.86-9.86-1.07-15a129.41,129.41,0,0,0-1.81-13.84c-.71-4.86-.74-4.86-5.07-7.19.76-.64,1.36-1.57,2-1.64,9.08-1,18.15-2,27.23-2.91.31,0,.64.26,1,.4,1.76,7.86,1.76,7.86-.67,9.55C601.72,1001.88,600.64,1001.55,590.69,1003.76Z"/><path class="cls-5" d="M258.42,889.17c-4.12-6.72-9.53-12.25-15.49-17.77-.57.88-1.43,1.76-1.29,2,2.14,3.34-.1,5.22-2.26,7.08-6.08,5.24-12.22,10.36-18.25,15.65-2.48,2.17-4.93,3.17-8,1.22-.14-.1-.62.29-.93.43.91,3.14,4.38,7.91,10,13.53.4.4,1.19.45,2.48.88-.4-2.36-.71-4.05-1-5.88,3.22-3,6.38-5.84,9.77-8.93,2.79,1.29,3.19,2.93,2.17,5.22a71.21,71.21,0,0,0-3.57,8.77,23.85,23.85,0,0,0-.91,7.67c.19,4.36,3.55,8.27,8.17,9.7a16.22,16.22,0,0,1,.4-12c1.6-3.69,2.31-7.84,5-10.82,2,.24,3.6.6,5.24.64a10.33,10.33,0,0,0,10.46-8.86A12.84,12.84,0,0,0,258.42,889.17Zm-5.34,3a10.33,10.33,0,0,1-8.27,7.41c-3.69.67-5.93-1.33-7.67-5.05l12.32-10.63C252.6,886.07,254.2,888.74,253.08,892.12Z"/><path class="cls-5" d="M831.59,933c-1,2-2.69,1.52-4.38,1.24-3.84-.71-7.7-1.41-11.55-2-8.43-1.41-16.89-2.76-26.49-4.34,2.07,2.33,3.5,4.05,5,5.69,3.55,3.86,7.15,7.67,10.67,11.51,2.26,2.45,4.6,3.86,7.77,1.41.43-.33,1.5.24,3.17.55-4.41,4.12-8.15,7.6-12.63,11.77-.17-1.86-.64-3-.29-3.64,1-1.88,1.12-3.53-.21-5.22-6.58-8.12-13.6-15.82-21-23.3l-5.43,2.17c-.29-2.79-.29-2.79,8.65-10.63,11.46,1.76,22.61,3.5,35.07,5.46-4.72-5.17-8.46-9.31-12.25-13.39-2.36-2.5-5-4-8.41-1.76-.43.26-1.29-.19-2-.33,1.64-3.07,8.27-9.1,11.58-10.72.24.29.69.71.62.88-2,4-.14,7,2.45,9.89,5.77,6.38,11.48,12.82,17.2,19.2.38.43.81.79,1.19,1.22C831.4,929.79,832.64,931,831.59,933Z"/><path class="cls-5" d="M889,858.58c-6.08,9.48-12.15,19-18.8,29.37-.5-2-1.07-2.93-.91-3.74.93-4.48,1-4.55-2.48-6.84-8.15-5.27-16.37-10.43-24.59-15.68l-6.41,2.79c2.41-6.08,5.77-10,8.36-14.34s5.41-8.48,8.31-13c3.14,1.26,6.41,2.26,9.27,5.74-1.81.31-3,.81-4.05.64-3.48-.57-5.72,1.12-7.48,3.76-1.24,1.83-2.33,3.74-3.65,5.88L859,860.94c1.48-2.41,3.34-4.31,3.74-6.48.36-1.79-1-3.91-1.67-5.93,3.26,0,7.91,2.67,12.32,7-.86.4-1.81,1.24-2.29,1-3.19-1.45-4.91.07-6.29,2.67-.69,1.29-1.52,2.5-2.45,4.05,3.48,2.14,6.74,4.34,10.15,6.22,2.76,1.52,3.79,1.24,5.81-1.17,3.41-4.05,5.81-8.36,2.38-13.65-.91-1.38-.71-2.41.91-3.22C885.05,852.55,886.43,855.82,889,858.58Z"/><path class="cls-5" d="M863.9,895A34.16,34.16,0,0,1,851,910.83c-8.17,5.38-17.25,4.88-25-1.24A20.82,20.82,0,0,1,818.92,886a34.28,34.28,0,0,1,5.65-10.15c2.62-3.34,6-6.05,9.39-9.29,3,2.45,6.74,3.62,8.79,8.43-2.12-.4-3-.52-3.79-.74-9.7-2.69-16.44,7-14.68,15.06,1.83,8.36,12.25,16.77,20.85,17,10.55.33,15.91-9.65,12.63-16.91a41.16,41.16,0,0,1-1.43-4.69c1.79.36,2.88.26,3.36.74,1.43,1.48,2.6,3.17,3.88,4.79S864.61,893.27,863.9,895Z"/><path class="cls-5" d="M798.62,959c-4.05,2.36-6.65-.45-9.46-2.53-8.43-6.17-16.82-12.39-25.28-18.53a23,23,0,0,0-3.43-1.72,11.78,11.78,0,0,0-1.62,10.72c2.38,7.84,4.36,15.8,6.43,23.7.57,2.17,1.36,4.38,1.29,6.55s-1.1,4.36-1.69,6.53c1.33,1.55,2.26.21,3.29-.45,7.62-5.19,7.62-5.19,8.39-8.27l-4.91.69c-1-3.67-2-7-3-10.34l8.74-6c3,2.33,5.77,4.46,8.2,6.34,0,2.19-2.41,3.48-.17,5.38l15.25-10.65C799.71,959.71,798.88,958.85,798.62,959Zm-31.35,2.57c-1.14-3.88-2.17-7.27-3.17-10.63.38-.29.79-.57,1.19-.86l8.5,6.62Z"/><path class="cls-5" d="M637.83,991.42c-13.44,0-23.87,9.2-23.61,21.61.31,14.41,9.91,22.75,21.13,22.7,11.7,0,23.92-7.72,23.75-21.39C658.94,1001.36,650.17,990.64,637.83,991.42Zm10.82,32.71a9.49,9.49,0,0,1-14.39,6.27,14.07,14.07,0,0,1-4.17-3.69,31,31,0,0,1-5.81-21.63,13.64,13.64,0,0,1,.86-3.22c2.67-7.05,10.1-9,15.82-4.05,4.76,4.12,6.74,9.72,7.74,15.72.26,1.64.29,3.34.45,5.24A39.39,39.39,0,0,1,648.65,1024.13Z"/><path class="cls-5" d="M761.19,987.56c-5.12,2.84-10.29,5.6-15.72,8.51-.1-2.88-.1-2.88,2.24-6.05-3.5-6.69-7.08-13.6-10.67-20.49l-1,.17c.31,7,.6,14,.93,21.06.12,2.6.41,5.19.6,7.81a2.54,2.54,0,0,1-2.45,3q-12-9.9-23.94-19.75l-.76.55c.67,1.64,1.26,3.34,2,4.93,2.12,4.36,4.38,8.65,6.46,13.06,1.26,2.69,2.81,4.34,6.08,3,.45-.19,1.31.62,2.14,1-4.79,3.84-10.89,6.65-14.22,6.43.29-.71.36-1.48.79-1.83,1.88-1.64,1.81-3.67,1-5.65-3.67-8.36-7.41-16.68-11.17-25a4.12,4.12,0,0,0-4.46-2.67c-1,.1-2-.29-4-.62,4.31-3.93,8.91-5.22,12.65-7.31,8,6.46,15.63,12.65,23.85,19.32,1.19-5.62.31-10.53.21-15.37-.1-5-.64-10-1-15.58a57.86,57.86,0,0,1,12-5.91c.26-.07.79.67,1.5,1.31a23.69,23.69,0,0,1-1.79,1.93,3.74,3.74,0,0,0-1,5c4.46,8.39,9,16.75,13.46,25.16,1.43,2.69,3.81,2.29,6.19,1.83C761.14,986.54,761.38,987.47,761.19,987.56Z"/><path class="cls-5" d="M690.27,998.66c.83-1.17,1.45-2.07,2.07-3a10.65,10.65,0,0,0-9-16.46,15.4,15.4,0,0,0-5.5.67c-6.17,2-12.27,4.29-18.39,6.5-.45.17-.74.76-1.45,1.5.79.69,1.22,1.36,1.57,1.33,3-.31,4.26,1.43,5.12,4,1.64,5,3.45,9.84,5.19,14.75,1.12,3.14,2.29,6.29,3.31,9.48.76,2.41,1,4.74-1.6,6.46-.43.29-.21,1.52-.33,2.88,6.29-2.22,12-4.22,17.65-6.19-.91-3.38-3.88-1.29-5.72-3.17a38.8,38.8,0,0,1-4.07-12.34c2.48-1.81,4.05-.74,5.62.86a100,100,0,0,0,7.22,7c5.74,4.69,12.34,4.36,19-1.43C701.11,1011.29,696.32,1004.33,690.27,998.66Zm-5.5-2.62c-.55,3-1.5,3.69-7.48,5.36L672,986.13c3-2.69,5.74-2.62,8.53-.88C683.57,987.16,685.48,992.16,684.77,996Z"/><path class="cls-3" d="M188.84,918.81c-26.74-3.52-49.45-11.75-69.42-25.17a118.81,118.81,0,0,1-39.54-44.32,82.42,82.42,0,0,1-8.17-23.82c-1.58-9,.5-17.8,6.17-26.14a37,37,0,0,1,31.42-16.67c11.59,0,21.59,4.92,29,14.18,4.3,5.41,6.39,11.4,8.41,17.19l.57,1.62c6.35,18,12.25,34.15,20.15,49.3a304.29,304.29,0,0,0,24.93,40.63,21,21,0,0,1,1.83,3.1c.21.41.43.84.69,1.33l5.67,10.31Z"/><path class="cls-4" d="M109.3,788.64h0a30.19,30.19,0,0,1,24.26,11.93c4,5.08,5.92,11.13,8,17.08,6,17,12.11,34,20.48,50.07a310.24,310.24,0,0,0,25.42,41.42,36.06,36.06,0,0,1,2.09,3.75c-24.45-3.22-46.74-10.68-66.87-24.21a112.47,112.47,0,0,1-37.58-42.13,76.55,76.55,0,0,1-7.58-22.1c-1.38-7.88.77-15.21,5.23-21.77a30.83,30.83,0,0,1,26.49-14.06m0-11.91h0A42.8,42.8,0,0,0,73,796c-6.48,9.53-8.94,20.08-7.11,30.52a88.4,88.4,0,0,0,8.75,25.54,124.69,124.69,0,0,0,41.5,46.52c20.75,13.94,44.29,22.48,72,26.13l23.33,3.07-11.33-20.62c-.23-.42-.43-.81-.61-1.17a26.65,26.65,0,0,0-2.34-3.94,298.39,298.39,0,0,1-24.43-39.84c-7.72-14.81-13.54-30.74-19.81-48.53l-.56-1.6c-2.08-6-4.44-12.74-9.37-18.94a42.28,42.28,0,0,0-33.57-16.43Z"/><path class="cls-3" d="M894.26,913.43c-.41,0-.86,0-1.34,0s-.89,0-1.43,0h-11l6-9.21,3.93-6c2.76-4.21,5.36-8.19,7.94-12.22a286.5,286.5,0,0,0,30.75-64.59c1.65-5,3.12-10.25,4.36-15.59,3.44-14.74,18.71-26.8,34.06-26.88h.33c9.72,0,17.27,2.25,23.75,7.07,10,7.45,17.78,24.23,13.43,39.42A111.89,111.89,0,0,1,971.21,879c-16.32,14.48-36.55,24.88-60.12,30.9-4.93,1.26-10,2.32-14.38,3.25A11.65,11.65,0,0,1,894.26,913.43Z"/><path class="cls-4" d="M967.86,784.81c7.38,0,14.13,1.38,20.2,5.9,8,6,14.95,20.11,11.26,33a105.58,105.58,0,0,1-32.05,50.88c-16.63,14.75-36.19,24.1-57.64,29.59-4.68,1.2-9.4,2.2-14.13,3.19a5.91,5.91,0,0,1-1.23.11c-.75,0-1.63-.07-2.77-.07,4.19-6.43,8.09-12.32,11.9-18.28a291.16,291.16,0,0,0,31.39-65.93c1.74-5.29,3.24-10.68,4.51-16.1,2.67-11.46,15.1-22.21,28.29-22.27h.3m0-11.91h-.36A41.26,41.26,0,0,0,942,782.42a40.68,40.68,0,0,0-14.3,22c-1.2,5.17-2.62,10.24-4.22,15.08a280.54,280.54,0,0,1-30.11,63.24c-2.56,4-5.15,8-7.89,12.14l-4,6-12,18.41h22c.39,0,.75,0,1.18,0,.58,0,1.1,0,1.59,0a17.7,17.7,0,0,0,3.68-.36c4.49-.94,9.58-2,14.63-3.31,24.49-6.26,45.55-17.1,62.59-32.22a117.74,117.74,0,0,0,35.6-56.51c5.25-18.33-4.12-37.3-15.6-45.84-7.57-5.63-16.24-8.25-27.3-8.25Z"/></g><g id="logo-text"><path class="cls-3" d="M606.09,310.71c5.58-2.59,6.61-7.72,6.62-13.36q.08-43.37.16-86.75c0-4.37-1.11-8-5.89-9.11a7,7,0,0,1-.61-1.62c-.8-8.6-.35-9,8.07-8.26a38.82,38.82,0,0,0,6,.08c2-.13,3.88-.54,6-.85,4.73,23.58,13.46,45.65,21.17,68.17.12-1.36.34-2.73.34-4.09-.06-13.46-.11-26.92-.29-40.37,0-2.71-.62-5.4-.89-8.11a4,4,0,0,0-2.7-3.74c-3.55-1.15-4-3.87-3.71-7a42.41,42.41,0,0,1,1.06-4.85c3.83.34,7.23.87,10.64.88s6.77-.49,10.67-.82v10.27c-4.81,1.42-5.26,5.34-5.32,9.52-.28,18.71-.72,37.42-.87,56.14-.12,15.46.06,30.91.17,46.37,0,3.33-.77,6.14-3.88,7.82-2.39,1.29-4.13.57-4.95-2.09q-8.21-26.77-16.37-53.56-3.82-12.48-7.73-24.92a6.57,6.57,0,0,0-2.21-3.3c0,1.54,0,3.08,0,4.62.06,15.82.08,31.64.23,47.47,0,4.35.58,8.68.77,13,.17,4.07,2.79,6,6.33,7.25v9.62c-1.48.11-2.68.27-3.88.28-4.73,0-9.46-.12-14.18.08a4.62,4.62,0,0,1-4.54-2.09c-3.71,2.26-7.38,3.67-11.78,2.26a12.91,12.91,0,0,1-8.4-8,158.5,158.5,0,0,1-5.83-19.19c-1.79-7.58-2.95-15.3-4.42-23a4.75,4.75,0,0,0-1.81-2.91,24.1,24.1,0,0,0-.3,2.7c0,9.09-.07,18.19,0,27.28a57.49,57.49,0,0,0,.77,8.1c.15,1,.71,2.4,1.46,2.71,5.06,2.1,4.08,6.22,3.62,10.18a5.92,5.92,0,0,1-.85,1.64H554.09v-9.54c4.94-1.64,5.35-5.6,5.33-10-.08-29.46,0-58.93,0-88.39,0-3.28.09-6.24-3.81-8.15-2.74-1.34-1.66-4.89-1.46-7.55.17-2.29,2.08-2.89,3.9-3.11,7.36-.87,14.68-2.49,22.16-.8a17.14,17.14,0,0,1,11.74,8.89c3.34,6,4.61,12.63,5.23,19.3a72.63,72.63,0,0,1-1.05,22.25,32.24,32.24,0,0,1-5.17,12.48,6.33,6.33,0,0,0-1.31,5.55c3,13.43,5.83,26.92,9,40.31C599.61,304.71,601.37,308.83,606.09,310.71Zm-31.41-106.8a16.35,16.35,0,0,0-.95,3.69q-.09,20.43,0,40.85c0,1.59-.07,3.33,2.44,4.44.89-1,2.23-2,2.83-3.27a26.52,26.52,0,0,0,2.1-6.7,76.31,76.31,0,0,0-.11-27.06C580.13,211.54,579.56,206.82,574.68,203.92Z"/><path class="cls-3" d="M244.15,201.16c-.18-1-.36-1.73-.41-2.44-.54-7.24.08-7.66,7.14-7.17,4.3.3,8.65-.16,13.47-.3.4,12.45,2.83,24.84,5.19,37.26,2.33,12.25,4.21,24.58,7.32,36.77,4.56-24.61,10-49,12.38-74.19,3.52.27,6.71.71,9.9.69s6.09-.51,9.54-.83a34.67,34.67,0,0,1,1.45,5.32c.29,2.65-.21,5.11-3.17,6.22a5,5,0,0,0-3.25,4.62c-.23,2.34-.66,4.68-.67,7-.06,15.28-.13,30.56,0,45.84.12,13.44.49,26.88.75,40.32,0,.73.08,1.45.11,2.18.11,3.34,1,6.15,5,6.66.91,3.43,1.1,6.58-.37,10.05H285c-2.24-2-1.89-4.82-1.48-7.48a4,4,0,0,1,2.1-2.82c3.41-1,3.69-3.63,3.76-6.45,0-1.64,0-3.27,0-4.91q0-21.28,0-42.55l-.76-.16c-.72,3.17-1.61,6.31-2.14,9.52-2.74,16.45-5.38,32.91-8.08,49.37A31.11,31.11,0,0,1,277.3,319a3.44,3.44,0,0,1-3.71,2.59c-1.78-.17-3.18-1-3.52-2.84-.7-3.74-1.27-7.51-1.89-11.27q-4-24.42-8-48.83c-.34-2-1-4-1.59-6.42a6.9,6.9,0,0,0-.46,1.47q-.07,23.46-.12,46.92c0,3.61.21,7,4.54,8.21a2.79,2.79,0,0,1,1.67,1.92c.21,2.82,1,5.79-1.24,8.75-5.58,0-11.37,0-17.15,0a2.81,2.81,0,0,1-3.17-2.94c-.12-2.3,0-4.62,0-7.06,4.76-1.5,5.47-5.08,5.56-9.09q.64-29.16,1.35-58.31c.19-8.17.47-16.33.59-24.5,0-2.34-.54-4.7-.47-7C249.78,206.18,248.42,202.74,244.15,201.16Z"/><path class="cls-3" d="M391.45,319.36H367.21c-1.81-2.64-1.23-5.43-.95-8.06a4.37,4.37,0,0,1,2.23-2.72c2.47-1.29,3.2-3.27,3.17-5.82,0-1.82.1-3.64.1-5.45q0-41.46,0-82.93c0-1.45-.08-2.91-.09-4.36,0-2.76,0-5.19-3.41-6.58-2.75-1.12-2.12-4.32-1.91-6.84.16-1.94.94-3.52,3.15-3.85,7.7-1.13,15.35-2.75,23.2-1,5.35,1.21,9,4.34,11.65,9a43.61,43.61,0,0,1,5,17.67,103.21,103.21,0,0,1,0,18c-.56,6.52-2.28,12.88-6.17,18.37a7.49,7.49,0,0,0-1.12,6.23c3,13.26,5.87,26.52,9,39.72a16.24,16.24,0,0,0,5.62,9c3.61,3,2,8.48-2.48,9.83-5.26,1.6-9.8.28-13.15-3.92a23,23,0,0,1-4.38-8c-2.44-9.09-4.48-18.29-6.53-27.47-1-4.56-1.73-9.19-3.51-13.87a6.9,6.9,0,0,0-.68,2.09c.18,11.62.42,23.24.64,34.86,0,1.89.21,3.88,2.2,4.61,3.67,1.34,3.49,4.25,3.29,7.2C392,316.49,391.7,317.85,391.45,319.36Zm-4-66.65c3.52-.48,4.24-3.1,4.91-5.46,2.46-8.65,2.64-17.52,1.64-26.38a87.13,87.13,0,0,0-2.56-11.6,6.72,6.72,0,0,0-4.25-5.07C385.36,210.83,385.51,247.35,387.42,252.71Z"/><path class="cls-3" d="M749.2,190.74c1.81,12.36,5.75,23.8,9.46,35.3,3.66,11.34,7.43,22.65,11.15,34l1.22-.22q-.41-16.43-.81-32.85c-.1-4.18-.11-8.36-.18-12.54,0-1.45,0-2.91-.15-4.36-.35-4-1-7.77-5.94-8.36a17.69,17.69,0,0,1-.17-10.29H785a41.12,41.12,0,0,1,1,5.46c.15,2.24-.39,4.36-2.76,5.43a4.93,4.93,0,0,0-2.8,4.36c-.3,2.7-.75,5.4-.78,8.1q-.45,41.15-.74,82.3c0,5.43.55,10.87.54,16.3,0,5.12-2.34,7.5-7.94,8.24-3.3-9-5.47-18.5-8.46-27.72s-5.78-18.32-8.66-27.48l-9.14-29.1a35.14,35.14,0,0,0-.65,4.27q0,27.54.11,55.09c0,1.09.09,2.18.14,3.27.21,4.42,1.11,8.38,6.14,9.31,1.47,4.9,1.47,4.9-.12,10H730.24c-1.52-2.53-.94-5.45-.7-8.29a3,3,0,0,1,1.38-2.11c3.43-1.53,3.77-4.58,4.09-7.69,0-.36.07-.73.07-1.09q.39-42.78.74-85.57c0-2-.5-4-.6-5.93-.16-2.95-1.16-5-4.08-6.44s-3.64-7.49-1.36-10a3.73,3.73,0,0,1,2.82-1.06C738,191.87,743.38,192.18,749.2,190.74Z"/><path class="cls-3" d="M487.95,249.17c7,6.28,9.22,14.55,9.92,23.13s.88,17.41-.9,26a36.38,36.38,0,0,1-5,13.1,16.84,16.84,0,0,1-13.56,8c-8.31.4-16.65.1-24.91.1-2-3.18-1-6.25-1-9.44a28.12,28.12,0,0,1,2.66-1.81,5.2,5.2,0,0,0,2.78-4.92c.19-5.43.65-10.86.68-16.3q.12-31.34,0-62.68c0-6.15-.57-12.3-.87-18.37-5.82-4.26-6.29-5.58-3.84-12.53,4.78-2,10.11-1.95,15.28-2.33a48.66,48.66,0,0,1,11.32.83,13.53,13.53,0,0,1,10.05,7.59,41.82,41.82,0,0,1,3.46,9.09,62.41,62.41,0,0,1,.59,27C493.69,240,491.71,244,487.95,249.17Zm-15.14,9.63c0,2.84,0,5.54,0,8.23,0,9.82,0,19.64.21,29.46a29.46,29.46,0,0,0,1.71,8.46c.72,2.15,2.94,2.24,4.17.3a15.27,15.27,0,0,0,1.91-4.46,70,70,0,0,0-.12-35,23.86,23.86,0,0,0-2.89-5.78C476.86,258.44,475.39,257.87,472.81,258.79Zm1-54.77c-1.26,4.11-1.42,36.05-.25,41,2.75.38,3.95-1.55,4.63-3.58a44.75,44.75,0,0,0,2-8.39,53,53,0,0,0-1.61-23C477.79,207.52,476.88,204.9,473.8,204Z"/><path class="cls-3" d="M723.22,255.5c.07,13.84-.89,27.56-4.74,40.94-1.72,6-4,11.71-7.71,16.72-3.11,4.15-6.83,7.62-12.2,8.51-6.62,1.09-12.08-1-16.5-6.13-5.37-6.25-8.11-13.71-10.13-21.47-2.43-9.34-3.27-18.9-3.86-28.52a189.33,189.33,0,0,1,.55-26.05c.87-11.42,2.88-22.72,7.71-33.21a50.44,50.44,0,0,1,7.54-11.85c7.62-8.78,18.74-7.07,25.44,1.15a47.37,47.37,0,0,1,8.06,15.34c4.31,13.06,5.74,26.54,5.84,40.22C723.23,252.59,723.22,254,723.22,255.5Zm-15.47,1.68c-.38-7.15-.41-15.15-1.33-23.05a184,184,0,0,0-4.15-21.82,29.19,29.19,0,0,0-4.22-8.74c-1.71-2.62-3.9-2.72-5.73-.15a31.52,31.52,0,0,0-4.29,8.66c-2.85,9-3.54,18.48-4.05,27.87a215.92,215.92,0,0,0,3.15,51.43,50.91,50.91,0,0,0,4.78,13.76c2.7,5.25,6.53,5.08,9.05-.18a49.92,49.92,0,0,0,3.56-10.76C707.16,282.29,707.13,270.11,707.75,257.18Z"/><path class="cls-3" d="M824.28,308.23a114.14,114.14,0,0,0,.1-32.24l-5.63-2.52c-1.46-4.65-1.44-5.52.19-10.12H843.7c.2,2.19.53,4.47.58,6.75,0,1.61-.18,3.2-2.06,4.05-2.14,1-2.39,3-2.39,5.1,0,7.63-.1,15.27.05,22.9,0,1.94.83,3.87,1.32,5.79,1,3.92.34,5.46-3.19,7.53-1.56.92-3,2-4.59,2.92-11.53,6.73-23.42,4.09-31-6.94-5.24-7.63-7.69-16.34-9.47-25.28-2.82-14.18-2.86-28.54-2-42.86.7-12,2.68-23.79,7.59-34.88,2.59-5.84,5.75-11.3,11-15.32,6.69-5.16,13.92-5.65,21.56-2.69,2.5,1,4.88,2.23,7.72,3.55,0,3.05-.1,6.31,0,9.55.22,6,.57,11.95.84,17.92a33,33,0,0,1,0,3.82c-.18,2.53-1.09,3.57-3.06,3.73a3.55,3.55,0,0,1-4-3c-.65-2.63-.75-5.4-1.44-8a59.05,59.05,0,0,0-3.49-10.82c-3.48-7.15-9.09-7.49-12.92-.6a49.84,49.84,0,0,0-5.3,14.15c-1.42,7.08-1.93,14.35-2.6,21.56a104.46,104.46,0,0,0-.61,14.11c.52,12.12.86,24.29,4,36.12,1.27,4.75,2.85,9.39,6.08,13.24C818.31,308.07,820.57,309.74,824.28,308.23Z"/><path class="cls-3" d="M363.31,319.3h-24c-.38-2.08-1.05-4-1-5.89s.26-4,2.7-4.88c2.08-.76,2.13-2.56,1.87-4.55-1.08-8.26-2-16.54-3-24.81a14.52,14.52,0,0,0-.54-1.88h-8.92l-3.64,29.14c6,4.3,6.71,6.67,3.94,12.91H312.37a7.11,7.11,0,0,1-1.9-7c.32-1.52.7-3.17,2.71-3.7,2.73-.73,3.39-3.15,3.78-5.48,1.21-7.14,2.31-14.3,3.37-21.47,1.73-11.64,3.46-23.29,5.08-34.95,2-14.53,3.9-29.07,5.88-43.61a9.21,9.21,0,0,1,.94-3c1.5-2.86,3.14-5.64,4.67-8.48.76-1.41,1.12-3.22,3.34-2.92,2,.26,2.68,1.58,2.92,3.37.65,4.85,1.35,9.69,2,14.53,1.39,10.23,2.8,20.46,4.15,30.69,1.59,12,3.07,24.08,4.7,36.11,1.34,9.87,2.82,19.72,4.28,29.58.29,2,.83,3.75,2.79,5,3.92,2.47,4.68,4.76,3.38,9A12.46,12.46,0,0,1,363.31,319.3Zm-28-75.43a84.58,84.58,0,0,0-2.92,19l5.31-.43Z"/><path class="cls-3" d="M538.42,319.33h-25.7c-2.15-2.58-1.55-5.7-.93-8.64.2-.93,1.64-1.88,2.72-2.29,2.25-.85,2.91-2.62,3.16-4.64a48.07,48.07,0,0,0,.23-5.44c0-4.36-.19-8.74,0-13.09.66-12.08-1.3-23.86-3.61-35.63-2.51-12.8-4.89-25.62-7.33-38.43-.14-.71-.25-1.43-.37-2.15-.61-3.59-2-6.6-6.37-7.77,0-2.41-.18-4.74,0-7,.28-2.79,1.15-3.31,4-3.16,4.52.23,9,.51,13.56.56a52.57,52.57,0,0,0,6.37-.66c3.5,5.71,3,8.76-2.2,12.87-.23,6.11,1.82,12.21,2.61,18.45a176,176,0,0,0,3.57,18.19,345.17,345.17,0,0,0,7.43-36.58c-5.35-4.28-5.9-7.17-2.86-12.48h17.32c2.61,2.44,1.45,6,1.34,9.59-4.36,1.43-5.64,5.12-6.51,9.14-3.86,17.7-7.76,35.38-11.6,53.08a20.92,20.92,0,0,0-.34,4.34c0,11.27,0,22.54-.08,33.82,0,3.56.44,6.47,4.57,7.49a3.18,3.18,0,0,1,1.85,2.32C539.47,313.83,540.21,316.62,538.42,319.33Z"/><path class="cls-3" d="M420.7,191.41h24.63c2,2.1,1.6,5.1,1.1,7.89a5.13,5.13,0,0,1-2.65,3.09,4.69,4.69,0,0,0-2.81,4.27c-.23,2.34-.61,4.69-.61,7q-.06,41.74,0,83.48a36.61,36.61,0,0,0,.6,7c.26,1.29,1,3.06,2,3.52,4.45,2,4,5.6,3.42,9.26a8.93,8.93,0,0,1-1.07,2.33H420.68c-1.59-2.72-1.32-5.48-.82-8.11a4.74,4.74,0,0,1,2.34-2.66,5.57,5.57,0,0,0,3.09-5.31c.07-3.25.56-6.5.57-9.76q.08-37.65,0-75.3a106.34,106.34,0,0,0-.7-11.39,6.32,6.32,0,0,0-1.73-3.72c-1.29-1.17-3.44-1.52-3.65-3.68C419.5,196.72,419.06,194,420.7,191.41Z"/><path class="cls-3" d="M528.87,376.73c0-6.2.11-12.41-.1-18.6,0-1.1-1.49-2.12-2.19-3.23-.59-.93-1.42-1.95-1.42-2.92,0-.55,1.48-1.53,2.31-1.56q8.22-.21,16.44,0c.78,0,2.18,1.13,2.16,1.68,0,1-.95,1.89-1.55,2.79s-2,1.95-2,2.93c-.13,12.11,0,24.23-.1,36.34,0,2.47,1,3.27,3.35,3.15s4.91.17,7.34,0c3.6-.31,5.67-2.92,7.7-5.55.5-.65,1.64-1.61,2-1.44a3.46,3.46,0,0,1,1.81,2.18c.56,7.55-1.51,11.63-10.25,11.41-8.51-.22-17,0-25.54-.07-1.14,0-3.24-1-3.22-1.5a14.2,14.2,0,0,1,1.46-4.74c.53-1.23,1.85-2.33,1.89-3.51.2-5.76.09-11.54.09-17.31Z"/><path class="cls-3" d="M481.22,376.73c0-6.2.11-12.41-.1-18.6,0-1.1-1.49-2.12-2.19-3.23-.59-.93-1.42-1.95-1.42-2.92,0-.55,1.48-1.53,2.31-1.56q8.22-.21,16.44,0c.78,0,2.18,1.13,2.16,1.68,0,1-.95,1.89-1.55,2.79s-2,1.95-2,2.93c-.13,12.11,0,24.23-.1,36.34,0,2.47,1,3.27,3.35,3.15s4.91.17,7.34,0c3.6-.31,5.67-2.92,7.7-5.55.5-.65,1.64-1.61,2-1.44a3.46,3.46,0,0,1,1.81,2.18c.56,7.55-1.51,11.63-10.25,11.41-8.51-.22-17,0-25.54-.07-1.14,0-3.24-1-3.22-1.5a14.2,14.2,0,0,1,1.46-4.74c.53-1.23,1.85-2.33,1.89-3.51.2-5.76.09-11.54.09-17.31Z"/><path class="cls-3" d="M439,405.58c-14.6,0-24.43-7.72-27-21.55-2.31-12.31,3.4-26.39,17-31.12,11.28-3.91,22.1-3,31,5.77s9.75,19.62,5.72,30.92c-3.5,9.8-12.71,15.67-24.07,16C440.7,405.6,439.83,405.58,439,405.58Zm15.38-25.21c-.52-6.64-1.44-12.85-5.19-18.31-5.82-8.47-15.88-7.57-20.66,1.18a17.42,17.42,0,0,0-1.46,3.64,34.6,34.6,0,0,0-.22,19.39,29.92,29.92,0,0,0,3.91,8.92c5.82,8.13,16.54,7,20.43-2.27C452.78,389,453.3,384.57,454.33,380.37Z"/><path class="cls-3" d="M708.93,379.9h-9.73c0,4.89-.08,9.64,0,14.38,0,2.6,1.54,4,4.13,4.18,2.19.11,4.4,0,6.59.09a8.16,8.16,0,0,0,7.67-4.18c1.1-1.81,2.4-3.49,3.63-5.26,4,3.19,4,5.28-.23,14.47-1.27.1-2.75.33-4.24.33-11.66,0-23.31,0-35,0-2.27,0-4-.44-3.21-3.27,7.6-3,7.51-.93,7.53-10.57,0-9.24-.05-18.47,0-27.71,0-3.35-.28-6.15-4.44-6.77-.71-.11-1.89-1.94-1.69-2.27.58-.95,1.7-2.09,2.69-2.17,3.28-.25,6.59-.07,9.89-.06H720v13.37c-1.43,1.2-3.22,1.17-3.75-.55-2.68-8.7-9.48-7.58-16.47-7.36-1.43,5.52-.4,10.87-.71,16.56h9.75a23.27,23.27,0,0,1,1.71-4.24,3.39,3.39,0,0,1,2.51-1.56,3,3,0,0,1,1.89,2.21c.16,4.83.11,9.67,0,14.51,0,.66-1,1.82-1.49,1.82a3.56,3.56,0,0,1-2.67-1.19C709.93,383.45,709.64,381.89,708.93,379.9Z"/><path class="cls-3" d="M600.11,379.9h-9.73c0,4.89-.08,9.64,0,14.38,0,2.6,1.54,4,4.13,4.18,2.19.11,4.4,0,6.59.09a8.16,8.16,0,0,0,7.67-4.18c1.1-1.81,2.4-3.49,3.63-5.26,4,3.19,4,5.28-.23,14.47-1.27.1-2.75.33-4.24.33-11.66,0-23.31,0-35,0-2.27,0-4-.44-3.21-3.27,7.6-3,7.51-.93,7.53-10.57,0-9.24-.05-18.47,0-27.71,0-3.35-.28-6.15-4.44-6.77-.71-.11-1.89-1.94-1.69-2.27.58-.95,1.7-2.09,2.69-2.17,3.28-.25,6.59-.07,9.89-.06h27.43v13.37c-1.43,1.2-3.22,1.17-3.75-.55-2.68-8.7-9.48-7.58-16.47-7.36-1.43,5.52-.4,10.87-.71,16.56H600a23.27,23.27,0,0,1,1.71-4.24,3.39,3.39,0,0,1,2.51-1.56,3,3,0,0,1,1.89,2.21c.16,4.83.11,9.67,0,14.51,0,.66-1,1.82-1.49,1.82a3.56,3.56,0,0,1-2.67-1.19C601.12,383.45,600.83,381.89,600.11,379.9Z"/><path class="cls-3" d="M401.49,389l3.7,1.39c-.67,3.29-1.28,6.3-1.89,9.31a4.73,4.73,0,0,1-3.63,3.89c-10.09,2.53-20.1,3.22-29.78-1.64-7.93-4-12.21-10.51-12.85-19.26-.73-10,2.25-18.54,11.1-24.16a32.66,32.66,0,0,1,22.62-4.76c3.87.54,7.74,1,11.89,1.59.18,3.81.47,7.1.43,10.38,0,1-.92,2-1.42,3.05-1-.53-2-1-2.93-1.63-.29-.19-.35-.73-.49-1.12-3.07-8.66-16.09-10.64-23.22-2.11-6.79,8.13-6.29,24.14,1.1,31.76,7.2,7.41,17.22,6.43,22.78-2.23C399.77,392.09,400.53,390.64,401.49,389Z"/><path class="cls-3" d="M654.39,398.3a20.39,20.39,0,0,0,.09-12.92l-5.17-1c-1.34-1.86-1.33-2.21.17-4.06h22.74a17.21,17.21,0,0,1,.53,2.7c0,.65-.16,1.28-1.9,1.62-2,.39-2.19,1.22-2.2,2,0,3.06-.09,6.12,0,9.18,0,.78.76,1.55,1.21,2.32.92,1.57.31,2.19-2.93,3-1.44.37-2.78.8-4.22,1.17-10.58,2.7-21.51,1.64-28.46-2.78a21.92,21.92,0,0,1-8.69-10.13C623,383.77,623,378,623.76,372.28a23.07,23.07,0,0,1,7-14,24.72,24.72,0,0,1,10.07-6.14c6.15-2.07,12.78-2.26,19.8-1.08,2.3.39,4.49.89,7.09,1.42,0,1.22-.09,2.53,0,3.83.2,2.4.52,4.79.77,7.18a5.79,5.79,0,0,1,0,1.53c-.16,1-1,1.43-2.81,1.49-2,.07-3.22-.44-3.64-1.2-.59-1.05-.69-2.16-1.33-3.21a17.17,17.17,0,0,0-3.21-4.34,9.39,9.39,0,0,0-11.87-.24,16.41,16.41,0,0,0-4.86,5.67,39.42,39.42,0,0,0-2.39,8.64,18.57,18.57,0,0,0-.56,5.65c.48,4.86.79,9.73,3.71,14.48a13.33,13.33,0,0,0,5.58,5.31A10.47,10.47,0,0,0,654.39,398.3Z"/></g><g id="libra"><line class="cls-7" x1="467.08" y1="665.18" x2="609.23" y2="665.18"/><line class="cls-7" x1="505.6" y1="647.31" x2="570.71" y2="647.31"/><line class="cls-7" x1="538.15" y1="516.28" x2="538.15" y2="627.06"/><line class="cls-8" x1="458.35" y1="487.3" x2="622.33" y2="487.3"/><line class="cls-8" x1="527.43" y1="499.61" x2="549.77" y2="499.61"/><polygon class="cls-9" points="473.43 489.45 433.73 598.47 513.14 598.47 473.43 489.45"/><path class="cls-10" d="M513.14,598.86H433.73c0,15.78,17.78,28.57,39.71,28.57S513.14,614.64,513.14,598.86Z"/><polygon class="cls-9" points="604.46 489.45 564.76 598.47 644.17 598.47 604.46 489.45"/><path class="cls-10" d="M644.17,598.86H564.76c0,15.78,17.78,28.57,39.71,28.57S644.17,614.64,644.17,598.86Z"/><path class="cls-5" d="M528.89,474.14l7.37-18.35a2.52,2.52,0,0,1,4.67,0l7.37,18.35a2.65,2.65,0,0,1-2.45,3.63H531.35A2.65,2.65,0,0,1,528.89,474.14Z"/></g><g id="shoe"><path class="cls-10" d="M675.08,740.62s-11.64,20.05-22.43,35.74c-13.27,19.28-13.33,49.08-25.39,57.67-23.39,16.68-69.37,27.69-45,42.29,27.19,9.65,12,8,57.58,8s63.27-33.43,95.16-60,60.77-24.92,67.07-35.93,10.2-30.77-11.1-50.23c0,0,26.07-7.25,26.07-20.05l-15.58,2.38c0-7.54,19.08-11.51,19.08-19.85L809,698.34s17.08-6.35,18.95-17.73l-12.05-2S829.67,671.14,833,661V636.89s-9.8,25.11-55.48,28.89c-34.77,2.87-43.28,27.79-34.49,45L728,711s17.42,24.46-1.47,33.69S675.08,740.62,675.08,740.62Z"/></g><g id="torch"><polygon class="cls-11" points="478.51 902.65 452.32 921.46 317.1 745.8 354.55 717.45 478.51 902.65"/><line class="cls-9" x1="442.45" y1="908.82" x2="469.72" y2="889.24"/><line class="cls-9" x1="432.81" y1="894.49" x2="460.08" y2="874.9"/><line class="cls-9" x1="360.18" y1="796.56" x2="390.47" y2="774.8"/><rect class="cls-11" x="312.2" y="740.74" width="83" height="31.47" transform="translate(-374.9 348.43) rotate(-35.69)"/><path class="cls-12" d="M317.1,745.8s-69-38.93-57.09-153.28c9.69,17.15,15,29.81,27.1,38.33,14.37,10.1,20.45,22.93,25.31,38.31,0,0-5.83-26.31,2.68-41.73,5.36,19.88,15.78,21.67,26.5,45.49a163.19,163.19,0,0,1,12.94,44.52Z"/></g></svg>