<svg xmlns="http://www.w3.org/2000/svg" viewBox="0 0 203.25361 214.87317">
  <defs>
    <style>
      .cls-1 {
        fill: #1c3068;
      }
    </style>
  </defs>
  <title>shoe-wing</title>
  <g id="Layer_2" data-name="Layer 2">
    <g id="Layer_22" data-name="Layer 22">
      <g id="Layer_23" data-name="Layer 23">
        <g id="Layer_24" data-name="Layer 24">
          <path class="cls-1" d="M134.33743,45.51422c8.32646-4.9067,16.311-9.39979,24.08041-14.23826,12.85177-8.00354,25.1143-16.77855,34.9331-28.52361A7.68193,7.68193,0,0,1,196.46439.41259c3.51866-1.36693,6.86256.79285,6.788,4.55757C203.1605,9.60538,200.669,13.30238,198.18,16.951c-.83568,1.22506-1.48788,1.96874.191,3.33534,2.35143,1.914,1.83692,4.734.9177,7.284-1.16341,3.2273-3.36335,5.817-5.504,8.432-.47545.58085-1.53537,1.08195-.66625,2.08771,3.09334,3.57961,1.20516,6.78918-.74538,9.972a13.37585,13.37585,0,0,1-1.60522,1.95271c-1.57426,1.7209-3.09142,2.973-2.05809,6.09585.94,2.84072-1.43428,5.64108-3.42887,7.94578a32.48021,32.48021,0,0,1-2.80554,2.76036,1.3361,1.3361,0,0,0-.37944,1.92529c1.4226,2.558.45349,4.92122-.85108,7.16081a20.55078,20.55078,0,0,1-5.78329,6.06316c-7.2375,5.35038-14.40724,10.80928-22.29481,15.18974-2.57917,1.43239-3.38434,3.05692-2.71905,6.08251a114.90341,114.90341,0,0,1,2.73465,18.04259,12.77065,12.77065,0,0,1-5.01585,11.299,74.40266,74.40266,0,0,1-13.79961,8.612,57.29235,57.29235,0,0,0-14.07659,9.6927,37.49988,37.49988,0,0,0-8.3453,11.88776,157.23914,157.23914,0,0,1-7.55121,14.75411A53.69055,53.69055,0,0,1,82.6696,198.54714c-17.335,9.23653-35.51155,15.4785-55.30443,16.2712a43.177,43.177,0,0,1-15.01867-1.67989c-11.824-3.782-16.01624-16.32092-8.7767-26.42646a30.99248,30.99248,0,0,1,5.23337-5.85734,74.7883,74.7883,0,0,0,16.16466-18.56346,114.80228,114.80228,0,0,1,12.53488-16.2368c5.72112-6.39268,9.20076-14.08274,12.64867-21.78741,3.40963-7.61914,6.84026-15.30134,11.64833-22.08734a14.52607,14.52607,0,0,0,2.76956-12.43412c-1.69023-9.33772,1.50188-18.00122,7.43473-25.4063C79.02817,55.572,87.72962,48.5435,96.40432,41.51c11.108-9.00637,21.60111-18.61188,29.65694-30.57888.88856-1.32,1.64529-2.74536,2.65375-3.96418a4.85688,4.85688,0,0,1,5.79554-1.66633c2.24594.85144,2.90063,2.70814,2.85607,4.97726a22.83584,22.83584,0,0,1-2.56084,9.1284c-.47435,1.02869-.71973,1.6748.42351,2.55347,1.88174,1.44624,2.21863,3.59327,1.78027,5.84927a24.94643,24.94643,0,0,1-3.14025,7.47275c-.33988.59966-1.28909,1.29455-.62452,1.95829C135.58058,39.573,135.17725,42.31185,134.33743,45.51422ZM100.94952,88.878a62.58312,62.58312,0,0,1-6.36163,3.76306c-4.0144,2.05442-7.68943,1.60567-11.39571-.81926-3.86548-2.529-6.7937-2.41637-9.6803,1.15238-3.51893,4.35049-7.706,8.18386-10.40529,13.20792-3.32627,6.19108-6.66059,12.369-9.5456,18.78711-3.57333,7.94928-7.06132,15.9701-12.92634,22.60938a118.23142,118.23142,0,0,0-12.72222,16.44465,80.49664,80.49664,0,0,1-17.05132,19.65,26.75206,26.75206,0,0,0-4.66958,5.23775c-5.49661,7.92433-2.39192,17.54739,6.69783,20.78205a26.05634,26.05634,0,0,0,10.541,1.19211,124.62579,124.62579,0,0,0,40.78512-9.93171,116.85917,116.85917,0,0,0,21.39484-11.21807c8.62452-5.98619,14.18935-14.57819,18.456-24.01569a73.52847,73.52847,0,0,1,6.29078-11.91287c6.02737-8.67652,14.47559-14.28,23.73519-18.87288a43.83895,43.83895,0,0,0,11.44732-7.57846c1.772-1.7304,4.13608-3.369,4.09351-6.1382-.10507-6.83184-1.74586-13.45037-3.04087-20.23088a4.80234,4.80234,0,0,0-1.01144.43188,14.39756,14.39756,0,0,0-1.21353,1.16981,32.10012,32.10012,0,0,0-7.59391,12.63575c-2.15489,6.87706-7.07247,10.83089-14.20067,12.01747-7.35907,1.225-11.87061-2.69328-15.36377-8.46593a18.49047,18.49047,0,0,1-.94595-1.72462C102.15812,108.27547,99.44994,99.2161,100.94952,88.878Zm70.31253-48.75642c.697-.64563,1.20087-1.1341,1.72734-1.59686,8.1842-7.19367,16.08813-14.65536,22.471-23.565a24.21579,24.21579,0,0,0,4.07272-7.9677c.28715-1.11392.8452-2.57927-.5486-3.30224-1.3458-.69805-2.25543.5007-3.07568,1.35953-2.26512,2.37167-4.36939,4.90562-6.72615,7.17964-10.8711,10.48921-23.29068,18.87451-36.33687,26.36688-9.68222,5.56048-19.38013,11.11308-28.13992,18.07044-13.67631,10.86223-21.839,24.67713-20.884,42.61437.45105,8.47173,3.31758,16.31559,9.52956,22.5555a9.66476,9.66476,0,0,0,9.29589,2.64672,14.47273,14.47273,0,0,0,11.68726-10.52928,29.61582,29.61582,0,0,1,7.6506-12.26514,53.67191,53.67191,0,0,1,10.918-8.35339,215.984,215.984,0,0,0,21.267-14.71721,13.7028,13.7028,0,0,0,4.52948-5.28582c.35165-.79548,1.15067-1.75088.251-2.57776-.93883-.8629-1.74016.06673-2.46946.57a82.766,82.766,0,0,1-11.38551,6.68512c-.65182.31045-1.33092,1.06971-2.3681.27928.49462-.40274.89063-.78136,1.339-1.08181a141.06925,141.06925,0,0,0,17.03919-13.79167,14.519,14.519,0,0,0,3.47286-4.37922c.46469-.98367,1.36978-2.19107.32512-3.07331-1.00584-.8495-2.12692.10205-3.03558.73765a114.22364,114.22364,0,0,1-13.62647,8.42239c-.94859.482-1.83846,1.30869-3.50728.88,1.79506-1.22159,3.32445-2.25268,4.844-3.29813,6.33829-4.36066,12.67-8.72987,18.014-14.34027a12.7669,12.7669,0,0,0,3.01418-4.02649c.38735-1.00563,1.22877-2.2813.24935-3.131-1.06277-.922-2.064.24-2.93226.88272a117.56533,117.56533,0,0,1-15.73432,9.81757,5.89819,5.89819,0,0,1-3.19811,1.06435c1.15634-.86242,1.88279-1.43249,2.63731-1.96255a110.29814,110.29814,0,0,0,18.63277-16.226c2.32721-2.57659,4.60194-5.2323,5.87167-8.525.42336-1.0978.85534-2.61458-.30887-3.37993-1.16139-.76353-2.0361.52128-2.78331,1.28326a101.36533,101.36533,0,0,1-18.76749,14.72831C173.442,39.411,172.69589,40.1961,171.26205,40.12159ZM115.198,42.415a5.653,5.653,0,0,1,1.78721-2.88015,125.645,125.645,0,0,0,13.30217-18.80069c1.61115-2.85954,3.12374-5.79805,3.53166-9.11572.12732-1.03551.61779-2.5027-.71178-3.01768-1.469-.569-2.12927.83773-2.749,1.8477C123.2,22.11435,113.54876,31.52733,103.22359,40.29325c-8.004,6.7953-16.3152,13.22359-23.72608,20.708-5.96473,6.024-10.2707,12.85332-11.51587,21.395-.4617,3.16725,3.16,6.57579,6.2818,5.68939,3.90789-1.10961,7.53182-.91918,10.96237,1.53619a7.90424,7.90424,0,0,0,8.50386.71164c3.35216-1.61206,7.15191-2.74149,8.43569-6.8138a55.6843,55.6843,0,0,1,20.31222-28.95493,31.9531,31.9531,0,0,0,7.99218-9.35835,6.35508,6.35508,0,0,0,1.10708-3.42863c-.01752-1.55722-.71645-1.93773-1.88114-.981-1.227,1.00793-2.28587,2.21873-3.43642,3.32191a64.31,64.31,0,0,1-10.2152,8.3095,6.008,6.008,0,0,1,2.06428-2.77731c5.90211-6.19773,11.56588-12.57648,15.0263-20.5428.563-1.296,1.55762-3.17622-.06657-4.09148-1.63871-.92347-2.24663,1.13756-3.02912,2.15679A87.76571,87.76571,0,0,1,115.198,42.415Z"/>
          <path class="cls-1" d="M65.32393,122.89829c-2.34093,1.8474-4.577,3.453-6.63112,5.26483-4.8866,4.31026-9.47183,8.82228-10.15542,15.87935-.24822,2.56264-3.00148,2.50025-4.74536,3.62865,1.88791-3.21385,3.73662-6.45147,5.67172-9.63662,4.2851-7.05333,7.70671-14.54523,11.28444-21.96024.46242-.95835.9138-2.72221,2.00052-2.329,1.45156.52524.79555,2.2903.50611,3.4898a38.723,38.723,0,0,1-1.46175,3.93586c-.24506.67879-.80155,1.48991-.10013,2.07452.58715.4894,1.18455-.22736,1.76146-.47613A1.6205,1.6205,0,0,1,65.32393,122.89829Z"/>
          <path class="cls-1" d="M68.67314,105.65768c.31617.16259.86628.27537.91318.49538.64173,3.01112,1.707,3.99026,4.74751,1.94642,1.493-1.00364,3.68429.60715,5.60692.75834.39874.03134.4198.51644.32318.921-.39381,1.64872-3.84678,4.40915-5.63479,4.22277-2.00447-.20888-4.06343.61344-5.95618-1.38415-2.507-2.64587-.85779-4.72671.08485-7.05017Z"/>
          <path class="cls-1" d="M38.89536,153.79358c-1.21229,1.90615.76184,4.55033-1.25583,6.04512-1.5833,1.173-3.90968,1.25794-5.28872,3.62222,2.83614-.97639,5.0967-2.808,7.98058-2.008-3.42.78751-6.59345,1.93337-8.72822,4.92744a.83259.83259,0,0,1-1.2304.2173c-.44021-.341-.27222-.84286-.152-1.29392a14.52978,14.52978,0,0,1,2.35368-4.7398A31.35178,31.35178,0,0,1,38.89536,153.79358Z"/>
          <path class="cls-1" d="M65.81513,138.11936c-5.95147,6.94069-7.555,16.74465-14.87583,22.74669C51.434,159.28952,64.22228,139.39991,65.81513,138.11936Z"/>
          <path class="cls-1" d="M68.75782,105.56724c-2.01733,1.08727-2.54369,3.59858-4.49635,4.88394-.34871-2.714,2.01586-6.4948,5.03033-8.18159.72143,1.31244-.7954,2.20835-.62026,3.39049Z"/>
          <path class="cls-1" d="M49.69665,148.43433a13.08876,13.08876,0,0,0-8.39279,5.91019C42.52972,150.06594,45.79616,147.84185,49.69665,148.43433Z"/>
          <path class="cls-1" d="M71.96309,121.03262c-.66522.01014-1.73632.2407-1.51367-.604.2848-1.08047,1.6128-1.02168,2.59365-1.07.64533-.03182,1.91955-.31048,1.71353.66625C74.46444,121.4101,72.88334,120.70028,71.96309,121.03262Z"/>
          <path class="cls-1" d="M57.55429,134.05224q-2.61433,1.82619-5.2287,3.65236C53.4285,135.60606,55.0096,134.16429,57.55429,134.05224Z"/>
          <path class="cls-1" d="M29.98312,168.56852q2.92175.48768,5.84349.97539C33.82,169.63287,31.74642,170.35145,29.98312,168.56852Z"/>
        </g>
      </g>
    </g>
  </g>
</svg>
